<svg xmlns="http://www.w3.org/2000/svg" width="3391" height="980" fill="none" viewBox="0 0 3391 980"><defs><clipPath id="a" class="frame-clip frame-clip-def"><rect width="3391" height="980" rx="0" ry="0"/></clipPath></defs><g class="frame-container-wrapper"><g class="frame-container-blur"><g class="frame-container-shadows" clip-path="url(#a)"><g class="fills"><rect width="3391" height="980" fill="#4a4a4a" class="frame-background" rx="0" ry="0"/></g><g class="frame-children"><g class="frame-container-wrapper"><g class="frame-container-blur"><g class="frame-container-shadows"><g class="fills"><rect width="2297" height="274" x="946" y="353" class="frame-background" rx="0" ry="0"/></g><g fill="#000" class="frame-children"><path fill="#d8abff" d="M1028.066 414.928c-22.588 0-42.279 8.715-54.731 25.855V416.38h-26.642v210.328h27.8v-79.6c12.742 16.56 31.854 24.984 53.573 24.984 44.885 0 77.607-31.375 77.607-78.728 0-47.062-32.722-78.436-77.607-78.436Zm-2.317 132.762c-29.248 0-51.545-21.498-51.545-54.326 0-32.536 22.297-54.034 51.545-54.034 29.537 0 51.835 21.498 51.835 54.034 0 32.828-22.298 54.326-51.835 54.326ZM1205.263 572.092c46.044 0 79.635-32.827 79.635-78.728 0-45.9-33.591-78.436-79.635-78.436-46.044 0-79.924 32.536-79.924 78.436 0 45.901 33.88 78.728 79.924 78.728Zm0-24.402c-29.537 0-51.834-21.498-51.834-54.326 0-32.827 22.297-54.034 51.834-54.034 29.537 0 51.545 21.207 51.545 54.034 0 32.828-22.008 54.326-51.545 54.326ZM1433.706 439.621c-12.743-16.559-31.854-24.693-53.573-24.693-44.884 0-77.607 31.374-77.607 78.437 0 47.062 32.723 78.727 77.607 78.727 22.589 0 42.279-8.714 54.731-26.146v24.404h26.642V354.792h-27.8v84.829ZM1382.45 547.69c-29.537 0-51.834-21.498-51.834-54.325 0-32.828 22.297-54.035 51.834-54.035 29.248 0 51.545 21.207 51.545 54.035 0 32.827-22.297 54.325-51.545 54.325ZM1685.819 414.928c-26.061 0-47.491 11.039-59.073 28.469-10.136-19.173-29.827-28.469-53.284-28.469-23.166 0-41.988 8.715-52.992 24.402v-22.95h-26.643v153.97h27.801v-79.31c0-33.408 18.243-51.129 46.044-51.129 25.193 0 39.672 14.816 39.672 45.029v85.41h27.799v-79.31c0-33.408 18.243-51.129 46.044-51.129 25.193 0 39.672 14.816 39.672 45.029v85.41h27.801v-88.606c0-45.319-25.483-66.816-62.841-66.816ZM1839.498 414.928c-24.614 0-47.491 6.972-63.417 19.754l11.583 20.917c11.872-10.168 30.405-16.559 48.649-16.559 27.511 0 41.122 13.654 41.122 37.185v5.519h-44.019c-45.752 0-61.68 20.336-61.68 45.029 0 26.727 22.008 45.319 56.758 45.319 24.036 0 41.12-8.134 50.388-22.078v20.336h26.351v-92.963c0-42.124-23.745-62.459-65.735-62.459Zm-6.371 135.667c-21.138 0-33.88-9.587-33.88-24.984 0-13.073 7.818-23.822 35.329-23.822h42.859v21.498c-6.951 17.721-23.458 27.308-44.308 27.308ZM2020.387 414.928c-24.326 0-44.016 9.005-55.31 24.693V416.38h-26.643v153.97h27.801v-79.31c0-33.408 19.112-51.129 48.649-51.129 26.353 0 41.411 14.816 41.411 45.029v85.41h27.8v-88.606c0-45.319-26.353-66.816-63.708-66.816ZM2251.87 571.655c-14.589 0-27.719-3.319-39.389-9.954-11.477-6.634-20.523-15.805-27.136-27.514-6.614-11.903-9.92-25.563-9.92-40.979 0-15.611 3.306-29.271 9.92-40.979 6.613-11.709 15.659-20.783 27.136-27.222 11.67-6.635 24.8-9.953 39.389-9.953 13.421 0 25.385 3.025 35.888 9.075 10.698 6.049 19.16 14.928 25.385 26.636 6.418 11.513 9.628 25.661 9.628 42.443 0 16.587-3.112 30.734-9.337 42.443-6.224 11.708-14.684 20.685-25.385 26.929-10.502 6.048-22.562 9.075-36.179 9.075Zm1.459-18.442c10.892 0 20.618-2.439 29.176-7.317 8.754-5.074 15.564-12.099 20.425-21.075 5.059-9.172 7.588-19.709 7.588-31.613 0-12.099-2.529-22.636-7.588-31.613-4.861-8.976-11.671-15.904-20.425-20.782-8.558-5.074-18.284-7.611-29.176-7.611-10.698 0-20.326 2.537-28.886 7.611-8.559 4.878-15.366 11.806-20.425 20.782-5.056 8.977-7.586 19.514-7.586 31.613 0 11.904 2.53 22.441 7.586 31.613 5.059 8.976 11.866 16.001 20.425 21.075 8.56 4.878 18.188 7.317 28.886 7.317Zm57.772 16.978v-46.249l2.042-31.027-2.919-31.027V353h20.718v217.191h-19.841ZM2432.434 571.655c-15.95 0-29.955-3.319-42.016-9.954-12.06-6.829-21.493-16.098-28.302-27.806-6.808-11.904-10.211-25.466-10.211-40.687 0-15.221 3.208-28.686 9.628-40.394 6.614-11.708 15.561-20.88 26.842-27.515 11.477-6.829 24.316-10.245 38.515-10.245 14.394 0 27.136 3.318 38.224 9.953 11.281 6.439 20.131 15.611 26.551 27.514 6.418 11.709 9.628 25.271 9.628 40.687 0 .976-.098 2.049-.291 3.22v3.22H2367.66v-15.514h122.254l-8.171 6.147c0-11.123-2.429-20.978-7.292-29.564-4.67-8.781-11.088-15.611-19.259-20.489-8.169-4.879-17.603-7.318-28.302-7.318-10.504 0-19.937 2.439-28.301 7.318-8.365 4.878-14.881 11.708-19.55 20.489-4.668 8.782-7.001 18.831-7.001 30.149v3.22c0 11.708 2.527 22.051 7.586 31.027 5.25 8.782 12.449 15.709 21.59 20.783 9.336 4.878 19.939 7.317 31.803 7.317 9.337 0 17.993-1.658 25.968-4.976 8.171-3.317 15.172-8.391 21.009-15.22l11.671 13.464c-6.81 8.196-15.368 14.441-25.677 18.733-10.115 4.294-21.298 6.441-33.554 6.441ZM2573.966 571.655c-12.643 0-24.607-1.757-35.888-5.27-11.281-3.707-20.133-8.293-26.551-13.757l9.337-16.392c6.224 4.684 14.199 8.782 23.925 12.294 9.724 3.317 19.938 4.976 30.636 4.976 14.589 0 25.092-2.244 31.512-6.732 6.418-4.684 9.628-10.831 9.628-18.441 0-5.659-1.849-10.05-5.544-13.172-3.501-3.317-8.169-5.756-14.004-7.318-5.837-1.756-12.353-3.219-19.55-4.39a420.675 420.675 0 0 1-21.592-4.098c-7.001-1.561-13.421-3.805-19.257-6.733-5.835-3.122-10.6-7.317-14.297-12.586-3.5-5.269-5.25-12.294-5.25-21.075 0-8.391 2.333-15.904 7.001-22.539 4.669-6.634 11.476-11.806 20.424-15.513 9.143-3.903 20.231-5.855 33.263-5.855 9.921 0 19.841 1.367 29.761 4.098 9.922 2.537 18.09 5.952 24.509 10.245l-9.044 16.685c-6.809-4.684-14.104-8.001-21.883-9.952-7.782-2.147-15.562-3.22-23.343-3.22-13.811 0-24.022 2.439-30.636 7.318-6.42 4.683-9.628 10.732-9.628 18.148 0 5.854 1.751 10.439 5.25 13.757 3.697 3.317 8.463 5.952 14.298 7.903 6.031 1.756 12.547 3.22 19.55 4.391a257.73 257.73 0 0 1 21.299 4.39c7.196 1.561 13.712 3.805 19.55 6.733 6.028 2.732 10.794 6.732 14.295 12.001 3.697 5.073 5.544 11.806 5.544 20.197 0 8.976-2.527 16.782-7.586 23.416-4.863 6.44-12.06 11.514-21.59 15.221-9.337 3.513-20.718 5.27-34.139 5.27ZM2672.494 530.382l.583-26.636 95.41-87.228h25.385l-67.399 64.689-11.673 9.952-42.306 39.223Zm-16.34 39.809V353h20.716v217.191h-20.716Zm118.753 0-63.9-79.91 13.423-16.099 75.86 96.009h-25.383ZM2871.318 571.655c-14.393 0-25.481-3.904-33.263-11.708-7.779-7.807-11.67-18.832-11.67-33.077V382.564h20.716v143.135c0 8.976 2.236 15.904 6.711 20.782 4.668 4.879 11.282 7.318 19.84 7.318 9.143 0 16.729-2.635 22.758-7.903l7.294 14.928c-4.084 3.707-9.045 6.439-14.88 8.195-5.64 1.756-11.475 2.636-17.506 2.636Zm-72.361-137.867v-17.27h94.828v17.27h-94.828ZM2987.803 571.655c-14.777 0-28.1-3.319-39.966-9.954-11.671-6.829-20.912-16.098-27.719-27.807-6.808-11.903-10.212-25.465-10.212-40.686 0-15.416 3.404-28.979 10.212-40.687 6.807-11.708 16.048-20.88 27.719-27.515 11.67-6.634 24.995-9.952 39.966-9.952 15.184 0 28.595 3.318 40.274 9.952 11.862 6.635 21.095 15.807 27.719 27.515 6.807 11.708 10.211 25.271 10.211 40.687 0 15.221-3.404 28.783-10.211 40.686-6.624 11.709-15.857 20.978-27.719 27.807-11.862 6.635-25.294 9.954-40.274 9.954Zm0-18.442c11.087 0 20.911-2.439 29.471-7.317 8.561-5.074 15.266-12.099 20.137-21.076 5.055-9.171 7.582-19.709 7.582-31.612 0-12.099-2.527-22.637-7.582-31.613-4.871-8.976-11.576-15.904-20.137-20.782-8.56-5.074-18.282-7.611-29.166-7.611-10.9 0-20.626 2.537-29.184 7.611-8.558 4.878-15.368 11.806-20.424 20.782-5.057 8.976-7.586 19.514-7.586 31.613 0 11.903 2.529 22.441 7.586 31.612 5.056 8.977 11.866 16.002 20.424 21.076 8.558 4.878 18.187 7.317 28.879 7.317ZM3166.1 571.655c-13.227 0-25.191-3.027-35.891-9.075-10.701-6.245-19.261-15.123-25.661-26.637-6.237-11.708-9.355-25.953-9.355-42.735s3.118-30.93 9.355-42.443c6.217-11.709 14.675-20.587 25.375-26.637 10.701-6.049 22.766-9.074 36.177-9.074 14.594 0 27.617 3.318 39.092 9.952 11.679 6.44 20.83 15.611 27.434 27.515 6.624 11.708 9.926 25.271 9.926 40.687 0 15.611-3.302 29.271-9.926 40.979-6.604 11.709-15.755 20.88-27.434 27.514-11.475 6.635-24.498 9.954-39.092 9.954Zm-79.06 55.32V416.518h19.832v46.248l-2.038 30.734 2.914 31.028v102.447h-20.708Zm77.613-73.762c10.884 0 20.606-2.439 29.166-7.317 8.561-5.074 15.368-12.099 20.423-21.076 5.054-9.171 7.582-19.709 7.582-31.612 0-11.904-2.528-22.344-7.582-31.32-5.055-8.977-11.862-16.002-20.423-21.075-8.56-5.074-18.282-7.611-29.166-7.611-10.904 0-20.728 2.537-29.471 7.611-8.561 5.073-15.368 12.098-20.423 21.075-4.871 8.976-7.296 19.416-7.296 31.32 0 11.903 2.425 22.441 7.296 31.612 5.055 8.977 11.862 16.002 20.423 21.076 8.743 4.878 18.567 7.317 29.471 7.317Z" class="fills"/></g></g></g></g><g class="frame-container-wrapper"><g class="frame-container-blur"><g class="frame-container-shadows"><g class="fills"><rect width="646" height="642" x="167" y="169" class="frame-background" rx="0" ry="0"/></g><g fill="#000" class="frame-children" filter="url(#b)"><defs><filter id="b" width="2.254" height="2.411" x="-.618" y="-.621" color-interpolation-filters="sRGB" filterUnits="objectBoundingBox"><feFlood flood-opacity="0" result="BackgroundImageFix"/><feColorMatrix in="SourceAlpha" values="0 0 0 0 0 0 0 0 0 0 0 0 0 0 0 0 0 0 127 0"/><feOffset dy="4"/><feGaussianBlur stdDeviation="4"/><feColorMatrix values="0 0 0 0 0 0 0 0 0 0 0 0 0 0 0 0 0 0 0.15 0"/><feBlend in2="BackgroundImageFix" result="filter_ad80c76d-57d2-8074-8006-30370899bf69"/><feColorMatrix in="SourceAlpha" values="0 0 0 0 0 0 0 0 0 0 0 0 0 0 0 0 0 0 127 0"/><feOffset dy="8"/><feGaussianBlur stdDeviation="16"/><feColorMatrix values="0 0 0 0 0 0 0 0 0 0 0 0 0 0 0 0 0 0 0.15 0"/><feBlend in2="filter_ad80c76d-57d2-8074-8006-30370899bf69" result="filter_ad80c76d-57d2-8074-8006-3037225e2e54"/><feColorMatrix in="SourceAlpha" values="0 0 0 0 0 0 0 0 0 0 0 0 0 0 0 0 0 0 127 0"/><feOffset dx="4" dy="36"/><feGaussianBlur stdDeviation="64"/><feColorMatrix values="0 0 0 0 0 0 0 0 0 0 0 0 0 0 0 0 0 0 0.15 0"/><feBlend in2="filter_ad80c76d-57d2-8074-8006-3037225e2e54" result="filter_ad80c76d-57d2-8074-8006-303790bc7d40"/><feColorMatrix in="SourceAlpha" values="0 0 0 0 0 0 0 0 0 0 0 0 0 0 0 0 0 0 127 0"/><feOffset dy="1"/><feGaussianBlur stdDeviation="1"/><feColorMatrix values="0 0 0 0 0 0 0 0 0 0 0 0 0 0 0 0 0 0 0.2 0"/><feBlend in2="filter_ad80c76d-57d2-8074-8006-303790bc7d40" result="filter_ad80c76d-57d2-8074-8006-3037dee2afcf"/><feBlend in="SourceGraphic" in2="filter_ad80c76d-57d2-8074-8006-3037dee2afcf" result="shape"/></filter></defs><defs><linearGradient id="c" x1="322.997" x2="322.997" y1="18" y2="624.161" gradientTransform="translate(167 169)" gradientUnits="userSpaceOnUse"><stop stop-color="#2e114a"/><stop offset=".943" stop-color="#07051b"/></linearGradient></defs><path fill="url(#c)" d="M478.551 192.724c4.198-2.099 6.297-3.148 8.499-3.561 1.95-.366 3.95-.366 5.9 0 2.202.413 4.301 1.462 8.499 3.561l277.4 138.7c5.137 2.569 7.705 3.853 9.582 5.769a16.011 16.011 0 0 1 3.695 5.978c.874 2.536.874 5.407.874 11.151v271.356c0 5.744 0 8.615-.874 11.151a16.011 16.011 0 0 1-3.695 5.978c-1.877 1.916-4.445 3.2-9.582 5.769l-277.4 138.7c-4.198 2.099-6.297 3.148-8.499 3.561-1.95.366-3.95.366-5.9 0-2.202-.413-4.301-1.462-8.499-3.561l-277.4-138.7c-5.137-2.569-7.705-3.853-9.582-5.769a16.011 16.011 0 0 1-3.695-5.978c-.874-2.536-.874-5.407-.874-11.151V354.322c0-5.744 0-8.615.874-11.151a16.011 16.011 0 0 1 3.695-5.978c1.877-1.916 4.445-3.2 9.582-5.769l277.4-138.7Z" class="fills"/><g filter="url(#d)"><defs><filter id="d" width="574" height="570" x="203" y="205" class="svg-def" color-interpolation-filters="sRGB" data-old-height="570" data-old-width="574" data-old-x="203" data-old-y="205" filterUnits="userSpaceOnUse"><feFlood flood-opacity="0" result="BackgroundImageFix"/><feBlend in="SourceGraphic" in2="BackgroundImageFix" result="shape"/><feColorMatrix in="SourceAlpha" result="hardAlpha" values="0 0 0 0 0 0 0 0 0 0 0 0 0 0 0 0 0 0 127 0"/><feOffset/><feGaussianBlur stdDeviation="8"/><feComposite in2="hardAlpha" k2="-1" k3="1" operator="arithmetic"/><feColorMatrix values="0 0 0 0 0 0 0 0 0 0 0 0 0 0 0 0 0 0 1 0"/><feBlend in2="shape" result="effect1_innerShadow_1_83"/></filter></defs><defs><linearGradient id="e" x1="95.196" x2="95.196" y1="607.342" y2="34.662" gradientTransform="translate(167 169)" gradientUnits="userSpaceOnUse"><stop stop-opacity=".73"/><stop offset="1" stop-color="#f1f1f1" stop-opacity=".94"/></linearGradient></defs><path fill="url(#e)" fill-opacity=".2" d="m490 205 287 142.5v285L490 775 203 632.5v-285L490 205Z" class="fills"/></g><defs><linearGradient id="f" x1="82.496" x2="82.496" y1="625.426" y2="16.578" gradientTransform="translate(167 169)" gradientUnits="userSpaceOnUse"><stop stop-opacity=".73"/><stop offset="1" stop-color="#f1f1f1" stop-opacity=".94"/></linearGradient></defs><path fill="url(#f)" fill-opacity=".2" d="m490 187 303 151.5v303L490 793 187 641.5v-303L490 187Z" class="fills"/><defs><linearGradient id="g" x1="325.549" x2="325.549" y1="23.434" y2="371.213" gradientTransform="translate(167 169)" gradientUnits="userSpaceOnUse"><stop stop-color="#621ea6" stop-opacity=".89"/><stop offset=".572" stop-color="#CCCAD1" stop-opacity="0"/></linearGradient></defs><path fill="url(#g)" fill-opacity=".3" d="m490 187 303 151.5v303L490 793 187 641.5v-303L490 187Z" class="fills"/><defs><linearGradient id="h" x1="-16.928" x2="628.621" y1="59.388" y2="622.425" gradientTransform="translate(167 169)" gradientUnits="userSpaceOnUse"><stop stop-color="#6ad2fa"/><stop offset=".495" stop-color="#7669fa"/><stop offset=".745" stop-color="#8850e4"/><stop offset="1" stop-color="#ce0ebb"/></linearGradient></defs><path fill="url(#h)" d="M483.27 172.484a16.002 16.002 0 0 1 13.885.205l303 151.5A16.001 16.001 0 0 1 809 338.5v303c0 6.06-3.424 11.6-8.845 14.311l-303 151.5a16 16 0 0 1-14.31 0l-303-151.5A16.001 16.001 0 0 1 171 641.5v-303c0-6.06 3.424-11.6 8.845-14.311l303-151.5.425-.205ZM203 348.388v283.223l287 143.5 287-143.5V348.388l-287-143.5-287 143.5Z" class="fills"/><g filter="url(#i)"><defs><filter id="i" width="438" height="222" x="271" y="383" class="svg-def" color-interpolation-filters="sRGB" data-old-height="222" data-old-width="438" data-old-x="271" data-old-y="383" filterUnits="userSpaceOnUse"><feFlood flood-opacity="0" result="BackgroundImageFix"/><feColorMatrix in="SourceAlpha" result="hardAlpha" values="0 0 0 0 0 0 0 0 0 0 0 0 0 0 0 0 0 0 127 0"/><feOffset dy="4"/><feGaussianBlur stdDeviation="2"/><feComposite in2="hardAlpha" operator="out"/><feColorMatrix values="0 0 0 0 0 0 0 0 0 0 0 0 0 0 0 0 0 0 0.25 0"/><feBlend in2="BackgroundImageFix" result="effect1_dropShadow_1_83"/><feBlend in="SourceGraphic" in2="effect1_dropShadow_1_83" result="shape"/></filter></defs><defs><linearGradient id="j" x1="323" x2="323" y1="214" y2="428" gradientTransform="translate(167 169)" gradientUnits="userSpaceOnUse"><stop stop-color="#e9e9e9"/><stop offset="1" stop-color="#a59ade"/></linearGradient></defs><path fill="url(#j)" d="M681 383c8.401 0 12.601 0 15.81 1.635a15.002 15.002 0 0 1 6.555 6.555C705 394.399 705 398.599 705 407v154H275V407c0-8.401 0-12.601 1.635-15.81a15.002 15.002 0 0 1 6.555-6.555C286.399 383 290.599 383 299 383h382Zm-362 36c-2.8 0-4.2 0-5.27.545a5.004 5.004 0 0 0-2.185 2.185C311 422.8 311 424.2 311 427v90c0 2.8 0 4.2.545 5.27a5.004 5.004 0 0 0 2.185 2.185c1.07.545 2.47.545 5.27.545h20c2.8 0 4.2 0 5.27-.545a5.004 5.004 0 0 0 2.185-2.185c.545-1.07.545-2.47.545-5.27v-90c0-2.8 0-4.2-.545-5.27a5.004 5.004 0 0 0-2.185-2.185C343.2 419 341.8 419 339 419h-20Zm72 0c-2.8 0-4.2 0-5.27.545a5.004 5.004 0 0 0-2.185 2.185C383 422.8 383 424.2 383 427v90c0 2.8 0 4.2.545 5.27a5.004 5.004 0 0 0 2.185 2.185c1.07.545 2.47.545 5.27.545h20c2.8 0 4.2 0 5.27-.545a5.004 5.004 0 0 0 2.185-2.185c.545-1.07.545-2.47.545-5.27v-90c0-2.8 0-4.2-.545-5.27a5.004 5.004 0 0 0-2.185-2.185C415.2 419 413.8 419 411 419h-20Zm72 0c-2.8 0-4.2 0-5.27.545a5.004 5.004 0 0 0-2.185 2.185C455 422.8 455 424.2 455 427v90c0 2.8 0 4.2.545 5.27a5.004 5.004 0 0 0 2.185 2.185c1.07.545 2.47.545 5.27.545h20c2.8 0 4.2 0 5.27-.545a5.004 5.004 0 0 0 2.185-2.185c.545-1.07.545-2.47.545-5.27v-90c0-2.8 0-4.2-.545-5.27a5.004 5.004 0 0 0-2.185-2.185C487.2 419 485.8 419 483 419h-20Zm72 0c-2.8 0-4.2 0-5.27.545a5.004 5.004 0 0 0-2.185 2.185C527 422.8 527 424.2 527 427v90c0 2.8 0 4.2.545 5.27a5.004 5.004 0 0 0 2.185 2.185c1.07.545 2.47.545 5.27.545h20c2.8 0 4.2 0 5.27-.545a5.004 5.004 0 0 0 2.185-2.185c.545-1.07.545-2.47.545-5.27v-90c0-2.8 0-4.2-.545-5.27a5.004 5.004 0 0 0-2.185-2.185C559.2 419 557.8 419 555 419h-20Z" class="fills"/><path fill="#472ea8" d="M275 561h430v12c0 8.401 0 12.601-1.635 15.81a15.002 15.002 0 0 1-6.555 6.555C693.601 597 689.401 597 681 597H299c-8.401 0-12.601 0-15.81-1.635a15.002 15.002 0 0 1-6.555-6.555C275 585.601 275 581.401 275 573v-12Z" class="fills"/></g></g></g></g></g></g></g></g></g></svg>