<svg xmlns="http://www.w3.org/2000/svg" width="980" height="980" fill="none" viewBox="0 0 980 980"><defs><clipPath id="a" class="frame-clip frame-clip-def"><rect width="980" height="980" rx="0" ry="0"/></clipPath></defs><g class="frame-container-wrapper"><g class="frame-container-blur"><g class="frame-container-shadows" clip-path="url(#a)"><g class="fills"><rect width="980" height="980" fill="#000" class="frame-background" rx="0" ry="0"/></g><g class="frame-children"><g class="frame-container-wrapper"><g class="frame-container-blur"><g class="frame-container-shadows"><g class="fills"><rect width="646" height="642" x="167" y="169" class="frame-background" rx="0" ry="0"/></g><g fill="#000" class="frame-children" filter="url(#b)"><defs><filter id="b" width="2.254" height="2.411" x="-.618" y="-.621" color-interpolation-filters="sRGB" filterUnits="objectBoundingBox"><feFlood flood-opacity="0" result="BackgroundImageFix"/><feColorMatrix in="SourceAlpha" values="0 0 0 0 0 0 0 0 0 0 0 0 0 0 0 0 0 0 127 0"/><feOffset dy="4"/><feGaussianBlur stdDeviation="4"/><feColorMatrix values="0 0 0 0 0 0 0 0 0 0 0 0 0 0 0 0 0 0 0.15 0"/><feBlend in2="BackgroundImageFix" result="filter_ad80c76d-57d2-8074-8006-30370899bf69"/><feColorMatrix in="SourceAlpha" values="0 0 0 0 0 0 0 0 0 0 0 0 0 0 0 0 0 0 127 0"/><feOffset dy="8"/><feGaussianBlur stdDeviation="16"/><feColorMatrix values="0 0 0 0 0 0 0 0 0 0 0 0 0 0 0 0 0 0 0.15 0"/><feBlend in2="filter_ad80c76d-57d2-8074-8006-30370899bf69" result="filter_ad80c76d-57d2-8074-8006-3037225e2e54"/><feColorMatrix in="SourceAlpha" values="0 0 0 0 0 0 0 0 0 0 0 0 0 0 0 0 0 0 127 0"/><feOffset dx="4" dy="36"/><feGaussianBlur stdDeviation="64"/><feColorMatrix values="0 0 0 0 0 0 0 0 0 0 0 0 0 0 0 0 0 0 0.15 0"/><feBlend in2="filter_ad80c76d-57d2-8074-8006-3037225e2e54" result="filter_ad80c76d-57d2-8074-8006-303790bc7d40"/><feColorMatrix in="SourceAlpha" values="0 0 0 0 0 0 0 0 0 0 0 0 0 0 0 0 0 0 127 0"/><feOffset dy="1"/><feGaussianBlur stdDeviation="1"/><feColorMatrix values="0 0 0 0 0 0 0 0 0 0 0 0 0 0 0 0 0 0 0.2 0"/><feBlend in2="filter_ad80c76d-57d2-8074-8006-303790bc7d40" result="filter_ad80c76d-57d2-8074-8006-3037dee2afcf"/><feBlend in="SourceGraphic" in2="filter_ad80c76d-57d2-8074-8006-3037dee2afcf" result="shape"/></filter></defs><defs><linearGradient id="c" x1="322.997" x2="322.997" y1="18" y2="624.161" gradientTransform="translate(167 169)" gradientUnits="userSpaceOnUse"><stop stop-color="#2e114a"/><stop offset=".943" stop-color="#07051b"/></linearGradient></defs><path fill="url(#c)" d="M478.551 192.724c4.198-2.099 6.297-3.148 8.499-3.561 1.95-.366 3.95-.366 5.9 0 2.202.413 4.301 1.462 8.499 3.561l277.4 138.7c5.137 2.569 7.705 3.853 9.582 5.769a16.011 16.011 0 0 1 3.695 5.978c.874 2.536.874 5.407.874 11.151v271.356c0 5.744 0 8.615-.874 11.151a16.011 16.011 0 0 1-3.695 5.978c-1.877 1.916-4.445 3.2-9.582 5.769l-277.4 138.7c-4.198 2.099-6.297 3.148-8.499 3.561-1.95.366-3.95.366-5.9 0-2.202-.413-4.301-1.462-8.499-3.561l-277.4-138.7c-5.137-2.569-7.705-3.853-9.582-5.769a16.011 16.011 0 0 1-3.695-5.978c-.874-2.536-.874-5.407-.874-11.151V354.322c0-5.744 0-8.615.874-11.151a16.011 16.011 0 0 1 3.695-5.978c1.877-1.916 4.445-3.2 9.582-5.769l277.4-138.7Z" class="fills"/><g filter="url(#d)"><defs><filter id="d" width="574" height="570" x="203" y="205" class="svg-def" color-interpolation-filters="sRGB" data-old-height="570" data-old-width="574" data-old-x="203" data-old-y="205" filterUnits="userSpaceOnUse"><feFlood flood-opacity="0" result="BackgroundImageFix"/><feBlend in="SourceGraphic" in2="BackgroundImageFix" result="shape"/><feColorMatrix in="SourceAlpha" result="hardAlpha" values="0 0 0 0 0 0 0 0 0 0 0 0 0 0 0 0 0 0 127 0"/><feOffset/><feGaussianBlur stdDeviation="8"/><feComposite in2="hardAlpha" k2="-1" k3="1" operator="arithmetic"/><feColorMatrix values="0 0 0 0 0 0 0 0 0 0 0 0 0 0 0 0 0 0 1 0"/><feBlend in2="shape" result="effect1_innerShadow_1_83"/></filter></defs><defs><linearGradient id="e" x1="95.196" x2="95.196" y1="607.342" y2="34.662" gradientTransform="translate(167 169)" gradientUnits="userSpaceOnUse"><stop stop-opacity=".73"/><stop offset="1" stop-color="#f1f1f1" stop-opacity=".94"/></linearGradient></defs><path fill="url(#e)" fill-opacity=".2" d="m490 205 287 142.5v285L490 775 203 632.5v-285L490 205Z" class="fills"/></g><defs><linearGradient id="f" x1="82.496" x2="82.496" y1="625.426" y2="16.578" gradientTransform="translate(167 169)" gradientUnits="userSpaceOnUse"><stop stop-opacity=".73"/><stop offset="1" stop-color="#f1f1f1" stop-opacity=".94"/></linearGradient></defs><path fill="url(#f)" fill-opacity=".2" d="m490 187 303 151.5v303L490 793 187 641.5v-303L490 187Z" class="fills"/><defs><linearGradient id="g" x1="325.549" x2="325.549" y1="23.434" y2="371.213" gradientTransform="translate(167 169)" gradientUnits="userSpaceOnUse"><stop stop-color="#621ea6" stop-opacity=".89"/><stop offset=".572" stop-color="#CCCAD1" stop-opacity="0"/></linearGradient></defs><path fill="url(#g)" fill-opacity=".3" d="m490 187 303 151.5v303L490 793 187 641.5v-303L490 187Z" class="fills"/><defs><linearGradient id="h" x1="-16.928" x2="628.621" y1="59.388" y2="622.425" gradientTransform="translate(167 169)" gradientUnits="userSpaceOnUse"><stop stop-color="#6ad2fa"/><stop offset=".495" stop-color="#7669fa"/><stop offset=".745" stop-color="#8850e4"/><stop offset="1" stop-color="#ce0ebb"/></linearGradient></defs><path fill="url(#h)" d="M483.27 172.484a16.002 16.002 0 0 1 13.885.205l303 151.5A16.001 16.001 0 0 1 809 338.5v303c0 6.06-3.424 11.6-8.845 14.311l-303 151.5a16 16 0 0 1-14.31 0l-303-151.5A16.001 16.001 0 0 1 171 641.5v-303c0-6.06 3.424-11.6 8.845-14.311l303-151.5.425-.205ZM203 348.388v283.223l287 143.5 287-143.5V348.388l-287-143.5-287 143.5Z" class="fills"/><g filter="url(#i)"><defs><filter id="i" width="438" height="222" x="271" y="383" class="svg-def" color-interpolation-filters="sRGB" data-old-height="222" data-old-width="438" data-old-x="271" data-old-y="383" filterUnits="userSpaceOnUse"><feFlood flood-opacity="0" result="BackgroundImageFix"/><feColorMatrix in="SourceAlpha" result="hardAlpha" values="0 0 0 0 0 0 0 0 0 0 0 0 0 0 0 0 0 0 127 0"/><feOffset dy="4"/><feGaussianBlur stdDeviation="2"/><feComposite in2="hardAlpha" operator="out"/><feColorMatrix values="0 0 0 0 0 0 0 0 0 0 0 0 0 0 0 0 0 0 0.25 0"/><feBlend in2="BackgroundImageFix" result="effect1_dropShadow_1_83"/><feBlend in="SourceGraphic" in2="effect1_dropShadow_1_83" result="shape"/></filter></defs><defs><linearGradient id="j" x1="323" x2="323" y1="214" y2="428" gradientTransform="translate(167 169)" gradientUnits="userSpaceOnUse"><stop stop-color="#e9e9e9"/><stop offset="1" stop-color="#a59ade"/></linearGradient></defs><path fill="url(#j)" d="M681 383c8.401 0 12.601 0 15.81 1.635a15.002 15.002 0 0 1 6.555 6.555C705 394.399 705 398.599 705 407v154H275V407c0-8.401 0-12.601 1.635-15.81a15.002 15.002 0 0 1 6.555-6.555C286.399 383 290.599 383 299 383h382Zm-362 36c-2.8 0-4.2 0-5.27.545a5.004 5.004 0 0 0-2.185 2.185C311 422.8 311 424.2 311 427v90c0 2.8 0 4.2.545 5.27a5.004 5.004 0 0 0 2.185 2.185c1.07.545 2.47.545 5.27.545h20c2.8 0 4.2 0 5.27-.545a5.004 5.004 0 0 0 2.185-2.185c.545-1.07.545-2.47.545-5.27v-90c0-2.8 0-4.2-.545-5.27a5.004 5.004 0 0 0-2.185-2.185C343.2 419 341.8 419 339 419h-20Zm72 0c-2.8 0-4.2 0-5.27.545a5.004 5.004 0 0 0-2.185 2.185C383 422.8 383 424.2 383 427v90c0 2.8 0 4.2.545 5.27a5.004 5.004 0 0 0 2.185 2.185c1.07.545 2.47.545 5.27.545h20c2.8 0 4.2 0 5.27-.545a5.004 5.004 0 0 0 2.185-2.185c.545-1.07.545-2.47.545-5.27v-90c0-2.8 0-4.2-.545-5.27a5.004 5.004 0 0 0-2.185-2.185C415.2 419 413.8 419 411 419h-20Zm72 0c-2.8 0-4.2 0-5.27.545a5.004 5.004 0 0 0-2.185 2.185C455 422.8 455 424.2 455 427v90c0 2.8 0 4.2.545 5.27a5.004 5.004 0 0 0 2.185 2.185c1.07.545 2.47.545 5.27.545h20c2.8 0 4.2 0 5.27-.545a5.004 5.004 0 0 0 2.185-2.185c.545-1.07.545-2.47.545-5.27v-90c0-2.8 0-4.2-.545-5.27a5.004 5.004 0 0 0-2.185-2.185C487.2 419 485.8 419 483 419h-20Zm72 0c-2.8 0-4.2 0-5.27.545a5.004 5.004 0 0 0-2.185 2.185C527 422.8 527 424.2 527 427v90c0 2.8 0 4.2.545 5.27a5.004 5.004 0 0 0 2.185 2.185c1.07.545 2.47.545 5.27.545h20c2.8 0 4.2 0 5.27-.545a5.004 5.004 0 0 0 2.185-2.185c.545-1.07.545-2.47.545-5.27v-90c0-2.8 0-4.2-.545-5.27a5.004 5.004 0 0 0-2.185-2.185C559.2 419 557.8 419 555 419h-20Z" class="fills"/><path fill="#472ea8" d="M275 561h430v12c0 8.401 0 12.601-1.635 15.81a15.002 15.002 0 0 1-6.555 6.555C693.601 597 689.401 597 681 597H299c-8.401 0-12.601 0-15.81-1.635a15.002 15.002 0 0 1-6.555-6.555C275 585.601 275 581.401 275 573v-12Z" class="fills"/></g></g></g></g></g></g></g></g></g></svg>