<?xml version="1.0" encoding="UTF-8" standalone="no"?>
<!-- Created with Inkscape (http://www.inkscape.org/) -->

<svg
   width="32"
   height="32"
   viewBox="0 0 8.4666665 8.4666666"
   version="1.1"
   id="svg1"
   inkscape:version="1.4 (e7c3feb1, 2024-10-09)"
   sodipodi:docname="accountIcon-redo.svg"
   xml:space="preserve"
   xmlns:inkscape="http://www.inkscape.org/namespaces/inkscape"
   xmlns:sodipodi="http://sodipodi.sourceforge.net/DTD/sodipodi-0.dtd"
   xmlns="http://www.w3.org/2000/svg"
   xmlns:svg="http://www.w3.org/2000/svg"><sodipodi:namedview
     id="namedview1"
     pagecolor="#ffffff"
     bordercolor="#000000"
     borderopacity="0.25"
     inkscape:showpageshadow="2"
     inkscape:pageopacity="0.0"
     inkscape:pagecheckerboard="false"
     inkscape:deskcolor="#d1d1d1"
     inkscape:document-units="mm"
     showgrid="true"
     inkscape:zoom="5.1668776"
     inkscape:cx="-1.2580132"
     inkscape:cy="2.2257156"
     inkscape:window-width="1496"
     inkscape:window-height="840"
     inkscape:window-x="0"
     inkscape:window-y="34"
     inkscape:window-maximized="1"
     inkscape:current-layer="layer1"
     showguides="true"><inkscape:grid
       id="grid1"
       units="px"
       originx="0"
       originy="0"
       spacingx="0.26458333"
       spacingy="0.26458333"
       empcolor="#0099e5"
       empopacity="0.30196078"
       color="#0099e5"
       opacity="0.14901961"
       empspacing="5"
       dotted="false"
       gridanglex="30"
       gridanglez="30"
       visible="true" /><sodipodi:guide
       position="11.377083,7.4083333"
       orientation="0,-1"
       id="guide1"
       inkscape:locked="false" /><sodipodi:guide
       position="9.7895829,1.0583336"
       orientation="0,-1"
       id="guide2"
       inkscape:locked="false" /><sodipodi:guide
       position="1.0583333,3.4395835"
       orientation="1,0"
       id="guide3"
       inkscape:locked="false" /><sodipodi:guide
       position="7.408333,-0.26458294"
       orientation="1,0"
       id="guide4"
       inkscape:locked="false" /></sodipodi:namedview><defs
     id="defs1" /><g
     inkscape:label="Layer 1"
     inkscape:groupmode="layer"
     id="layer1"><circle
       style="fill:none;stroke:#152139;stroke-width:0.0225979;stroke-linecap:square;stroke-dasharray:none;paint-order:markers stroke fill"
       id="path4"
       cx="4.2333331"
       cy="4.2333331"
       r="3.1637011"
       sodipodi:insensitive="true" /><path
       style="fill:none;stroke:currentColor;stroke-width:0.529148;stroke-linecap:square;stroke-linejoin:round;stroke-dasharray:none"
       d="m 4.233243,1.322857 c -1.6073572,9.3e-6 -2.9103773,1.3030286 -2.910386,2.9103884 0.00272,0.8998736 0.4216013,1.7478661 1.1345672,2.2969407 0.019623,-0.7385361 0.649471,-1.438616 1.7758024,-1.438616 1.126289,0 1.7556936,0.7001223 1.7757927,1.438616 C 6.721986,5.9811146 7.1408301,5.1331192 7.1435863,4.2332454 7.1435781,2.6258856 5.8405574,1.3228663 4.2332009,1.322857 Z M 6.0090193,6.5301861 C 5.9893939,5.79165 5.3595485,5.0915701 4.2332181,5.0915701 c -1.1262898,0 -1.7556952,0.7001223 -1.7757939,1.438616 0.507799,0.3951958 1.1323144,0.6109538 1.7757939,0.6135228 C 4.8767136,7.141139 5.5011862,6.9253902 6.0090193,6.5301861 Z M 5.191387,3.3284438 C 5.1913837,3.8576173 4.7624078,4.2865981 4.2332343,4.2866073 3.7040511,4.2866117 3.2750602,3.857627 3.2750569,3.3284438 c -8e-7,-0.529186 0.4289913,-0.9581753 0.9581774,-0.9581709 0.5291764,9.2e-6 0.9581535,0.4289945 0.9581527,0.9581709 z"
       id="path1"
       sodipodi:nodetypes="cccscccccscccccccc" /></g></svg>
