<?xml version="1.0" encoding="UTF-8" standalone="no"?>
<!-- Created with Inkscape (http://www.inkscape.org/) -->

<svg
   width="32"
   height="32"
   viewBox="0 0 8.4666665 8.4666666"
   version="1.1"
   id="svg1"
   inkscape:version="1.4 (e7c3feb1, 2024-10-09)"
   sodipodi:docname="xxx.svg"
   xml:space="preserve"
   xmlns:inkscape="http://www.inkscape.org/namespaces/inkscape"
   xmlns:sodipodi="http://sodipodi.sourceforge.net/DTD/sodipodi-0.dtd"
   xmlns="http://www.w3.org/2000/svg"
   xmlns:svg="http://www.w3.org/2000/svg"><sodipodi:namedview
     id="namedview1"
     pagecolor="#ffffff"
     bordercolor="#000000"
     borderopacity="0.25"
     inkscape:showpageshadow="2"
     inkscape:pageopacity="0.0"
     inkscape:pagecheckerboard="false"
     inkscape:deskcolor="#d1d1d1"
     inkscape:document-units="mm"
     showgrid="true"
     inkscape:zoom="15.020665"
     inkscape:cx="13.548002"
     inkscape:cy="14.113889"
     inkscape:window-width="1496"
     inkscape:window-height="839"
     inkscape:window-x="0"
     inkscape:window-y="34"
     inkscape:window-maximized="1"
     inkscape:current-layer="layer1"
     showguides="true"><inkscape:grid
       id="grid1"
       units="px"
       originx="0"
       originy="0"
       spacingx="0.26458333"
       spacingy="0.26458333"
       empcolor="#0099e5"
       empopacity="0.30196078"
       color="#0099e5"
       opacity="0.14901961"
       empspacing="5"
       dotted="false"
       gridanglex="30"
       gridanglez="30"
       visible="true" /><sodipodi:guide
       position="8.9958329,7.9374999"
       orientation="0,-1"
       id="guide1"
       inkscape:locked="false" /><sodipodi:guide
       position="9.5249996,0.52916701"
       orientation="0,-1"
       id="guide2"
       inkscape:locked="false" /><sodipodi:guide
       position="1.5874999,5.2916667"
       orientation="1,0"
       id="guide3"
       inkscape:locked="false" /><sodipodi:guide
       position="6.8791663,5.0270834"
       orientation="1,0"
       id="guide4"
       inkscape:locked="false" /></sodipodi:namedview><defs
     id="defs1" /><g
     inkscape:label="Layer 1"
     inkscape:groupmode="layer"
     id="layer1"><path
       style="fill:none;stroke:#000000;stroke-width:0.460161;stroke-dasharray:none;stroke-opacity:1"
       d="M 4.7216751,6.9283633 C 4.8510951,6.7989433 4.923355,6.6231478 4.923355,6.4398025 H 4.2331144 3.5428738 c 0,0.1833453 0.072263,0.3591408 0.2016798,0.4885608 0.12942,0.12942 0.3052155,0.2016798 0.4885608,0.2016798 0.1833453,0 0.3591407,-0.072263 0.4885607,-0.2016798 z"
       id="path2" /><path
       style="fill:none;stroke:#000000;stroke-width:0.46016;stroke-dasharray:none;stroke-opacity:1"
       d="m 4.2331144,1.2884133 c -0.1908951,0 -0.3451203,0.1542251 -0.3451203,0.3451203 V 1.8406058 C 3.1006885,2.0002242 2.507513,2.6969354 2.507513,3.5316948 v 0.2027581 c 0,0.5068962 -0.1865811,0.9965352 -0.5230733,1.376168 l -0.079811,0.089515 C 1.814034,5.3015151 1.7924646,5.4471122 1.8474699,5.5711407 1.9024718,5.6951683 2.0265003,5.7749771 2.1623918,5.7749771 h 4.1414434 c 0.1358916,0 0.25884,-0.079811 0.3149219,-0.2038364 0.05608,-0.1240285 0.033436,-0.2696256 -0.057158,-0.3710047 L 6.4817873,5.1106209 C 6.1452951,4.7309881 5.958715,4.2424273 5.958715,3.7344529 V 3.5316948 c 0,-0.8347594 -0.5931756,-1.5314706 -1.3804812,-1.691089 V 1.6335336 c 0,-0.1908952 -0.154226,-0.3451203 -0.3451194,-0.3451203 z"
       id="path1" /></g></svg>
