<?xml version="1.0" encoding="UTF-8" standalone="no"?>
<!-- Created with Inkscape (http://www.inkscape.org/) -->

<svg
   width="32"
   height="32"
   viewBox="0 0 8.4666665 8.4666666"
   version="1.1"
   id="svg1"
   inkscape:version="1.4 (e7c3feb100, 2024-10-09)"
   sodipodi:docname="box-open-solid-redo.svg"
   xml:space="preserve"
   xmlns:inkscape="http://www.inkscape.org/namespaces/inkscape"
   xmlns:sodipodi="http://sodipodi.sourceforge.net/DTD/sodipodi-0.dtd"
   xmlns="http://www.w3.org/2000/svg"
   xmlns:svg="http://www.w3.org/2000/svg"><sodipodi:namedview
     id="namedview1"
     pagecolor="#ffffff"
     bordercolor="#000000"
     borderopacity="0.25"
     inkscape:showpageshadow="2"
     inkscape:pageopacity="0.0"
     inkscape:pagecheckerboard="false"
     inkscape:deskcolor="#d1d1d1"
     inkscape:document-units="mm"
     showgrid="true"
     inkscape:zoom="13.528733"
     inkscape:cx="17.998728"
     inkscape:cy="19.735772"
     inkscape:window-width="1202"
     inkscape:window-height="934"
     inkscape:window-x="26"
     inkscape:window-y="23"
     inkscape:window-maximized="0"
     inkscape:current-layer="g7"
     showguides="true"><inkscape:grid
       id="grid1"
       units="px"
       originx="0"
       originy="0"
       spacingx="0.26458333"
       spacingy="0.26458333"
       empcolor="#0099e5"
       empopacity="0.30196078"
       color="#0099e5"
       opacity="0.14901961"
       empspacing="5"
       dotted="false"
       gridanglex="30"
       gridanglez="30"
       visible="true" /><sodipodi:guide
       position="8.9958329,7.4083333"
       orientation="0,-1"
       id="guide1"
       inkscape:locked="false" /><sodipodi:guide
       position="4.7624998,1.0583336"
       orientation="0,-1"
       id="guide2"
       inkscape:locked="false" /><sodipodi:guide
       position="1.0583333,8.2020832"
       orientation="1,0"
       id="guide3"
       inkscape:locked="false" /><sodipodi:guide
       position="7.408333,6.6145833"
       orientation="1,0"
       id="guide4"
       inkscape:locked="false" /></sodipodi:namedview><defs
     id="defs1" /><g
     style="fill:none"
     id="g7"
     transform="matrix(0.52778155,0,0,0.52803625,0.02216406,2.1892315e-6)"
     inkscape:label="1"><path
       id="path1"
       style="fill:none;fill-opacity:1;stroke:#000000;stroke-width:1.00221;stroke-dasharray:none;stroke-opacity:1"
       d="M 3.2718916,3.6210495 C 3.3259644,3.5127651 3.4449235,3.4506335 3.5656845,3.4666103 L 7.9779956,4.0098096 12.390306,3.4666103 c 0.120761,-0.014203 0.239721,0.047932 0.293795,0.1544392 l 0.751604,1.4804824 c 0.162218,0.3177536 -0.01081,0.7029638 -0.356877,0.8005968 L 10.133682,6.7311278 C 9.8831482,6.8021312 9.6145882,6.6974033 9.4812102,6.4772804 L 7.990546,4.3806275 6.4747811,6.4772804 C 6.341402,6.6974006 6.0728429,6.8021348 5.8223069,6.7311278 L 2.878965,5.9021287 C 2.5310993,5.8044957 2.3598693,5.4192855 2.5220876,5.1015319 Z M 12.59316,6.0435949 v 4.7592821 c 0,0.390535 -0.270361,0.731366 -0.656078,0.827225 l -3.6787289,0.905331 c -0.1838459,0.04616 -0.3767026,0.04616 -0.5587486,0 L 4.0208779,11.630102 c -0.3857168,-0.09763 -0.6560781,-0.438465 -0.6560781,-0.829 V 6.0418195" /></g></svg>
