<?xml version="1.0" encoding="UTF-8" standalone="no"?>
<!-- Created with Inkscape (http://www.inkscape.org/) -->

<svg
   width="32"
   height="32"
   viewBox="0 0 8.4666665 8.4666666"
   version="1.1"
   id="svg1"
   inkscape:version="1.4 (e7c3feb1, 2024-10-09)"
   sodipodi:docname="comment-solid-redo.svg"
   xml:space="preserve"
   xmlns:inkscape="http://www.inkscape.org/namespaces/inkscape"
   xmlns:sodipodi="http://sodipodi.sourceforge.net/DTD/sodipodi-0.dtd"
   xmlns="http://www.w3.org/2000/svg"
   xmlns:svg="http://www.w3.org/2000/svg"><sodipodi:namedview
     id="namedview1"
     pagecolor="#ffffff"
     bordercolor="#000000"
     borderopacity="0.25"
     inkscape:showpageshadow="2"
     inkscape:pageopacity="0.0"
     inkscape:pagecheckerboard="false"
     inkscape:deskcolor="#d1d1d1"
     inkscape:document-units="mm"
     showgrid="true"
     inkscape:zoom="15.286852"
     inkscape:cx="10.139432"
     inkscape:cy="15.667058"
     inkscape:window-width="1496"
     inkscape:window-height="840"
     inkscape:window-x="0"
     inkscape:window-y="34"
     inkscape:window-maximized="1"
     inkscape:current-layer="g7"
     showguides="true"><inkscape:grid
       id="grid1"
       units="px"
       originx="0"
       originy="0"
       spacingx="0.26458333"
       spacingy="0.26458333"
       empcolor="#0099e5"
       empopacity="0.30196078"
       color="#0099e5"
       opacity="0.14901961"
       empspacing="5"
       dotted="false"
       gridanglex="30"
       gridanglez="30"
       visible="true" /><sodipodi:guide
       position="8.9958329,7.4083333"
       orientation="0,-1"
       id="guide1"
       inkscape:locked="false" /><sodipodi:guide
       position="4.7624998,1.0583336"
       orientation="0,-1"
       id="guide2"
       inkscape:locked="false" /><sodipodi:guide
       position="1.0638366,8.7015396"
       orientation="1,0"
       id="guide3"
       inkscape:locked="false" /><sodipodi:guide
       position="7.408333,6.6145833"
       orientation="1,0"
       id="guide4"
       inkscape:locked="false" /></sodipodi:namedview><defs
     id="defs1" /><g
     style="fill:none"
     id="g7"
     transform="matrix(0.52778155,0,0,0.52803625,0.02216406,2.1892315e-6)"
     inkscape:label="1"><path
       d="m -91.280814,-108.73228 c -17.696316,0 -32.083986,14.380718 -32.083986,32.068503 v 32.068505 c 0,17.687785 14.38767,32.068501 32.083986,32.068501 H 101.22307 c 17.69632,0 32.08398,-14.380716 32.08398,-32.068501 v -32.068505 c 0,-17.687785 -14.38766,-32.068503 -32.08398,-32.068503 z M 49.0866,-72.655214 a 12.031493,12.02569 0 1 1 0,24.051379 12.031493,12.02569 0 1 1 0,-24.051379 z m 24.06299,12.02569 a 12.031495,12.025692 0 1 1 24.06299,0 12.031495,12.025692 0 1 1 -24.06299,0 z M -91.280814,19.541739 c -17.696316,0 -32.083986,14.38072 -32.083986,32.06851 v 32.0685 c 0,17.687791 14.38767,32.068511 32.083986,32.068511 H 101.22307 c 17.69632,0 32.08398,-14.38072 32.08398,-32.068511 v -32.0685 c 0,-17.68779 -14.38766,-32.06851 -32.08398,-32.06851 z M 49.0866,55.618809 a 12.031493,12.02569 0 1 1 0,24.05138 12.031493,12.02569 0 1 1 0,-24.05138 z m 28.07349,12.02569 a 12.031493,12.02569 0 1 1 24.06298,0 12.031493,12.02569 0 1 1 -24.06298,0 z"
       id="path1-9"
       style="stroke-width:0.501191" /><path
       d="m 13.479646,7.6592019 c 0,2.5701821 -2.46538,4.6527221 -5.5073032,4.6527221 -0.7981327,0 -1.5553806,-0.143161 -2.2394903,-0.400401 -0.2560059,0.194605 -0.6733589,0.460797 -1.1681523,0.684484 -0.5163137,0.232637 -1.1380365,0.43172 -1.7554572,0.43172 -0.139827,0 -0.2646104,-0.08725 -0.3183835,-0.221452 -0.053754,-0.134216 -0.023667,-0.286322 0.073111,-0.389218 v 0 0 0 0 l 0.00641,-0.0067 c 0.00641,-0.0067 0.015042,-0.01566 0.027979,-0.03133 0.023667,-0.02686 0.060269,-0.06937 0.1054182,-0.127503 0.088156,-0.111857 0.2065259,-0.277384 0.3269975,-0.483177 0.2151401,-0.371298 0.41951,-0.85894 0.4603856,-1.406978 C 2.8457683,9.6008436 2.4649886,8.6680649 2.4649886,7.6592307 c 0,-2.5701768 2.4653808,-4.6527179 5.5073058,-4.6527179 4.3256446,0 5.6628746,3.5525068 5.5073496,4.6526891 z"
       id="path1"
       style="fill:none;fill-opacity:1;stroke:#000000;stroke-width:1.00233;stroke-dasharray:none;stroke-opacity:1"
       sodipodi:nodetypes="csccscsccccsccccssc" /></g></svg>
