<?xml version="1.0" encoding="UTF-8" standalone="no"?>
<!-- Created with Inkscape (http://www.inkscape.org/) -->

<svg
   width="32"
   height="32"
   viewBox="0 0 8.4666665 8.4666666"
   version="1.1"
   id="svg1"
   inkscape:version="1.4 (e7c3feb1, 2024-10-09)"
   sodipodi:docname="gear-solid-redo.svg"
   xml:space="preserve"
   xmlns:inkscape="http://www.inkscape.org/namespaces/inkscape"
   xmlns:sodipodi="http://sodipodi.sourceforge.net/DTD/sodipodi-0.dtd"
   xmlns="http://www.w3.org/2000/svg"
   xmlns:svg="http://www.w3.org/2000/svg"><sodipodi:namedview
     id="namedview1"
     pagecolor="#ffffff"
     bordercolor="#000000"
     borderopacity="0.25"
     inkscape:showpageshadow="2"
     inkscape:pageopacity="0.0"
     inkscape:pagecheckerboard="false"
     inkscape:deskcolor="#d1d1d1"
     inkscape:document-units="mm"
     showgrid="true"
     inkscape:zoom="19.658139"
     inkscape:cx="13.429552"
     inkscape:cy="15.337159"
     inkscape:window-width="1496"
     inkscape:window-height="840"
     inkscape:window-x="0"
     inkscape:window-y="34"
     inkscape:window-maximized="1"
     inkscape:current-layer="g7"
     showguides="true"><inkscape:grid
       id="grid1"
       units="px"
       originx="0"
       originy="0"
       spacingx="0.26458333"
       spacingy="0.26458333"
       empcolor="#0099e5"
       empopacity="0.30196078"
       color="#0099e5"
       opacity="0.14901961"
       empspacing="5"
       dotted="false"
       gridanglex="30"
       gridanglez="30"
       visible="true" /><sodipodi:guide
       position="8.9958329,7.4083333"
       orientation="0,-1"
       id="guide1"
       inkscape:locked="false" /><sodipodi:guide
       position="4.7624998,1.0583336"
       orientation="0,-1"
       id="guide2"
       inkscape:locked="false" /><sodipodi:guide
       position="1.0583333,8.2020832"
       orientation="1,0"
       id="guide3"
       inkscape:locked="false" /><sodipodi:guide
       position="7.408333,6.6145833"
       orientation="1,0"
       id="guide4"
       inkscape:locked="false" /></sodipodi:namedview><defs
     id="defs1" /><g
     style="fill:none"
     id="g7"
     transform="matrix(0.52778155,0,0,0.52803625,0.02216406,2.1892315e-6)"
     inkscape:label="1"><path
       d="m 13.121858,6.093046 c 0.06893,0.1873478 0.01077,0.3962288 -0.137888,0.5297398 l -0.932879,0.8484478 c 0.0237,0.1787333 0.03662,0.3617741 0.03662,0.5469675 0,0.1851941 -0.01287,0.368235 -0.03662,0.5469682 l 0.932879,0.8484461 c 0.148664,0.1335189 0.206827,0.3423939 0.137888,0.5297419 -0.0948,0.2562547 -0.208983,0.5017437 -0.340404,0.7386197 L 12.680205,10.8564 c -0.142192,0.236873 -0.301625,0.460832 -0.476138,0.671865 -0.12711,0.155046 -0.338248,0.206728 -0.527841,0.146425 l -1.200033,-0.381153 c -0.288697,0.221801 -0.6075553,0.406995 -0.9479592,0.546966 L 9.258926,13.070105 c -0.043093,0.195962 -0.1939007,0.351008 -0.3921108,0.38331 -0.2973144,0.04954 -0.6032486,0.07538 -0.9156438,0.07538 -0.3123962,0 -0.6183285,-0.02584 -0.9156436,-0.07538 -0.1982113,-0.0323 -0.3490228,-0.187348 -0.392112,-0.38331 L 6.37411,11.840503 C 6.0337045,11.700532 5.7148465,11.515338 5.4261492,11.293537 l -1.1978795,0.383307 c -0.1895919,0.0603 -0.4007286,0.0065 -0.5278415,-0.146442 C 3.5259217,11.319368 3.3664879,11.095413 3.2242932,10.858537 L 3.1230429,10.684113 C 2.9916118,10.447238 2.8774355,10.20175 2.7826396,9.9454911 2.7136872,9.758144 2.7718795,9.5492638 2.9205269,9.4157519 L 3.8534077,8.5673041 C 3.8297006,8.3864184 3.816789,8.2033776 3.816789,8.0181835 c 0,-0.1851935 0.012876,-0.3682342 0.03662,-0.5469676 L 2.9205269,6.6227681 C 2.7718619,6.4892495 2.7136996,6.280376 2.7826396,6.0930285 2.8774337,5.8367729 2.9916207,5.5912822 3.1230429,5.3544069 L 3.2242932,5.1799848 C 3.3664843,4.9431086 3.5259182,4.7191542 3.7004282,4.5081191 3.8275376,4.3530731 4.0386778,4.3013899 4.2282697,4.3616946 L 5.4283026,4.7428494 C 5.7169998,4.5210479 6.0358606,4.3358547 6.3762633,4.1958814 L 6.645571,2.9662799 C 6.688666,2.7703197 6.8394726,2.6152736 7.037681,2.582972 7.3349971,2.531296 7.6409295,2.505449 7.9533266,2.505449 c 0.3123952,0 0.6183276,0.025847 0.9156439,0.075371 0.19821,0.032301 0.3490215,0.1873476 0.3921089,0.3833079 l 0.2693077,1.2296018 c 0.3404038,0.1399722 0.6592639,0.3251671 0.9479609,0.5469695 l 1.200033,-0.381156 c 0.189591,-0.060298 0.400729,-0.00653 0.527842,0.1464247 0.174506,0.2110348 0.333941,0.434991 0.476133,0.6718674 l 0.101252,0.1744229 c 0.131413,0.2368762 0.242053,0.4823651 0.336847,0.7386216 z M 7.9533172,9.7409352 c 2.2986398,5.535e-4 2.2986398,-3.4449146 0,-3.4454681 -2.29864,-5.535e-4 -2.29864,3.4449146 0,3.4454681 z"
       id="path1"
       style="fill:none;stroke:#000000;stroke-width:1.00235;stroke-dasharray:none;stroke-opacity:1"
       sodipodi:nodetypes="cccscccccccccccscccccccccccscccccccccccsccccccccccsss" /></g></svg>
