<?xml version="1.0" encoding="UTF-8" standalone="no"?>
<!-- Created with Inkscape (http://www.inkscape.org/) -->

<svg
   width="32"
   height="32"
   viewBox="0 0 8.4666665 8.4666666"
   version="1.1"
   id="svg1"
   inkscape:version="1.4 (e7c3feb1, 2024-10-09)"
   sodipodi:docname="house-solid-redo.svg"
   xml:space="preserve"
   xmlns:inkscape="http://www.inkscape.org/namespaces/inkscape"
   xmlns:sodipodi="http://sodipodi.sourceforge.net/DTD/sodipodi-0.dtd"
   xmlns="http://www.w3.org/2000/svg"
   xmlns:svg="http://www.w3.org/2000/svg"><sodipodi:namedview
     id="namedview1"
     pagecolor="#ffffff"
     bordercolor="#000000"
     borderopacity="0.25"
     inkscape:showpageshadow="2"
     inkscape:pageopacity="0.0"
     inkscape:pagecheckerboard="false"
     inkscape:deskcolor="#d1d1d1"
     inkscape:document-units="mm"
     showgrid="true"
     inkscape:zoom="12.217627"
     inkscape:cx="11.540702"
     inkscape:cy="20.462238"
     inkscape:window-width="1112"
     inkscape:window-height="839"
     inkscape:window-x="0"
     inkscape:window-y="34"
     inkscape:window-maximized="0"
     inkscape:current-layer="g7"
     showguides="true"><inkscape:grid
       id="grid1"
       units="px"
       originx="0"
       originy="0"
       spacingx="0.26458333"
       spacingy="0.26458333"
       empcolor="#0099e5"
       empopacity="0.30196078"
       color="#0099e5"
       opacity="0.14901961"
       empspacing="5"
       dotted="false"
       gridanglex="30"
       gridanglez="30"
       visible="true" /><sodipodi:guide
       position="8.9958329,7.4083333"
       orientation="0,-1"
       id="guide1"
       inkscape:locked="false" /><sodipodi:guide
       position="4.7624998,1.0583336"
       orientation="0,-1"
       id="guide2"
       inkscape:locked="false" /><sodipodi:guide
       position="1.0583333,8.2020832"
       orientation="1,0"
       id="guide3"
       inkscape:locked="false" /><sodipodi:guide
       position="7.408333,6.6145833"
       orientation="1,0"
       id="guide4"
       inkscape:locked="false" /></sodipodi:namedview><defs
     id="defs1" /><g
     style="fill:none"
     id="g7"
     transform="matrix(0.52778155,0,0,0.52803625,0.02216406,2.1892315e-6)"
     inkscape:label="1"><path
       d="m -92.283441,-51.610259 c 0,-17.687785 14.38766,-32.068505 32.083981,-32.068505 H 68.136466 c 17.696321,0 32.083984,14.38072 32.083984,32.068505 V 76.663764 c 0,17.687785 -14.387663,32.068506 -32.083984,32.068506 H -60.19946 c -17.696321,0 -32.083981,-14.380721 -32.083981,-32.068506 z"
       id="path1"
       style="stroke-width:0.501191" /><path
       d="m 13.491301,8.0063411 c 0,0.3522341 -0.287308,0.6281497 -0.612921,0.6281497 h -0.612921 l 0.01342,3.1348732 c 0,0.05285 -0.0038,0.105671 -0.0096,0.158507 v 0.31701 c 0,0.432464 -0.342852,0.78274 -0.76615,0.78274 h -0.306462 c -0.02107,0 -0.04215,0 -0.06321,-0.0019 -0.02682,0.0019 -0.05363,0.0019 -0.08045,0.0019 l -0.622519,-0.0019 H 9.9708397 c -0.4233006,0 -0.7661523,-0.350276 -0.7661523,-0.782739 v -0.469661 -1.252385 c 0,-0.346363 -0.2738983,-0.6261922 -0.612921,-0.6261922 H 7.3659253 c -0.3390226,0 -0.612921,0.2798292 -0.612921,0.6261922 v 1.252385 0.469644 c 0,0.432463 -0.3428545,0.78274 -0.7661522,0.78274 H 5.5271577 4.9161534 c -0.02873,0 -0.057463,-0.0019 -0.086192,-0.0039 -0.022994,0.0019 -0.045969,0.0039 -0.068955,0.0039 H 4.4545472 c -0.4232996,0 -0.7661517,-0.350277 -0.7661517,-0.78274 v -2.191673 c 0,-0.01761 0,-0.03718 0.00194,-0.054789 V 8.6325774 H 3.077415 c -0.344768,0 -0.6129209,-0.2739581 -0.6129209,-0.6281488 0,-0.176116 0.057463,-0.332663 0.1915373,-0.4696445 L 7.5651493,3.1631352 c 0.1340768,-0.1369785 0.287305,-0.1565473 0.4213836,-0.1565473 0.1340766,0 0.2873049,0.039138 0.4022288,0.136981 l 4.8918743,4.3931257 c 0.153232,0.1369806 0.229848,0.2935284 0.210694,0.4696436 z"
       id="path1-5"
       style="fill:none;stroke:#000000;stroke-width:1.00248;stroke-linecap:square;stroke-miterlimit:2;stroke-dasharray:none;stroke-opacity:1;paint-order:fill markers stroke" /></g></svg>
