<?xml version="1.0" encoding="UTF-8" standalone="no"?>
<!-- Created with Inkscape (http://www.inkscape.org/) -->

<svg
   width="32"
   height="32"
   viewBox="0 0 8.4666665 8.4666666"
   version="1.1"
   id="svg1"
   inkscape:version="1.4 (e7c3feb100, 2024-10-09)"
   sodipodi:docname="server-solid-redo.svg"
   xmlns:inkscape="http://www.inkscape.org/namespaces/inkscape"
   xmlns:sodipodi="http://sodipodi.sourceforge.net/DTD/sodipodi-0.dtd"
   xmlns="http://www.w3.org/2000/svg"
   xmlns:svg="http://www.w3.org/2000/svg">
  <sodipodi:namedview
     id="namedview1"
     pagecolor="#ffffff"
     bordercolor="#000000"
     borderopacity="0.25"
     inkscape:showpageshadow="2"
     inkscape:pageopacity="0.0"
     inkscape:pagecheckerboard="false"
     inkscape:deskcolor="#d1d1d1"
     inkscape:document-units="mm"
     showgrid="true"
     inkscape:zoom="15.007585"
     inkscape:cx="8.3624383"
     inkscape:cy="25.820278"
     inkscape:window-width="1536"
     inkscape:window-height="855"
     inkscape:window-x="0"
     inkscape:window-y="0"
     inkscape:window-maximized="1"
     inkscape:current-layer="layer1"
     showguides="true">
    <inkscape:grid
       id="grid1"
       units="px"
       originx="0"
       originy="0"
       spacingx="0.26458333"
       spacingy="0.26458333"
       empcolor="#0099e5"
       empopacity="0.30196078"
       color="#0099e5"
       opacity="0.14901961"
       empspacing="5"
       dotted="false"
       gridanglex="30"
       gridanglez="30"
       visible="true" />
    <sodipodi:guide
       position="8.7312496,6.8791666"
       orientation="0,-1"
       id="guide1"
       inkscape:locked="false" />
    <sodipodi:guide
       position="10.583333,1.5875003"
       orientation="0,-1"
       id="guide2"
       inkscape:locked="false" />
    <sodipodi:guide
       position="0.52916664,9.2604165"
       orientation="1,0"
       id="guide3"
       inkscape:locked="false" />
    <sodipodi:guide
       position="7.9374996,8.7312499"
       orientation="1,0"
       id="guide4"
       inkscape:locked="false" />
  </sodipodi:namedview>
  <defs
     id="defs1" />
  <g
     inkscape:label="Layer 1"
     inkscape:groupmode="layer"
     id="layer1">
    <path
       style="fill:#000000;stroke:none;stroke-width:0.264583;stroke-dasharray:none;stroke-opacity:1"
       d="m 5.6322917,5.6155408 a 0.25157501,0.2591658 0 1 1 0.50315,0 0.25157501,0.2591658 0 1 1 -0.50315,0 z"
       id="path6" />
    <path
       style="fill:#000000;stroke:none;stroke-width:0.264583;stroke-dasharray:none;stroke-opacity:1"
       d="m 4.9839862,5.3563787 a 0.2515737,0.25916443 0 1 1 0,0.5183288 0.2515737,0.25916443 0 1 1 0,-0.5183288 z"
       id="path5" />
    <path
       style="fill:none;stroke:#000000;stroke-width:0.453938;stroke-dasharray:none;stroke-opacity:1"
       d="m 2.2207494,4.5788832 c -0.3700247,0 -0.6708637,0.3099188 -0.6708637,0.6911081 v 0.6911036 c 0,0.3811849 0.300839,0.6911036 0.6708637,0.6911036 h 4.0251728 c 0.3700201,0 0.6708592,-0.3099187 0.6708592,-0.6911036 V 5.2699913 c 0,-0.3811893 -0.3008391,-0.6911081 -0.6708592,-0.6911081 z"
       id="path4" />
    <path
       style="fill:#000000;stroke:none;stroke-width:0.264583;stroke-dasharray:none;stroke-opacity:1"
       d="m 5.6322922,2.8511267 a 0.25157336,0.25916409 0 1 1 0.5031455,0 0.25157336,0.25916409 0 1 1 -0.5031455,0 z"
       id="path3" />
    <path
       style="fill:#000000;stroke:none;stroke-width:0.264583;stroke-dasharray:none;stroke-opacity:1"
       d="m 4.9840361,2.59196 a 0.25157367,0.25916441 0 1 1 0,0.5183287 0.25157367,0.25916441 0 1 1 0,-0.5183287 z"
       id="path2" />
    <path
       style="fill:none;stroke:#000000;stroke-width:0.453938;stroke-dasharray:none;stroke-opacity:1"
       d="m 2.2207494,1.814469 c -0.3700247,0 -0.6708637,0.3099186 -0.6708637,0.6911035 v 0.6911036 c 0,0.3811895 0.300839,0.6911035 0.6708637,0.6911035 h 4.0251728 c 0.3700201,0 0.6708592,-0.309914 0.6708592,-0.6911035 V 2.5055725 c 0,-0.3811849 -0.3008391,-0.6911035 -0.6708592,-0.6911035 z"
       id="path1" />
  </g>
</svg>
