<?xml version="1.0" encoding="UTF-8" standalone="no"?>
<svg
   width="{size}"
   height="{size}"
   class="{$$props.class}"
   style="{$$props.style}"
   viewBox="0 0 0.66666667 0.66667994"
   version="1.1"
   xml:space="preserve"
   id="svg1"
   sodipodi:docname="AccountIcon.svg"
   inkscape:version="1.3.2 (091e20e, 2023-11-25)"
   xmlns:inkscape="http://www.inkscape.org/namespaces/inkscape"
   xmlns:sodipodi="http://sodipodi.sourceforge.net/DTD/sodipodi-0.dtd"
   xmlns="http://www.w3.org/2000/svg"
   xmlns:svg="http://www.w3.org/2000/svg"><defs
   id="defs1" /><sodipodi:namedview
   id="namedview1"
   pagecolor="#ffffff"
   bordercolor="#000000"
   borderopacity="0.25"
   inkscape:showpageshadow="2"
   inkscape:pageopacity="0.0"
   inkscape:pagecheckerboard="0"
   inkscape:deskcolor="#d1d1d1"
   inkscape:zoom="13.686748"
   inkscape:cx="3.1051934"
   inkscape:cy="2.9590666"
   inkscape:window-width="1496"
   inkscape:window-height="828"
   inkscape:window-x="0"
   inkscape:window-y="34"
   inkscape:window-maximized="1"
   inkscape:current-layer="svg1" />
  <path
   style="fill:none;stroke:currentColor;stroke-width:0.619893;stroke-linecap:square;stroke-linejoin:round;stroke-dasharray:none"
   d="M 5.6298696,0.30994668 C 2.6917656,0.30996391 0.30996239,2.6917654 0.30994668,5.6298741 0.31495087,7.2747621 1.0805956,8.824816 2.3838333,9.8284746 2.4197066,8.4784975 3.5710075,7.1988142 5.6298398,7.1988142 c 2.0587547,0 3.2092497,1.2797608 3.245989,2.6296604 C 10.179068,8.8248216 10.944677,7.2747624 10.949715,5.6298741 10.9497,2.6917654 8.5678957,0.30996391 5.6297931,0.30994668 Z M 8.8758288,9.8284746 C 8.8399556,8.4784975 7.6886546,7.1988142 5.6298243,7.1988142 c -2.0587563,0 -3.2092525,1.2797608 -3.245991,2.6296604 0.928211,0.7223824 2.0697684,1.1167684 3.245991,1.1214644 1.1762518,-0.0047 2.3177314,-0.399067 3.2460045,-1.1214644 z M 7.3812706,4.4065989 A 1.7514473,1.7514473 0 0 1 5.629854,6.1580352 1.7514473,1.7514473 0 0 1 3.8783919,4.4065989 1.7514473,1.7514473 0 0 1 5.629854,2.6551488 1.7514473,1.7514473 0 0 1 7.3812706,4.4065989 Z"
   id="path1" />
</svg>
