<svg width="16" height="16" viewBox="0 0 16 16" fill="none" xmlns="http://www.w3.org/2000/svg">
<g clip-path="url(#clip0_48_55)">
<path d="M0.750545 3.89536H0.75531V3.91601H0.750545V3.89536Z" fill="black"/>
<path d="M11.4252 8.2478C13.3901 8.2478 14.9834 9.84105 14.9834 11.806C14.9834 13.771 13.3901 15.3642 11.4252 15.3642C9.46024 15.3642 7.86699 13.771 7.86699 11.806C7.86699 9.84105 9.46024 8.2478 11.4252 8.2478ZM11.8954 9.0627C11.8954 8.90226 11.7651 8.772 11.6015 8.772H11.2108C11.0487 8.772 10.9169 8.90226 10.9169 9.0627V11.968C10.9169 12.1285 11.0471 12.2587 11.2108 12.2587H11.6015C11.7635 12.2587 11.8954 12.1285 11.8954 11.968V9.0627ZM11.3998 14.8718C13.0677 14.875 14.4719 13.5279 14.4751 11.8759C14.4751 10.8672 13.9366 9.97449 13.1678 9.42805C13.0248 9.32797 12.8262 9.36927 12.7405 9.52177L12.5467 9.8617C12.4752 9.98878 12.5085 10.1492 12.6277 10.2366C13.1344 10.6099 13.4585 11.1992 13.4585 11.8695C13.4585 12.9862 12.5483 13.9044 11.4061 13.9044C10.264 13.9044 9.34587 13.0069 9.35381 11.8584C9.35699 11.231 9.65562 10.6258 10.1862 10.2366C10.3053 10.1492 10.3371 9.98878 10.2656 9.86329L10.0718 9.52336C9.98603 9.37404 9.78906 9.32797 9.64609 9.42963C8.87568 9.97448 8.37531 10.8656 8.37531 11.8727C8.37531 13.5279 9.72869 14.8702 11.3998 14.875V14.8718Z" fill="black"/>
<path d="M1.77037 3.22819C1.77037 3.02646 1.84979 2.83266 1.99276 2.6897L4.08479 0.596075C4.22775 0.453112 4.42155 0.373688 4.62328 0.373688H4.81549V3.42199H1.76878V3.22978L1.77037 3.22819Z" fill="black"/>
<path d="M9.90179 6.42898V6.47822L6.85191 7.73948L3.80202 6.47822V6.47663L6.85191 5.19949L9.90179 6.42898Z" fill="black"/>
<path d="M6.34363 11.2453L3.80205 9.95065V7.48215L6.34363 8.56549V11.2453Z" fill="black"/>
<path d="M7.35229 8.48767L9.89386 7.49963V8.59251C8.97572 9.03093 8.2752 9.849 7.99721 10.845L7.35229 11.1659V8.48767Z" fill="black"/>
<path d="M1.77513 4.94377V4.42275H5.07441C5.49377 4.42275 5.83529 4.07964 5.83529 3.66028V0.357819H11.1662C11.5872 0.357819 11.9271 0.699343 11.9271 1.12029V8.28276C11.7619 8.25894 11.5951 8.24782 11.4236 8.24782C11.252 8.24782 11.0836 8.26052 10.9168 8.28435V6.47189C10.9168 6.14784 10.7199 5.85715 10.4228 5.74437L7.11878 4.48311C6.94564 4.41639 6.75502 4.41639 6.58347 4.4847L3.27942 5.74595C2.98237 5.85874 2.7854 6.14943 2.7854 6.47189V10.1127C2.7854 10.405 2.94743 10.675 3.20635 10.8069L6.51039 12.4891C6.72484 12.5987 6.97741 12.5987 7.19185 12.4891L7.87808 12.1078C7.96227 13.1102 8.46264 13.995 9.20605 14.589L2.53442 14.6017C2.11347 14.6017 1.77354 14.2602 1.77354 13.8393H1.7656V4.94377H1.77354H1.77513Z" fill="black"/>
</g>
<defs>
<clipPath id="clip0_48_55">
<rect width="15" height="16" fill="white" transform="matrix(-1 0 0 1 15 0)"/>
</clipPath>
</defs>
</svg>
