<?xml version="1.0" encoding="UTF-8" standalone="no"?>
<svg
   width="{size}"
   height="{size}"
   class="{$$props.class}"
   style="{$$props.style}"
   viewBox="0 0 16 16"
   version="1.1"
   xml:space="preserve"
   id="svg7"
   sodipodi:docname="ImageIcon.svg"
   inkscape:version="1.3.2 (091e20e, 2023-11-25)"
   xmlns:inkscape="http://www.inkscape.org/namespaces/inkscape"
   xmlns:sodipodi="http://sodipodi.sourceforge.net/DTD/sodipodi-0.dtd"
   xmlns="http://www.w3.org/2000/svg"
   xmlns:svg="http://www.w3.org/2000/svg"><sodipodi:namedview
   id="namedview7"
   pagecolor="#ffffff"
   bordercolor="#000000"
   borderopacity="0.25"
   inkscape:showpageshadow="2"
   inkscape:pageopacity="0.0"
   inkscape:pagecheckerboard="0"
   inkscape:deskcolor="#d1d1d1"
   inkscape:zoom="14.75"
   inkscape:cx="7.9661017"
   inkscape:cy="8"
   inkscape:window-width="1328"
   inkscape:window-height="451"
   inkscape:window-x="0"
   inkscape:window-y="34"
   inkscape:window-maximized="0"
   inkscape:current-layer="svg7" />
  {#if solid}
    
    <defs
   id="defs5">
      <clipPath
   id="clip0_48_53">
        <rect
   width="10"
   height="15"
   fill="white"
   transform="matrix(-1 0 0 1 13 0)"
   id="rect5" />
      </clipPath>
    </defs>
  {:else}
    <g
   clip-path="url(#clip0_48_52)"
   id="g7">
      <path
   d="M1.99207 4.49689V4.61251H1.99999V15.1469C1.99999 15.625 2.40849 16.0125 2.91199 16.0125H13.2543C13.7578 16.0125 14.1663 15.625 14.1663 15.1469V0.862512C14.1663 0.384387 13.7578 -0.00311279 13.2543 -0.00311279H5.41999C5.17774 -0.00311279 4.94657 0.0875122 4.77399 0.250012L2.26757 2.62814C2.09657 2.79064 1.99999 3.01095 1.99999 3.24064V4.49689H1.99207ZM3.01965 14.2563V4.99533H6.31615C6.73415 4.99533 7.07615 4.65782 7.07615 4.24533V0.996887H12.4009C12.8205 0.996887 13.1609 1.33282 13.1609 1.74689V14.2563C13.1609 14.6703 12.9788 14.9906 12.5592 14.9906L3.77965 15.0063C3.36007 15.0063 3.01965 14.6703 3.01965 14.2563ZM3.01965 3.99532V3.80626C3.01965 3.60782 3.1004 3.4172 3.2429 3.27657L5.3329 1.2172C5.4754 1.07657 5.66857 0.996887 5.87124 0.996887H6.06282V3.99532H3.01965Z"
   fill="currentColor"
   id="path6" />
      <path
   d="M8.34914 6.04689L11.6425 7.28751C11.9386 7.39845 12.1349 7.68595 12.1349 8.00314V11.5844C12.1349 11.8735 11.9718 12.1375 11.7153 12.2672L8.42197 13.9219C8.20822 14.0297 7.95647 14.0297 7.74272 13.9219L4.44939 12.2672C4.19131 12.1391 4.02981 11.8719 4.02981 11.5844V8.00314C4.02981 7.68439 4.22614 7.40001 4.52222 7.28908L7.81555 6.04845C7.98655 5.98126 8.17655 5.98126 8.34914 6.04689ZM8.5803 12.6219L11.1136 11.3485V9.01408L8.5803 9.98595V12.6203V12.6219ZM5.03997 11.4266L7.5733 12.7V10.0656L5.03997 9.00001V11.4281V11.4266ZM5.03997 8.01095L8.07997 9.25158L11.12 8.01095V7.96251L8.07997 6.7547L5.03997 8.00939V8.01095Z"
   fill="currentColor"
   id="path7" />
    </g>
    <defs
   id="defs7">
      <clipPath
   id="clip0_48_52">
        <rect
   width="12.16"
   height="16"
   fill="white"
   transform="matrix(-1 0 0 1 14.16 0)"
   id="rect7" />
      </clipPath>
    </defs>
  {/if}
</svg>
