<?xml version="1.0" encoding="UTF-8" standalone="no"?>
<svg
   width="{size}"
   height="{size}"
   class="{$$props.class}"
   style="{$$props.style}"
   viewBox="0 0 4.233 4.233"
   version="1.1"
   xml:space="preserve"
   id="svg5"
   sodipodi:docname="ManifestIcon.svg"
   inkscape:version="1.3.2 (091e20e, 2023-11-25)"
   xmlns:inkscape="http://www.inkscape.org/namespaces/inkscape"
   xmlns:sodipodi="http://sodipodi.sourceforge.net/DTD/sodipodi-0.dtd"
   xmlns="http://www.w3.org/2000/svg"
   xmlns:svg="http://www.w3.org/2000/svg"><defs
   id="defs5" /><sodipodi:namedview
   id="namedview5"
   pagecolor="#ffffff"
   bordercolor="#000000"
   borderopacity="0.25"
   inkscape:showpageshadow="2"
   inkscape:pageopacity="0.0"
   inkscape:pagecheckerboard="0"
   inkscape:deskcolor="#d1d1d1"
   inkscape:zoom="55.752424"
   inkscape:cx="2.1075317"
   inkscape:cy="2.1164999"
   inkscape:window-width="1328"
   inkscape:window-height="451"
   inkscape:window-x="0"
   inkscape:window-y="34"
   inkscape:window-maximized="0"
   inkscape:current-layer="svg5" />
  {#if solid}
    
  {:else}
    <path
   d="m 1.1144526,7.9604047e-6 c -0.050467,0 -0.098635,0.018875299595 -0.1345892,0.052741599595 L 0.45763251,0.54825977 c -0.0356242,0.0338523 -0.0557596,0.0797559 -0.0557596,0.12760764 V 0.9376045 h -0.001723 v 0.024087 h 0.001723 v 2.194904 c 0,0.0996 0.0851292,0.1803493 0.19002419,0.1803493 H 0.8500675 V 3.604789 c 0,0.099601 0.085128,0.1803491 0.1900218,0.1803491 h 0.2581706 v 0.267846 c 0,0.0996 0.085129,0.1803492 0.1900242,0.1803492 H 3.643159 c 0.1048937,0 0.1900242,-0.080748 0.1900242,-0.1803492 V 1.0767597 c 0,-0.099609 -0.085129,-0.1803725 -0.1900242,-0.1803725 H 3.3849869 V 0.62854422 c 0,-0.0996088 -0.085128,-0.18034916 -0.1900218,-0.18034916 H 2.9367945 V 0.180349 C 2.9367945,0.0807449 2.8516645,-1.8959534e-7 2.7467702,-1.8959534e-7 Z M 1.2084686,0.20836992 h 0.039915 V 0.67142547 0.8331064 H 1.0779917 0.6143275 v -0.039392 c 0,-0.041337 0.016827,-0.081064 0.046528,-0.11036148 L 1.0963098,0.25426425 c 0.029687,-0.0292976 0.069939,-0.045892 0.1121611,-0.045892 z m 0.2510568,0 h 1.1094351 c 0.087412,0 0.1583551,0.0699948 0.1583551,0.15625808 v 0.0835752 0.20836195 0.23983085 0.2083621 0.8128346 0.1811614 0.028602 0.069574 0.1383515 0.033614 0.3895656 0.065784 0.1311787 0.01564 c 0,0.059259 -0.018457,0.1086994 -0.058016,0.1342198 -0.018038,0.011638 -0.040001,0.018783 -0.067364,0.018783 l -0.1424444,2.546e-4 -0.527831,8.573e-4 -0.2104847,2.857e-4 -0.119883,2.114e-4 -0.090578,1.685e-4 L 1.2982586,3.12613 1.0625192,3.1264158 0.8500656,3.1267014 0.7726816,3.12683 c -0.0874099,0 -0.15835499,-0.07001 -0.15835499,-0.156258 V 1.0409703 h 0.25786259 0.328267 0.1007131 c 0.087077,0 0.158355,-0.070344 0.158355,-0.1562744 V 0.7856899 0.47672309 Z m 1.4772688,0.44819523 h 0.08036 c 0.087416,0 0.1583575,0.0699925 0.1583575,0.15625575 v 0.083575 0.2083619 1.2610269 0.1811615 0.028604 0.2079243 0.4889646 0.146799 c 0,0.086259 -0.037953,0.1529949 -0.1253773,0.1529949 l -1.0006456,0.00171 -0.5387716,8.574e-4 -0.2124559,2.858e-4 -0.077383,1.256e-4 c -0.087413,0 -0.1583574,-0.070005 -0.1583574,-0.1562556 v -0.082283 h 0.2357394 0.2124558 0.2128702 0.2979349 0.027714 0.1639571 0.2462882 0.2098073 0.07747 c 0.1049006,0 0.1900241,-0.080738 0.1900241,-0.1803492 V 2.9476142 2.8747847 2.6726812 2.451845 2.2755669 2.030919 1.1044848 0.8961231 Z m 0.448192,0.44819235 h 0.080361 c 0.087413,0 0.1583551,0.069992 0.1583551,0.1562582 v 2.6064186 c 0,0.086247 -0.037961,0.1529928 -0.1253774,0.1529928 l -1.8292564,0.00327 c -0.08741,0 -0.1583551,-0.070006 -0.1583551,-0.1562557 v -0.082291 h 0.9589978 0.1916861 0.5335658 c 0.1049052,0 0.1900218,-0.080736 0.1900218,-0.1803492 V 3.3960779 2.479381 Z M 1.6703609,1.2503771 c -0.019294,-1.257e-4 -0.038558,0.00336 -0.05679,0.010514 l -0.054207,0.020438 -0.055041,0.020737 -0.5769182,0.2173365 c -0.032702,0.012266 -0.059319,0.034842 -0.077338,0.063093 -0.015966,0.02503 -0.025286,0.054478 -0.025286,0.085678 V 2.41434 c 0,0.030976 0.00914,0.060739 0.025286,0.086029 0.015057,0.0236 0.036189,0.043357 0.062149,0.056245 l 0.1503022,0.075522 0.2104636,0.1057474 0.025287,0.012685 0.2124559,0.1067543 0.087691,0.044053 c 0.018457,0.0093 0.038325,0.013808 0.058366,0.015408 0.021807,0.00171 0.043513,-0.00115 0.064403,-0.00857 0.00629,-0.00229 0.012761,-0.00379 0.018736,-0.00682 l 0.1917304,-0.096337 0.035519,-0.017827 0.044121,-0.022181 0.1826928,-0.091784 0.027115,-0.013644 0.2050128,-0.1030114 c 0.052527,-0.026573 0.086072,-0.080208 0.087209,-0.139228 2e-5,-0.00114 2.144e-4,-0.002 2.144e-4,-0.00302 V 2.3257234 2.2146154 2.1562714 2.0138485 1.8370875 1.6681838 c 0,-0.066085 -0.040907,-0.1259876 -0.1025977,-0.1491011 L 2.3558987,1.4983684 2.1447578,1.4188176 1.9077042,1.3295079 1.8378928,1.3032222 1.7247511,1.260589 c -0.0092,-0.00349 -0.018666,-0.00605 -0.028201,-0.00775 -0.00869,-0.00143 -0.017456,-0.00229 -0.026229,-0.00256 z m -0.00171,0.1576545 0.044775,0.017805 0.1111074,0.044142 0.3202125,0.1272142 0.1573055,0.062501 v 0.010126 L 2.1904343,1.7153601 1.6686432,1.9282956 1.5780421,1.8913322 1.2982274,1.7771379 1.0624882,1.6809345 1.0352299,1.6698145 v -2.859e-4 l 0.027258,-0.011269 0.236988,-0.097803 0.1713979,-0.070753 z m -0.6334022,0.4678243 0.027258,0.011443 0.2357394,0.09916 0.027744,0.011654 0.1847269,0.077692 0.036678,0.01543 0.01571,0.00661 v 0.052622 0.2070725 0.2892234 L 1.510712,2.6204568 1.483453,2.6067688 1.298244,2.5136718 1.272957,2.5009718 1.0624932,2.3951818 1.0352342,2.3814968 Z m 1.2654643,0.00293 v 0.020202 0.030289 0.306821 0.065325 0.06375 L 1.9729308,2.5299513 1.7728847,2.6305099 V 2.6302243 2.4475546 2.4458405 2.2361445 2.0813327 l 0.3738735,-0.1434303 0.089309,-0.034272 z"
   style="stroke-width:0.042349;fill:currentColor"
   id="path5" />
  {/if}
</svg>
