<?xml version="1.0" encoding="UTF-8" standalone="no"?>
<svg
   width="{size}"
   height="{size}"
   class="{$$props.class}"
   style="{$$props.style}"
   viewBox="0.926 0.926 4.498 4.498"
   version="1.1"
   xml:space="preserve"
   id="svg3"
   sodipodi:docname="VolumeIcon.svg"
   inkscape:version="1.3.2 (091e20e, 2023-11-25)"
   xmlns:inkscape="http://www.inkscape.org/namespaces/inkscape"
   xmlns:sodipodi="http://sodipodi.sourceforge.net/DTD/sodipodi-0.dtd"
   xmlns="http://www.w3.org/2000/svg"
   xmlns:svg="http://www.w3.org/2000/svg"><defs
   id="defs3" /><sodipodi:namedview
   id="namedview3"
   pagecolor="#ffffff"
   bordercolor="#000000"
   borderopacity="0.25"
   inkscape:showpageshadow="2"
   inkscape:pageopacity="0.0"
   inkscape:pagecheckerboard="0"
   inkscape:deskcolor="#d1d1d1"
   inkscape:zoom="52.467762"
   inkscape:cx="2.2394704"
   inkscape:cy="2.2490001"
   inkscape:window-width="1328"
   inkscape:window-height="451"
   inkscape:window-x="0"
   inkscape:window-y="34"
   inkscape:window-maximized="0"
   inkscape:current-layer="svg3" />
  {#if solid}
    
  {:else}
    <g
   transform="translate(-0.50925903,-15.109665)"
   id="g3">
      <g
   transform="matrix(0.26458333,0,0,0.26458333,1.5675951,17.09404)"
   id="g2">
        <path
   style="fill:currentColor;fill-rule:evenodd;stroke-linejoin:round;stroke-miterlimit:10"
   d="M 8,-0.5 C 5.308199,-0.44627808 2.7353389,-0.26074086 0.3828125,0.73242187 -0.08998295,0.99973104 -0.5,1.3654569 -0.5,1.9121094 v 5.1757812 c 0,0.5466525 0.41001705,0.9123784 0.8828125,1.1796875 C 2.7589104,9.3313527 5.7271019,9.491748 8,9.5 10.691802,9.4462782 13.264661,9.2607406 15.617188,8.2675781 16.246686,7.9041374 16.5,7.8219799 16.5,7.0878906 V 1.9121094 C 16.5,1.3654569 16.089983,0.99973104 15.617188,0.73242187 13.24109,-0.33135254 10.272898,-0.49174799 8,-0.5 Z m 0,1 c 2.649222,0.0569525 5.021785,0.005065 7.5,1.4121094 0,-0.018671 -0.03806,0.1200895 -0.375,0.3105469 C 12.902157,3.1721288 10.113737,3.3183277 8,3.3261719 5.4907046,3.2640566 3.1296592,3.1307059 0.875,2.2226563 0.53806505,2.0321989 0.5,1.8934389 0.5,1.9121094 2.9262917,0.39519991 5.8400742,0.50801972 8,0.5 Z M 0.5,3.1328125 C 2.8423807,4.1650465 5.7688795,4.318076 8,4.3261719 10.645243,4.2636654 13.190761,4.1064332 15.5,3.1328125 V 7.0878906 C 13.289959,8.4696007 10.159926,8.4919803 8,8.5 5.3507782,8.4430475 2.6797453,8.3254743 0.5,7.0878906 Z"
   id="path2" />
      </g>
    </g>
  {/if}
</svg>
