<?xml version="1.0" encoding="UTF-8" standalone="no"?>
<!-- Created with Inkscape (http://www.inkscape.org/) -->

<svg
   width="32"
   height="32"
   viewBox="0 0 8.4666665 8.4666666"
   version="1.1"
   id="svg1"
   inkscape:version="1.4 (e7c3feb1, 2024-10-09)"
   sodipodi:docname="arrow-up-right-from-square-solid-redo.svg"
   xml:space="preserve"
   xmlns:inkscape="http://www.inkscape.org/namespaces/inkscape"
   xmlns:sodipodi="http://sodipodi.sourceforge.net/DTD/sodipodi-0.dtd"
   xmlns="http://www.w3.org/2000/svg"
   xmlns:svg="http://www.w3.org/2000/svg"><sodipodi:namedview
     id="namedview1"
     pagecolor="#ffffff"
     bordercolor="#000000"
     borderopacity="0.25"
     inkscape:showpageshadow="2"
     inkscape:pageopacity="0.0"
     inkscape:pagecheckerboard="false"
     inkscape:deskcolor="#d1d1d1"
     inkscape:document-units="mm"
     showgrid="true"
     inkscape:zoom="9.9299185"
     inkscape:cx="16.062569"
     inkscape:cy="15.91151"
     inkscape:window-width="1496"
     inkscape:window-height="835"
     inkscape:window-x="0"
     inkscape:window-y="34"
     inkscape:window-maximized="0"
     inkscape:current-layer="g7"
     showguides="true"><inkscape:grid
       id="grid1"
       units="px"
       originx="0"
       originy="0"
       spacingx="0.26458333"
       spacingy="0.26458333"
       empcolor="#0099e5"
       empopacity="0.30196078"
       color="#0099e5"
       opacity="0.14901961"
       empspacing="5"
       dotted="false"
       gridanglex="30"
       gridanglez="30"
       visible="true" /><sodipodi:guide
       position="8.9958329,7.4083333"
       orientation="0,-1"
       id="guide1"
       inkscape:locked="false" /><sodipodi:guide
       position="4.7624998,1.0583336"
       orientation="0,-1"
       id="guide2"
       inkscape:locked="false" /><sodipodi:guide
       position="1.0583333,8.2020832"
       orientation="1,0"
       id="guide3"
       inkscape:locked="false" /><sodipodi:guide
       position="7.408333,6.6145833"
       orientation="1,0"
       id="guide4"
       inkscape:locked="false" /></sodipodi:namedview><defs
     id="defs1" /><g
     style="fill:none"
     id="g7"
     transform="matrix(0.52778155,0,0,0.52803625,0.02216406,2.1892315e-6)"
     inkscape:label="1"><path
       d="m 45.076105,-128.7751 c -8.87322,0 -16.04199,7.16531 -16.04199,16.03426 0,8.86894 7.16877,16.034249 16.04199,16.034249 h 41.45852 L -14.379525,4.2089875 c -6.266399,6.2633805 -6.266399,16.4351105 0,22.6984905 6.26641,6.26338 16.44304,6.26338 22.70945,0 L 109.24406,-74.008102 v 41.438522 c 0,8.868948 7.16877,16.034248 16.04199,16.034248 8.87323,0 16.04199,-7.1653 16.04199,-16.034248 v -80.17126 c 0,-8.86895 -7.16876,-16.03426 -16.04199,-16.03426 z m -120.314928,16.03426 c -22.158,0 -40.104977,17.938317 -40.104977,40.085628 v 160.34253 c 0,22.147312 17.946977,40.085632 40.104977,40.085632 H 85.181085 c 22.157995,0 40.104965,-17.93832 40.104965,-40.085632 v -56.11989 c 0,-8.86894 -7.16876,-16.03425 -16.04199,-16.03425 -8.87322,0 -16.041985,7.16531 -16.041985,16.03425 v 56.11989 c 0,4.40942 -3.60944,8.01712 -8.02099,8.01712 H -75.238823 c -4.411548,0 -8.020996,-3.6077 -8.020996,-8.01712 v -160.34253 c 0,-4.409419 3.609448,-8.017126 8.020996,-8.017126 h 56.146967 c 8.873221,0 16.041991,-7.165307 16.041991,-16.034253 0,-8.868949 -7.16877,-16.034249 -16.041991,-16.034249 z"
       id="path1"
       style="stroke-width:0.501191" /><g
       id="g10"
       transform="matrix(-1.3397717,-1.3391255,1.3397717,-1.3391255,10.914163,16.397414)" /><path
       id="rect1"
       style="fill-rule:evenodd;stroke:#000000;stroke-width:1.0022;stroke-linecap:round;stroke-linejoin:round;stroke-miterlimit:2;stroke-dasharray:none;stroke-dashoffset:111.6;paint-order:fill markers stroke"
       d="M 12.731682,9.5180253 V 13.528866 H 2.4643536 V 3.397382 H 6.5598282 M 13.439797,2.5589389 7.0050453,8.9254293 M 13.493647,6.5737395 13.456523,2.5423351 9.40963,2.5053784" /></g></svg>
