<?xml version="1.0" encoding="UTF-8" standalone="no"?>
<!-- Created with Inkscape (http://www.inkscape.org/) -->

<svg
   width="32"
   height="32"
   viewBox="0 0 8.4666665 8.4666666"
   version="1.1"
   id="svg1"
   inkscape:version="1.4 (e7c3feb100, 2024-10-09)"
   sodipodi:docname="bell-slash-regular-redo.svg"
   xml:space="preserve"
   xmlns:inkscape="http://www.inkscape.org/namespaces/inkscape"
   xmlns:sodipodi="http://sodipodi.sourceforge.net/DTD/sodipodi-0.dtd"
   xmlns="http://www.w3.org/2000/svg"
   xmlns:svg="http://www.w3.org/2000/svg"><sodipodi:namedview
     id="namedview1"
     pagecolor="#ffffff"
     bordercolor="#000000"
     borderopacity="0.25"
     inkscape:showpageshadow="2"
     inkscape:pageopacity="0.0"
     inkscape:pagecheckerboard="false"
     inkscape:deskcolor="#d1d1d1"
     inkscape:document-units="mm"
     showgrid="true"
     inkscape:zoom="11.047777"
     inkscape:cx="7.9201454"
     inkscape:cy="15.251937"
     inkscape:window-width="1920"
     inkscape:window-height="1163"
     inkscape:window-x="0"
     inkscape:window-y="0"
     inkscape:window-maximized="1"
     inkscape:current-layer="g7"
     showguides="true"><inkscape:grid
       id="grid1"
       units="px"
       originx="0"
       originy="0"
       spacingx="0.26458333"
       spacingy="0.26458333"
       empcolor="#0099e5"
       empopacity="0.30196078"
       color="#0099e5"
       opacity="0.14901961"
       empspacing="5"
       dotted="false"
       gridanglex="30"
       gridanglez="30"
       visible="true" /><sodipodi:guide
       position="8.9958329,7.4083333"
       orientation="0,-1"
       id="guide1"
       inkscape:locked="false" /><sodipodi:guide
       position="4.7624998,1.0583336"
       orientation="0,-1"
       id="guide2"
       inkscape:locked="false" /><sodipodi:guide
       position="1.0583333,8.2020832"
       orientation="1,0"
       id="guide3"
       inkscape:locked="false" /><sodipodi:guide
       position="7.408333,6.6145833"
       orientation="1,0"
       id="guide4"
       inkscape:locked="false" /></sodipodi:namedview><defs
     id="defs1" /><g
     style="fill:none"
     id="g7"
     transform="matrix(0.52778155,0,0,0.52803625,0.02216406,2.1892315e-6)"
     inkscape:label="1"><path
       id="path3"
       style="fill:none;fill-opacity:1;fill-rule:evenodd;stroke:#000000;stroke-width:1.00238257;stroke-linecap:round;stroke-linejoin:miter;stroke-dasharray:none;stroke-opacity:1;paint-order:fill markers stroke"
       d="M 2.4645966,2.8293045 13.493404,11.792768 M 4.9706455,6.8938918 c 0,0.9094351 -0.3259496,1.7879131 -0.9137663,2.469023 l -0.1394204,0.160598 c -0.1582613,0.1819055 -0.1959432,0.443105 -0.099845,0.6656282 0.096085,0.222521 0.3127493,0.36571 0.5501477,0.36571 h 5.1161293 m 2.6688035,-0.36571 c 0.09803,-0.2225234 0.05835,-0.4837395 -0.09985,-0.6656286 L 11.913416,9.3629155 C 11.325591,8.6818049 10.999649,7.8052618 10.999649,6.8938918 V 6.5301162 c 0,-1.4976663 -1.0362375,-2.7476568 -2.4116025,-3.0340326 V 3.1245687 c 0,-0.3424901 -0.269426,-0.6191901 -0.602897,-0.6191901 -0.333483,0 -0.602897,0.2767 -0.602897,0.6191901 V 3.4960836 C 6.4638504,3.68731 5.6966661,4.3081996 5.2882521,5.1455887 m 3.6980884,7.9835073 c 0.244426,-0.256536 0.38089,-0.604998 0.38089,-0.968425 H 8.0636415 6.7600476 c 0,0.363427 0.1364769,0.711889 0.3808903,0.968425 0.2444265,0.256537 0.5764316,0.39977 0.9227006,0.39977 0.346269,0 0.678274,-0.143236 0.922702,-0.39977 z"
       sodipodi:nodetypes="ccccccsccccsscssscccccccsc" /></g></svg>
