<?xml version="1.0" encoding="UTF-8" standalone="no"?>
<!-- Created with Inkscape (http://www.inkscape.org/) -->

<svg
   width="32"
   height="32"
   viewBox="0 0 8.4666665 8.4666666"
   version="1.1"
   id="svg1"
   inkscape:version="1.4 (e7c3feb1, 2024-10-09)"
   sodipodi:docname="circle-question-regular-redo.svg"
   xml:space="preserve"
   xmlns:inkscape="http://www.inkscape.org/namespaces/inkscape"
   xmlns:sodipodi="http://sodipodi.sourceforge.net/DTD/sodipodi-0.dtd"
   xmlns="http://www.w3.org/2000/svg"
   xmlns:svg="http://www.w3.org/2000/svg"><sodipodi:namedview
     id="namedview1"
     pagecolor="#ffffff"
     bordercolor="#000000"
     borderopacity="0.25"
     inkscape:showpageshadow="2"
     inkscape:pageopacity="0.0"
     inkscape:pagecheckerboard="false"
     inkscape:deskcolor="#d1d1d1"
     inkscape:document-units="mm"
     showgrid="true"
     inkscape:zoom="14.526467"
     inkscape:cx="12.907474"
     inkscape:cy="19.309582"
     inkscape:window-width="1120"
     inkscape:window-height="786"
     inkscape:window-x="0"
     inkscape:window-y="34"
     inkscape:window-maximized="0"
     inkscape:current-layer="svg1"
     showguides="true"><inkscape:grid
       id="grid1"
       units="px"
       originx="0"
       originy="0"
       spacingx="0.26458333"
       spacingy="0.26458333"
       empcolor="#0099e5"
       empopacity="0.30196078"
       color="#0099e5"
       opacity="0.14901961"
       empspacing="5"
       dotted="false"
       gridanglex="30"
       gridanglez="30"
       visible="true" /><sodipodi:guide
       position="8.9958329,7.4083333"
       orientation="0,-1"
       id="guide1"
       inkscape:locked="false" /><sodipodi:guide
       position="4.7624998,1.0583336"
       orientation="0,-1"
       id="guide2"
       inkscape:locked="false" /><sodipodi:guide
       position="1.0583333,8.2020832"
       orientation="1,0"
       id="guide3"
       inkscape:locked="false" /><sodipodi:guide
       position="7.408333,6.6145833"
       orientation="1,0"
       id="guide4"
       inkscape:locked="false" /></sodipodi:namedview><defs
     id="defs1"><inkscape:path-effect
       effect="powerstroke"
       message=""
       id="path-effect9"
       is_visible="true"
       lpeversion="1.3"
       scale_width="1"
       interpolator_type="CubicBezierJohan"
       interpolator_beta="0.2"
       start_linecap_type="zerowidth"
       end_linecap_type="zerowidth"
       offset_points="6,4.9921383"
       linejoin_type="extrp_arc"
       miter_limit="4"
       not_jump="false"
       sort_points="true" /><inkscape:path-effect
       effect="fill_between_many"
       method="bsplinespiro"
       autoreverse="false"
       close="false"
       join="false"
       linkedpaths="#path9,0,1"
       id="path-effect10" /></defs><g
     style="display:inline;fill:none;stroke-width:1.00238257;stroke-dasharray:none"
     id="g7"
     transform="matrix(0.52778155,0,0,0.52803625,0.02216389,2.0930425e-6)"
     inkscape:label="1"><g
       inkscape:label="Layer 1"
       id="layer1"
       transform="matrix(1.8947233,0,0,1.8938094,-0.04199433,-3.7384524e-6)"
       style="stroke-width:0.52916666;stroke-dasharray:none"><path
         style="fill:none;stroke:#000000;stroke-width:0.52916666;stroke-dasharray:none;stroke-opacity:1"
         d="m 4.2333334,1.322972 a 2.909429,2.9103614 0 1 1 0,5.8207225 2.909429,2.9103614 0 1 1 0,-5.8207225 z"
         id="path2" /></g></g><g
     id="g1"
     transform="translate(0,0.0595551)"
     style="display:inline;stroke-width:0.52916667;stroke-dasharray:none"><path
       style="display:inline;fill:#000000;fill-opacity:1;stroke-width:0.52916667;stroke-dasharray:none"
       d="m 3.9026043,5.3660756 c -4.476e-4,-0.440982 0.6619056,-0.440982 0.661458,0 4.476e-4,0.440982 -0.6619056,0.440982 -0.661458,0 z"
       id="path6"
       sodipodi:nodetypes="ccc" /><path
       d="M 3.4557513,3.3836124 C 3.5898524,3.2207194 3.7314241,3.0411971 3.9410467,2.9764322 4.1315402,2.8970587 4.3512964,2.8782556 4.5451871,2.9570255 4.7512758,3.025247 4.930151,3.1896984 4.9979256,3.397716 5.0568716,3.6434547 4.9232269,3.9186799 4.6899795,4.0196413 4.5359605,4.1037027 4.3453877,4.1553518 4.2515976,4.316066 4.2198653,4.3868513 4.2163195,4.4668022 4.2180404,4.5432476"
       id="path10"
       style="display:inline;fill:none;stroke:#000000;stroke-width:0.52916667;stroke-linecap:round;stroke-linejoin:round;stroke-dasharray:none;stroke-opacity:1" /></g><path
     style="display:inline;opacity:0;fill:none;fill-opacity:1;fill-rule:nonzero;stroke:#000000;stroke-width:0.529167;stroke-linecap:round;stroke-miterlimit:2;stroke-dashoffset:111.6;stroke-opacity:1"
     d="m 3.409402,3.4231498 c 0.087985,-0.094753 0.3659985,-0.085444 0.7560788,-0.014765 L 3.7668395,3.5822196 C 4.0735019,3.8331235 4.4139049,4.1539598 4.7704131,4.5081764 L 3.6327279,3.9690516 C 3.4827171,4.2965364 3.3153005,4.6467092 3.1478839,4.9968819 L 2.7598469,2.4951442 C 2.370636,2.5233884 1.9814251,2.5516325 1.6205712,2.5838942 L 3.0769564,0.8664795 C 2.6793252,0.69246322 2.3086228,0.54119517 1.9943373,0.43758525 4.0350977,1.1103588 5.5547925,2.8308757 5.9704205,4.9390931 4.1886389,3.7072093 1.9628581,3.3017803 -0.1388513,3.8262811 c -0.34361981,0.085754 -0.56227896,0.1660581 -0.56904706,0.2371231 0,0 4.96965106,0.4733003 4.96965106,0.4733003 0,0 4.9696511,0.4733003 4.9696511,0.4733003 0.00677,-0.071065 -0.1928015,-0.191201 -0.5140567,-0.3402759 L 7.2732411,3.9996075 6.5841585,8.0584248 c 0.05539,-0.3262552 0.095036,-0.724665 0.1271682,-1.1575159 L 6.9414227,3.801278 8.1677124,5.183494 C 7.9272751,4.9124844 7.6634484,4.624946 7.3996217,4.3374076 L 5.4621161,2.2257662 7.0115847,1.8356699 C 6.6351943,1.9304304 6.258804,2.025191 5.9080989,2.107383 L 3.709105,2.6227444 4.7704131,1.5682582 C 4.4139049,1.9224748 4.0735019,2.2433111 3.7668395,2.494215 0.3741297,5.2700492 -4.6917157,4.3891496 -6.9482267,0.63097265 -5.6034442,-1.1632364 -3.3493871,-2.0279927 -1.149625,-1.5936284 c 2.1997622,0.4343642 3.9559496,2.09098196 4.5178232,4.2616786 0.09934,0.3837833 0.1291891,0.6603462 0.041204,0.7550996 z"
     id="path9"
     inkscape:linked-fill="path10"
     inkscape:original-d="M 3.409402,3.4231498 3.7668395,3.0382173 H 4.7704134 L 5.0797343,3.4162759 4.8941418,3.8836941 4.2892479,4.248005 4.2617527,4.5367045"
     inkscape:path-effect="#path-effect9" /></svg>
