<?xml version="1.0" encoding="UTF-8" standalone="no"?>
<!-- Created with Inkscape (http://www.inkscape.org/) -->

<svg
   width="32"
   height="32"
   viewBox="0 0 8.4666665 8.4666666"
   version="1.1"
   id="svg1"
   inkscape:version="1.4 (e7c3feb1, 2024-10-09)"
   sodipodi:docname="DeploymentIcon-redo.svg"
   xml:space="preserve"
   xmlns:inkscape="http://www.inkscape.org/namespaces/inkscape"
   xmlns:sodipodi="http://sodipodi.sourceforge.net/DTD/sodipodi-0.dtd"
   xmlns="http://www.w3.org/2000/svg"
   xmlns:svg="http://www.w3.org/2000/svg"><sodipodi:namedview
     id="namedview1"
     pagecolor="#ffffff"
     bordercolor="#000000"
     borderopacity="0.25"
     inkscape:showpageshadow="2"
     inkscape:pageopacity="0.0"
     inkscape:pagecheckerboard="false"
     inkscape:deskcolor="#d1d1d1"
     inkscape:document-units="mm"
     showgrid="true"
     inkscape:zoom="12.050895"
     inkscape:cx="12.737643"
     inkscape:cy="12.862115"
     inkscape:window-width="1496"
     inkscape:window-height="837"
     inkscape:window-x="0"
     inkscape:window-y="34"
     inkscape:window-maximized="1"
     inkscape:current-layer="g7"
     showguides="true"><inkscape:grid
       id="grid1"
       units="px"
       originx="0"
       originy="0"
       spacingx="0.26458333"
       spacingy="0.26458333"
       empcolor="#0099e5"
       empopacity="0.30196078"
       color="#0099e5"
       opacity="0.14901961"
       empspacing="5"
       dotted="false"
       gridanglex="30"
       gridanglez="30"
       visible="true" /><sodipodi:guide
       position="8.9958329,7.4083333"
       orientation="0,-1"
       id="guide1"
       inkscape:locked="false" /><sodipodi:guide
       position="4.7624998,1.0583336"
       orientation="0,-1"
       id="guide2"
       inkscape:locked="false" /><sodipodi:guide
       position="1.0583333,8.2020832"
       orientation="1,0"
       id="guide3"
       inkscape:locked="false" /><sodipodi:guide
       position="7.408333,6.6145833"
       orientation="1,0"
       id="guide4"
       inkscape:locked="false" /></sodipodi:namedview><defs
     id="defs1" /><g
     style="fill:none"
     id="g7"
     transform="matrix(0.52778155,0,0,0.52803625,0.02216406,2.1892315e-6)"
     inkscape:label="1"><path
       id="path6"
       style="opacity:1;fill-rule:evenodd;stroke:#000000;stroke-width:1.00236;stroke-linecap:round;stroke-linejoin:round;stroke-dasharray:none;paint-order:fill markers stroke"
       d="m 10.285397,6.7018087 a 0.74021408,0.7035076 44.728005 0 1 -1.0211125,-0.025948 0.74021408,0.7035076 44.728005 0 1 -0.02596,-1.0206191 0.74021408,0.7035076 44.728005 0 1 1.0211115,0.025948 0.74021408,0.7035076 44.728005 0 1 0.02596,1.0206191 z M 5.3441108,8.009889 7.9296128,10.594145 M 6.3081371,6.8841056 9.0559395,9.6305825 M 9.8648345,3.3291241 12.612636,6.075601 M 6.3155781,10.931446 C 6.0820223,11.164888 5.5586662,11.303344 5.1636375,11.472397 4.7313309,11.657403 4.4286052,11.854957 4.2397362,11.666179 4.0468864,11.473421 4.3033123,11.197685 4.5054012,10.764701 4.6820796,10.386161 4.7784783,9.8512035 5.0066465,9.6231452 5.4957974,9.1342299 6.1853474,9.0307589 6.5467988,9.3920359 6.9082501,9.7533129 6.8047292,10.442532 6.3155781,10.931446 Z M 7.8779662,10.805174 C 9.0678475,10.105125 10.123791,9.1895485 11.083376,8.202895 11.759308,7.4257611 12.412613,6.6047402 12.867024,5.6765193 13.297507,4.6975479 13.437542,3.6206911 13.493568,2.5618126 m -3.252809,6.5670527 c -0.04572,0.5667138 -0.09145,1.1334267 -0.137174,1.7001417 -0.6808965,0.881169 -1.3617925,1.76234 -2.0426875,2.64351 C 7.9999785,12.58328 7.9390604,11.694041 7.8781419,10.804803 M 5.1329792,8.0615107 C 5.8324631,6.8717009 6.7504979,5.8188813 7.7345698,4.8569992 8.4757105,4.2018462 9.2583785,3.5682193 10.142571,3.1178616 11.196475,2.6645516 12.364577,2.6242933 13.492914,2.5623967 M 6.8100967,5.6998579 C 6.2431096,5.7455608 5.6761224,5.7912637 5.1091355,5.8369663 4.2275398,6.5175334 3.3459441,7.1981008 2.4643486,7.8786678 3.3540163,7.9395571 4.2436839,8.0004462 5.1333513,8.0613356" /></g></svg>
