<?xml version="1.0" encoding="UTF-8" standalone="no"?>
<!-- Created with Inkscape (http://www.inkscape.org/) -->

<svg
   width="32"
   height="32"
   viewBox="0 0 8.4666665 8.4666666"
   version="1.1"
   id="svg1"
   inkscape:version="1.4 (e7c3feb1, 2024-10-09)"
   sodipodi:docname="extension-redo.svg"
   xml:space="preserve"
   xmlns:inkscape="http://www.inkscape.org/namespaces/inkscape"
   xmlns:sodipodi="http://sodipodi.sourceforge.net/DTD/sodipodi-0.dtd"
   xmlns="http://www.w3.org/2000/svg"
   xmlns:svg="http://www.w3.org/2000/svg"><sodipodi:namedview
     id="namedview1"
     pagecolor="#ffffff"
     bordercolor="#000000"
     borderopacity="0.25"
     inkscape:showpageshadow="2"
     inkscape:pageopacity="0.0"
     inkscape:pagecheckerboard="false"
     inkscape:deskcolor="#d1d1d1"
     inkscape:document-units="mm"
     showgrid="true"
     inkscape:zoom="12.143847"
     inkscape:cx="8.7698736"
     inkscape:cy="20.545385"
     inkscape:window-width="1104"
     inkscape:window-height="748"
     inkscape:window-x="0"
     inkscape:window-y="34"
     inkscape:window-maximized="0"
     inkscape:current-layer="g7"
     showguides="true"><inkscape:grid
       id="grid1"
       units="px"
       originx="0"
       originy="0"
       spacingx="0.26458333"
       spacingy="0.26458333"
       empcolor="#0099e5"
       empopacity="0.30196078"
       color="#0099e5"
       opacity="0.14901961"
       empspacing="5"
       dotted="false"
       gridanglex="30"
       gridanglez="30"
       visible="true" /><sodipodi:guide
       position="8.9958329,7.4083333"
       orientation="0,-1"
       id="guide1"
       inkscape:locked="false" /><sodipodi:guide
       position="4.7624998,1.0583336"
       orientation="0,-1"
       id="guide2"
       inkscape:locked="false" /><sodipodi:guide
       position="1.0583333,8.2020832"
       orientation="1,0"
       id="guide3"
       inkscape:locked="false" /><sodipodi:guide
       position="7.408333,6.6145833"
       orientation="1,0"
       id="guide4"
       inkscape:locked="false" /></sodipodi:namedview><defs
     id="defs1" /><g
     style="fill:none"
     id="g7"
     transform="matrix(0.52778155,0,0,0.52803625,0.02216406,2.1892315e-6)"
     inkscape:label="1"><path
       rx="0"
       ry="0"
       d="m 7.5757234,2.5053974 c -0.8659454,0 -1.4767264,0.5264512 -1.4767264,1.1768164 -7.333e-4,0.428933 0.2192359,0.7552154 0.7200325,0.9619832 V 5.6428411 H 3.7988527 c -0.7222322,0 -1.2824203,0.5821759 -1.3036841,1.3036632 l -0.030796,1.0331055 c 0.909206,0.2969537 1.3337466,-0.4465304 1.7194258,-0.4465304 0.5836515,-7.332e-4 0.9194711,0.5873083 0.9194711,1.4539731 0,0.8666641 -0.3358196,1.5918195 -0.9194711,1.5918195 -0.3702811,-7.34e-4 -1.1629034,-1.1753512 -1.705494,-0.40767 l 0.016864,2.011953 c 0.00587,0.722221 0.5814519,1.303662 1.303684,1.303662 0.8857425,0.05426 2.8918614,0.126115 2.8918614,-0.286687 v -0.845402 c -0.5007962,-0.186237 -0.92607,-0.563113 -0.92607,-0.948785 -7.332e-4,-0.583644 0.8622791,-1.125493 1.7289577,-1.125493 0.8666785,0 1.6380371,0.541849 1.637304,1.125493 0,0.370273 -0.355617,0.735418 -0.8256177,0.926789 v 0.867398 c 0,0.364409 0.6606407,0.286687 1.1137771,0.286687 0.7222311,0 1.2178951,-0.581441 1.2178951,-1.303662 V 9.8295206 c 1.584511,-0.126847 0.88281,0.7266214 1.794948,0.7266214 0.911407,0 1.061718,-0.6496324 1.061718,-1.5155645 0,-0.8666648 -0.157644,-1.9334982 -1.061718,-1.9356978 -0.904805,-0.0022 -0.245632,0.9495183 -1.794948,0.9495183 V 6.71774 c 0,-0.7222206 -0.8791433,-1.0748989 -1.6013746,-1.0748989 H 8.3881427 V 4.6200008 C 8.8574104,4.406634 9.0297195,4.0935495 9.0304528,3.6822138 c 0,-0.6503652 -0.5880511,-1.1768164 -1.4547294,-1.1768164 z"
       style="fill:none;stroke:currentColor;stroke-width:1.00224;stroke-linejoin:round;stroke-miterlimit:4.4;stroke-dasharray:none;stroke-opacity:1"
       id="path2" /></g></svg>
