<?xml version="1.0" encoding="UTF-8" standalone="no"?>
<!-- Created with Inkscape (http://www.inkscape.org/) -->

<svg
   width="32"
   height="32"
   viewBox="0 0 8.4666665 8.4666666"
   version="1.1"
   id="svg1"
   inkscape:version="1.4 (e7c3feb1, 2024-10-09)"
   sodipodi:docname="eye-solid-redo.svg"
   xml:space="preserve"
   xmlns:inkscape="http://www.inkscape.org/namespaces/inkscape"
   xmlns:sodipodi="http://sodipodi.sourceforge.net/DTD/sodipodi-0.dtd"
   xmlns="http://www.w3.org/2000/svg"
   xmlns:svg="http://www.w3.org/2000/svg"><sodipodi:namedview
     id="namedview1"
     pagecolor="#ffffff"
     bordercolor="#000000"
     borderopacity="0.25"
     inkscape:showpageshadow="2"
     inkscape:pageopacity="0.0"
     inkscape:pagecheckerboard="false"
     inkscape:deskcolor="#d1d1d1"
     inkscape:document-units="mm"
     showgrid="true"
     inkscape:zoom="10.240728"
     inkscape:cx="-7.76312"
     inkscape:cy="23.435834"
     inkscape:window-width="1496"
     inkscape:window-height="833"
     inkscape:window-x="0"
     inkscape:window-y="34"
     inkscape:window-maximized="1"
     inkscape:current-layer="layer1"
     showguides="true"><inkscape:grid
       id="grid1"
       units="px"
       originx="0"
       originy="0"
       spacingx="0.26458333"
       spacingy="0.26458333"
       empcolor="#0099e5"
       empopacity="0.30196078"
       color="#0099e5"
       opacity="0.14901961"
       empspacing="5"
       dotted="false"
       gridanglex="30"
       gridanglez="30"
       visible="true" /><sodipodi:guide
       position="8.7312496,6.8791666"
       orientation="0,-1"
       id="guide1"
       inkscape:locked="false" /><sodipodi:guide
       position="10.583333,1.5875003"
       orientation="0,-1"
       id="guide2"
       inkscape:locked="false" /><sodipodi:guide
       position="0.52916664,9.2604165"
       orientation="1,0"
       id="guide3"
       inkscape:locked="false" /><sodipodi:guide
       position="7.9374996,8.7312499"
       orientation="1,0"
       id="guide4"
       inkscape:locked="false" /></sodipodi:namedview><defs
     id="defs1" /><g
     inkscape:label="Layer 1"
     inkscape:groupmode="layer"
     id="layer1"
     transform="translate(81.951821,59.266668)"><path
       d="m -77.719025,-57.414609 c -0.858973,0 -1.546771,0.391236 -2.047476,0.856813 -0.497526,0.461347 -0.830263,1.014171 -0.987594,1.393689 -0.0351,0.0837 -0.0351,0.177573 0,0.261543 0.157323,0.379536 0.490059,0.932315 0.987594,1.39369 0.500677,0.465666 1.188513,0.856813 2.047476,0.856813 0.858974,0 1.546773,-0.391237 2.047486,-0.856813 0.497527,-0.462428 0.830262,-1.014173 0.988656,-1.39369 0.0351,-0.08369 0.0351,-0.177572 0,-0.261543 -0.158403,-0.379536 -0.491138,-0.932315 -0.988656,-1.393689 -0.500678,-0.465667 -1.188521,-0.856813 -2.047486,-0.856813 z m -0.986324,2.644535 c 0.145621,0.544328 0.70588,0.867434 1.250171,0.721811 0.544329,-0.145622 0.867434,-0.705881 0.721812,-1.250172 -0.162916,-0.609164 -0.803243,-0.855159 -1.341917,-0.664082 -0.412899,0.146462 -0.807905,0.562268 -0.630066,1.192443 z"
       id="path1"
       style="fill:none;stroke:#000000;stroke-width:0.529119;stroke-dasharray:none;stroke-opacity:1"
       sodipodi:nodetypes="sccccsccccscccsc" /></g></svg>
