<?xml version="1.0" encoding="UTF-8" standalone="no"?>
<!-- Created with Inkscape (http://www.inkscape.org/) -->

<svg
   width="32"
   height="32"
   viewBox="0 0 8.4666665 8.4666666"
   version="1.1"
   id="svg1"
   inkscape:version="1.4 (e7c3feb1, 2024-10-09)"
   sodipodi:docname="file-pen-solid-redo.svg"
   xml:space="preserve"
   xmlns:inkscape="http://www.inkscape.org/namespaces/inkscape"
   xmlns:sodipodi="http://sodipodi.sourceforge.net/DTD/sodipodi-0.dtd"
   xmlns="http://www.w3.org/2000/svg"
   xmlns:svg="http://www.w3.org/2000/svg"><sodipodi:namedview
     id="namedview1"
     pagecolor="#ffffff"
     bordercolor="#000000"
     borderopacity="0.25"
     inkscape:showpageshadow="2"
     inkscape:pageopacity="0.0"
     inkscape:pagecheckerboard="false"
     inkscape:deskcolor="#d1d1d1"
     inkscape:document-units="mm"
     showgrid="true"
     inkscape:zoom="13.250945"
     inkscape:cx="15.734727"
     inkscape:cy="16.678056"
     inkscape:window-width="1496"
     inkscape:window-height="833"
     inkscape:window-x="0"
     inkscape:window-y="34"
     inkscape:window-maximized="0"
     inkscape:current-layer="g7"
     showguides="true"><inkscape:grid
       id="grid1"
       units="px"
       originx="0"
       originy="0"
       spacingx="0.26458333"
       spacingy="0.26458333"
       empcolor="#0099e5"
       empopacity="0.30196078"
       color="#0099e5"
       opacity="0.14901961"
       empspacing="5"
       dotted="false"
       gridanglex="30"
       gridanglez="30"
       visible="true" /><sodipodi:guide
       position="8.9958329,7.4083333"
       orientation="0,-1"
       id="guide1"
       inkscape:locked="false" /><sodipodi:guide
       position="4.7624998,1.0583336"
       orientation="0,-1"
       id="guide2"
       inkscape:locked="false" /><sodipodi:guide
       position="1.0583333,8.2020832"
       orientation="1,0"
       id="guide3"
       inkscape:locked="false" /><sodipodi:guide
       position="7.408333,6.6145833"
       orientation="1,0"
       id="guide4"
       inkscape:locked="false" /></sodipodi:namedview><defs
     id="defs1"><clipPath
       id="clip0_48_53">
        <rect
   width="10"
   height="15"
   fill="white"
   transform="matrix(-1 0 0 1 13 0)"
   id="rect5" />
      </clipPath><clipPath
       id="clip0_48_52">
        <rect
   width="12.16"
   height="16"
   fill="white"
   transform="matrix(-1 0 0 1 14.16 0)"
   id="rect7" />
      </clipPath></defs><g
     style="fill:none"
     id="g7"
     transform="matrix(0.52778155,0,0,0.52803625,0.02216406,2.1892315e-6)"
     inkscape:label="1"><path
       d="m -58.69552,-88.188395 c 0,-17.687785 14.38766,-32.068505 32.083981,-32.068505 h 80.209951 v 64.137011 c 0,8.868946 7.16877,16.034252 16.04199,16.034252 H 133.80836 V 104.22263 c 0,17.68779 -14.38766,32.06851 -32.08398,32.06851 H -26.611539 c -17.696321,0 -32.083981,-14.38072 -32.083981,-32.06851 V 48.102754 H 28.582932 L 9.0317619,67.644494 c -4.71234,4.71007 -4.71234,12.32634 0,16.98629 4.7123301,4.65996 12.3322801,4.71006 16.9944801,0 l 40.10498,-40.08563 c 4.71233,-4.71006 4.71233,-12.32633 0,-16.98629 l -40.10498,-40.08563 c -4.71233,-4.71006 -12.33228,-4.71006 -16.9944801,0 -4.66221,4.7100603 -4.71234,12.32633028 0,16.9862903 l 19.5511701,19.5417397 -87.278452,0.0501 z m 0,112.239769 v 24.05138 h -52.13647 c -6.66745,0 -12.03149,-5.36145 -12.03149,-12.02569 0,-6.66424 5.36404,-12.02569 12.03149,-12.02569 z M 133.80836,-56.119889 H 69.640402 V -120.2569 Z"
       id="path1"
       style="stroke-width:0.501191" /><g
       id="g4"
       style="stroke-width:0.53029;stroke-dasharray:none"
       transform="matrix(-1.548225,0,0,1.554986,12.542915,1.4426699)" /><path
       id="path1-5"
       style="fill:none;stroke:#000000;stroke-width:1.00215;stroke-linecap:round;stroke-linejoin:round;stroke-dasharray:none;stroke-opacity:1"
       d="m 11.982409,7.6278205 -0.492864,0.4918158 1.323818,1.3209924 0.492866,-0.4918156 c 0.254581,-0.2540365 0.254581,-0.665576 0,-0.919612 L 12.90501,7.6278205 c -0.254583,-0.2540363 -0.666998,-0.2540363 -0.92158,0 z M 11.489575,8.1191756 8.7082276,10.903857 C 8.6023184,11.00954 8.524928,11.140619 8.48216,11.283898 l -0.360488,1.222425 c -0.025462,0.08637 -0.00217,0.178845 0.061099,0.241846 0.063137,0.06301 0.1558042,0.08637 0.2413447,0.06198 l 1.2250399,-0.359722 c 0.1435858,-0.0427 0.2749472,-0.119898 0.3808524,-0.225582 l 2.78307,-2.7846568 M 9.5614485,5.6965481 6.965383,5.7052881 6.956683,3.2378801 M 9.5980839,8.0483745 V 4.8364336 C 9.0213801,4.2786825 8.4357642,3.7466684 7.8357809,3.2146619 H 2.4643271 v 9.5414871 h 4.4447706"
       sodipodi:nodetypes="cccscccccccccccccccccccccc" /></g></svg>
