<?xml version="1.0" encoding="UTF-8" standalone="no"?>
<!-- Created with Inkscape (http://www.inkscape.org/) -->

<svg
   width="32"
   height="32"
   viewBox="0 0 8.4666665 8.4666666"
   version="1.1"
   id="svg1"
   inkscape:version="1.4 (e7c3feb100, 2024-10-09)"
   sodipodi:docname="folder-open-solid-redo.svg"
   xml:space="preserve"
   xmlns:inkscape="http://www.inkscape.org/namespaces/inkscape"
   xmlns:sodipodi="http://sodipodi.sourceforge.net/DTD/sodipodi-0.dtd"
   xmlns="http://www.w3.org/2000/svg"
   xmlns:svg="http://www.w3.org/2000/svg"><sodipodi:namedview
     id="namedview1"
     pagecolor="#ffffff"
     bordercolor="#000000"
     borderopacity="0.25"
     inkscape:showpageshadow="2"
     inkscape:pageopacity="0.0"
     inkscape:pagecheckerboard="false"
     inkscape:deskcolor="#d1d1d1"
     inkscape:document-units="mm"
     showgrid="true"
     inkscape:zoom="33.589303"
     inkscape:cx="18.026572"
     inkscape:cy="16.121204"
     inkscape:window-width="1920"
     inkscape:window-height="1163"
     inkscape:window-x="0"
     inkscape:window-y="0"
     inkscape:window-maximized="1"
     inkscape:current-layer="layer1"
     showguides="true"><inkscape:grid
       id="grid1"
       units="px"
       originx="0"
       originy="0"
       spacingx="0.26458333"
       spacingy="0.26458333"
       empcolor="#0099e5"
       empopacity="0.30196078"
       color="#0099e5"
       opacity="0.14901961"
       empspacing="5"
       dotted="false"
       gridanglex="30"
       gridanglez="30"
       visible="true" /><sodipodi:guide
       position="8.7312496,6.8791666"
       orientation="0,-1"
       id="guide1"
       inkscape:locked="false" /><sodipodi:guide
       position="10.583333,1.5875003"
       orientation="0,-1"
       id="guide2"
       inkscape:locked="false" /><sodipodi:guide
       position="0.52916664,9.2604165"
       orientation="1,0"
       id="guide3"
       inkscape:locked="false" /><sodipodi:guide
       position="7.9374996,8.7312499"
       orientation="1,0"
       id="guide4"
       inkscape:locked="false" /></sodipodi:namedview><defs
     id="defs1" /><g
     inkscape:label="Layer 1"
     inkscape:groupmode="layer"
     id="layer1"><path
       id="path1"
       style="fill:none;fill-opacity:1;stroke:#000000;stroke-width:0.529141;stroke-dasharray:none;stroke-opacity:1"
       d="M 2.1907876,4.0621801 C 2.2599894,3.956937 2.3852703,3.8931527 2.5212892,3.8931527 H 7.293877 c 0.1372121,0 0.2624928,0.064847 0.3305019,0.1711536 0.06801,0.1063063 0.06801,0.236 -0.0012,0.3412433 L 6.2868498,6.4466321 C 6.2188405,6.5508125 6.0935603,6.6145964 5.9575418,6.6145964 H 1.1849536 c -0.1372119,0 -0.26249215,-0.064847 -0.33050172,-0.171153 -0.0680091,-0.1063068 -0.0680091,-0.2360001 0.001205,-0.3412437 L 2.1919825,4.0611169 Z M 0.79373609,6.2747254 0.80315809,2.5324311 C 0.80410221,2.1571706 1.1455908,1.8520702 1.5667714,1.8520702 h 1.4019479 c 0.202835,0 0.397318,0.071226 0.5404955,0.1987931 L 3.8253989,2.332575 c 0.1431778,0.1275678 0.3376607,0.1987931 0.5404956,0.1987931 l 1.4007547,0.00107 c 0.4211806,0 0.7636141,0.3050989 0.7636141,0.6803606 l 0,0.680354"
       sodipodi:nodetypes="ccssssccccsssccsssccc" /></g></svg>
