<?xml version="1.0" encoding="UTF-8" standalone="no"?>
<!-- Created with Inkscape (http://www.inkscape.org/) -->

<svg
   width="32"
   height="32"
   viewBox="0 0 8.4666665 8.4666666"
   version="1.1"
   id="svg1"
   inkscape:version="1.4 (e7c3feb1, 2024-10-09)"
   sodipodi:docname="github-brands-solid-redo.svg"
   xml:space="preserve"
   xmlns:inkscape="http://www.inkscape.org/namespaces/inkscape"
   xmlns:sodipodi="http://sodipodi.sourceforge.net/DTD/sodipodi-0.dtd"
   xmlns="http://www.w3.org/2000/svg"
   xmlns:svg="http://www.w3.org/2000/svg"><sodipodi:namedview
     id="namedview1"
     pagecolor="#ffffff"
     bordercolor="#000000"
     borderopacity="0.25"
     inkscape:showpageshadow="2"
     inkscape:pageopacity="0.0"
     inkscape:pagecheckerboard="false"
     inkscape:deskcolor="#d1d1d1"
     inkscape:document-units="mm"
     showgrid="true"
     inkscape:zoom="12.148611"
     inkscape:cx="12.552876"
     inkscape:cy="21.483938"
     inkscape:window-width="1496"
     inkscape:window-height="835"
     inkscape:window-x="0"
     inkscape:window-y="34"
     inkscape:window-maximized="1"
     inkscape:current-layer="layer1"
     showguides="true"><inkscape:grid
       id="grid1"
       units="px"
       originx="0"
       originy="0"
       spacingx="0.26458333"
       spacingy="0.26458333"
       empcolor="#0099e5"
       empopacity="0.30196078"
       color="#0099e5"
       opacity="0.14901961"
       empspacing="5"
       dotted="false"
       gridanglex="30"
       gridanglez="30"
       visible="true" /><sodipodi:guide
       position="11.377083,7.4083333"
       orientation="0,-1"
       id="guide1"
       inkscape:locked="false" /><sodipodi:guide
       position="9.7895829,1.0583336"
       orientation="0,-1"
       id="guide2"
       inkscape:locked="false" /><sodipodi:guide
       position="1.0583333,3.4395835"
       orientation="1,0"
       id="guide3"
       inkscape:locked="false" /><sodipodi:guide
       position="7.408333,-0.26458294"
       orientation="1,0"
       id="guide4"
       inkscape:locked="false" /></sodipodi:namedview><defs
     id="defs1" /><g
     inkscape:label="Layer 1"
     inkscape:groupmode="layer"
     id="layer1"><path
       d="m 3.1822113,6.1229185 c 0,0.0256 -0.02945,0.04609 -0.06657,0.04609 -0.04225,0.0038 -0.07169,-0.01664 -0.07169,-0.04609 0,-0.0256 0.02945,-0.04609 0.06657,-0.04609 0.03841,-0.0038 0.07169,0.01664 0.07169,0.04609 z m -0.398155,-0.05761 c -0.009,0.0256 0.01664,0.05505 0.05505,0.06273 0.03329,0.0128 0.07169,0 0.07937,-0.02561 0.0077,-0.0256 -0.01664,-0.05505 -0.05505,-0.06657 -0.03329,-0.009 -0.07041,0.0038 -0.07937,0.02945 z m 0.565867,-0.02176 c -0.03713,0.009 -0.06273,0.03329 -0.05889,0.06273 0.0038,0.0256 0.03713,0.04225 0.07553,0.03329 0.03713,-0.009 0.06273,-0.03329 0.05889,-0.05889 -0.0038,-0.02432 -0.03841,-0.04097 -0.07553,-0.03713 z m 0.842399,-4.905887 c -1.775695,0 -3.134032,1.348095 -3.134032,3.12379 0,1.419788 0.893609,2.634738 2.17001,3.062339 0.163871,0.02944 0.221482,-0.07169 0.221482,-0.15491 0,-0.07937 -0.0038,-0.517217 -0.0038,-0.786068 0,0 -0.896169,0.192036 -1.084365,-0.381512 0,0 -0.145947,-0.37255 -0.355907,-0.468569 0,0 -0.293175,-0.200998 0.02048,-0.197157 0,0 0.31878,0.0256 0.494173,0.330303 0.280373,0.494173 0.750222,0.352066 0.933297,0.26757 0.02945,-0.204839 0.112661,-0.346945 0.204838,-0.431441 -0.715655,-0.07937 -1.437711,-0.183075 -1.437711,-1.414668 0,-0.352066 0.0973,-0.52874 0.302137,-0.754062 -0.03329,-0.08322 -0.142107,-0.426321 0.03329,-0.869284 0.267571,-0.08322 0.883367,0.345665 0.883367,0.345665 0.256048,-0.07169 0.5313,-0.108821 0.803992,-0.108821 0.272692,0 0.547944,0.03713 0.803992,0.108821 0,0 0.615796,-0.430161 0.883367,-0.345665 0.175393,0.444244 0.06657,0.786068 0.03329,0.869284 0.204839,0.226603 0.330303,0.403276 0.330303,0.754062 0,1.235434 -0.754063,1.334012 -1.469718,1.414668 0.117782,0.101139 0.217641,0.293175 0.217641,0.594032 0,0.431441 -0.0038,0.965302 -0.0038,1.070282 0,0.08322 0.05889,0.184355 0.221482,0.154909 1.280242,-0.42504 2.148246,-1.63999 2.148246,-3.059778 0,-1.775695 -1.440272,-3.12379 -3.215967,-3.12379 z m -1.889637,4.415554 c -0.01664,0.0128 -0.0128,0.04225 0.009,0.06657 0.02048,0.02048 0.04993,0.02945 0.06657,0.0128 0.01664,-0.0128 0.0128,-0.04225 -0.009,-0.06657 -0.02048,-0.02048 -0.04993,-0.02945 -0.06657,-0.0128 z m -0.138266,-0.103699 c -0.009,0.01664 0.0038,0.03713 0.02945,0.04993 0.02048,0.0128 0.04609,0.009 0.05505,-0.009 0.009,-0.01664 -0.0038,-0.03713 -0.02945,-0.04993 -0.0256,-0.0077 -0.04609,-0.0038 -0.05505,0.009 z m 0.414798,0.455766 c -0.02048,0.01664 -0.0128,0.05505 0.01664,0.07937 0.02945,0.02945 0.06657,0.03329 0.08322,0.0128 0.01664,-0.01664 0.009,-0.05505 -0.01664,-0.07937 -0.02817,-0.02945 -0.06657,-0.03329 -0.08322,-0.0128 z m -0.145947,-0.188196 c -0.02048,0.0128 -0.02048,0.04609 0,0.07553 0.02048,0.02945 0.05505,0.04225 0.07169,0.02945 0.02048,-0.01664 0.02048,-0.04993 0,-0.07937 -0.01792,-0.02945 -0.05121,-0.04225 -0.07169,-0.0256 z"
       id="path1"
       style="fill:#000000;fill-opacity:1;stroke-width:0.0128024" /></g></svg>
