<?xml version="1.0" encoding="UTF-8" standalone="no"?>
<!-- Created with Inkscape (http://www.inkscape.org/) -->

<svg
   width="32"
   height="32"
   viewBox="0 0 8.4666665 8.4666666"
   version="1.1"
   id="svg1"
   inkscape:version="1.4 (e7c3feb1, 2024-10-09)"
   sodipodi:docname="key-icon-redo.svg"
   xml:space="preserve"
   xmlns:inkscape="http://www.inkscape.org/namespaces/inkscape"
   xmlns:sodipodi="http://sodipodi.sourceforge.net/DTD/sodipodi-0.dtd"
   xmlns="http://www.w3.org/2000/svg"
   xmlns:svg="http://www.w3.org/2000/svg"><sodipodi:namedview
     id="namedview1"
     pagecolor="#ffffff"
     bordercolor="#000000"
     borderopacity="0.25"
     inkscape:showpageshadow="2"
     inkscape:pageopacity="0.0"
     inkscape:pagecheckerboard="false"
     inkscape:deskcolor="#d1d1d1"
     inkscape:document-units="mm"
     showgrid="true"
     inkscape:zoom="17.036726"
     inkscape:cx="9.1273403"
     inkscape:cy="8.3642829"
     inkscape:window-width="1496"
     inkscape:window-height="816"
     inkscape:window-x="0"
     inkscape:window-y="34"
     inkscape:window-maximized="0"
     inkscape:current-layer="g2"
     showguides="true"><inkscape:grid
       id="grid1"
       units="px"
       originx="0"
       originy="0"
       spacingx="0.26458333"
       spacingy="0.26458333"
       empcolor="#0099e5"
       empopacity="0.30196078"
       color="#0099e5"
       opacity="0.14901961"
       empspacing="5"
       dotted="false"
       gridanglex="30"
       gridanglez="30"
       visible="true" /><sodipodi:guide
       position="8.9958329,7.4083333"
       orientation="0,-1"
       id="guide1"
       inkscape:locked="false" /><sodipodi:guide
       position="4.7624998,1.0583336"
       orientation="0,-1"
       id="guide2"
       inkscape:locked="false" /><sodipodi:guide
       position="1.0583333,8.2020832"
       orientation="1,0"
       id="guide3"
       inkscape:locked="false" /><sodipodi:guide
       position="7.408333,6.6145833"
       orientation="1,0"
       id="guide4"
       inkscape:locked="false" /></sodipodi:namedview><defs
     id="defs1" /><g
     inkscape:label="Layer 1"
     inkscape:groupmode="layer"
     id="layer1"><g
       style="fill:none"
       id="g4"
       transform="matrix(0.08318021,0,0,0.08318021,151.11885,-37.367492)"><g
         id="shape-eb114dc7-828b-8034-8002-5a227f08ae11"><g
           class="fills"
           id="fills-eb114dc7-828b-8034-8002-5a227f08ae11"><path
             rx="0"
             ry="0"
             d="m -1755.063,513.125 c 13.29,0 24.063,-10.773 24.063,-24.062 0,-13.29 -10.773,-24.063 -24.063,-24.063 -13.289,0 -24.062,10.773 -24.062,24.063 0,2.556 0.396,5.031 1.135,7.341 l -22.053,22.053 c -0.615,0.615 -0.957,1.449 -0.957,2.324 v 10.938 c 0,1.818 1.463,3.281 3.281,3.281 h 10.938 c 1.818,0 3.281,-1.463 3.281,-3.281 v -5.469 h 5.469 c 1.818,0 3.281,-1.463 3.281,-3.281 V 517.5 h 5.469 c 0.875,0 1.709,-0.342 2.324,-0.957 l 4.553,-4.553 c 2.31,0.739 4.785,1.135 7.341,1.135 z m 5.469,-35 c 3.021,0 5.469,2.448 5.469,5.469 0,3.02 -2.448,5.469 -5.469,5.469 -3.02,0 -5.469,-2.449 -5.469,-5.469 0,-3.021 2.449,-5.469 5.469,-5.469 z"
             id="path1" /></g><g
           id="strokes-eb114dc7-828b-8034-8002-5a227f08ae11"
           class="strokes"><g
             class="stroke-shape"
             id="g2"><path
               rx="0"
               ry="0"
               d="m -1754.9382,513.24897 c 13.2861,0 24.0558,-10.76972 24.0558,-24.05468 0,-13.28595 -10.7697,-24.05568 -24.0558,-24.05568 -13.285,0 -24.0546,10.76973 -24.0546,24.05568 0,2.55522 0.3959,5.02947 1.1346,7.33877 l -22.0463,22.04628 c -0.6148,0.61482 -0.9567,1.44857 -0.9567,2.32331 v 10.93467 c 0,1.81743 1.4626,3.28 3.28,3.28 h 10.9348 c 1.8173,0 3.28,-1.46257 3.28,-3.28 v -5.46734 h 5.4673 c 1.8174,0 3.28,-1.46256 3.28,-3.28 v -5.46733 h 5.4673 c 0.8746,0 1.7085,-0.34192 2.3233,-0.95672 l 4.5515,-4.55161 c 2.3094,0.73877 4.7837,1.13465 7.3388,1.13465 z m 5.4673,-34.98936 c 3.0201,0 5.4675,2.44727 5.4675,5.46735 0,3.01908 -2.4474,5.46733 -5.4675,5.46733 -3.019,0 -5.4673,-2.44825 -5.4673,-5.46733 0,-3.02008 2.4483,-5.46735 5.4673,-5.46735 z"
               style="fill:none;stroke:#000000;stroke-width:6.36168948;stroke-dasharray:none;stroke-opacity:1"
               id="path2" /></g></g></g></g></g></svg>
