<?xml version="1.0" encoding="UTF-8" standalone="no"?>
<!-- Created with Inkscape (http://www.inkscape.org/) -->

<svg
   width="32"
   height="32"
   viewBox="0 0 8.4666665 8.4666666"
   version="1.1"
   id="svg1"
   inkscape:version="1.4 (e7c3feb1, 2024-10-09)"
   sodipodi:docname="layer-group-solid-redo.svg"
   xml:space="preserve"
   xmlns:inkscape="http://www.inkscape.org/namespaces/inkscape"
   xmlns:sodipodi="http://sodipodi.sourceforge.net/DTD/sodipodi-0.dtd"
   xmlns="http://www.w3.org/2000/svg"
   xmlns:svg="http://www.w3.org/2000/svg"><sodipodi:namedview
     id="namedview1"
     pagecolor="#ffffff"
     bordercolor="#000000"
     borderopacity="0.25"
     inkscape:showpageshadow="2"
     inkscape:pageopacity="0.0"
     inkscape:pagecheckerboard="false"
     inkscape:deskcolor="#d1d1d1"
     inkscape:document-units="mm"
     showgrid="true"
     inkscape:zoom="12.864767"
     inkscape:cx="7.0347172"
     inkscape:cy="15.7018"
     inkscape:window-width="1496"
     inkscape:window-height="835"
     inkscape:window-x="0"
     inkscape:window-y="34"
     inkscape:window-maximized="1"
     inkscape:current-layer="g7"
     showguides="true"><inkscape:grid
       id="grid1"
       units="px"
       originx="0"
       originy="0"
       spacingx="0.26458333"
       spacingy="0.26458333"
       empcolor="#0099e5"
       empopacity="0.30196078"
       color="#0099e5"
       opacity="0.14901961"
       empspacing="5"
       dotted="false"
       gridanglex="30"
       gridanglez="30"
       visible="true" /><sodipodi:guide
       position="8.9958329,7.4083333"
       orientation="0,-1"
       id="guide1"
       inkscape:locked="false" /><sodipodi:guide
       position="4.7624998,1.0583336"
       orientation="0,-1"
       id="guide2"
       inkscape:locked="false" /><sodipodi:guide
       position="1.0583333,8.2020832"
       orientation="1,0"
       id="guide3"
       inkscape:locked="false" /><sodipodi:guide
       position="7.408333,6.6145833"
       orientation="1,0"
       id="guide4"
       inkscape:locked="false" /></sodipodi:namedview><defs
     id="defs1" /><g
     style="fill:none"
     id="g7"
     transform="matrix(0.52778155,0,0,0.52803625,0.02216406,2.1892315e-6)"
     inkscape:label="1"><path
       d="m -0.79396922,-129.17595 c 7.46956002,-3.45739 16.09213022,-3.45739 23.56168022,0 l 109.586849,50.608108 c 4.26115,1.954175 6.96824,6.213273 6.96824,10.923335 0,4.710061 -2.70709,8.96916 -6.96824,10.923334 L 22.767711,-6.1130645 c -7.46955,3.45739 -16.0921202,3.45739 -23.56168022,0 L -110.38081,-56.721173 c -4.26116,-2.004281 -6.96824,-6.26338 -6.96824,-10.923334 0,-4.659955 2.70708,-8.96916 6.96824,-10.923335 z M 105.68475,-26.757164 l 26.66981,12.32633 c 4.26115,1.95418 6.96824,6.2132795 6.96824,10.9233395 0,4.71006 -2.70709,8.96916 -6.96824,10.92333 L 22.767711,58.023946 c -7.46955,3.45739 -16.0921202,3.45739 -23.56168022,0 L -110.38081,7.4158355 c -4.26116,-2.00428 -6.96824,-6.26338 -6.96824,-10.92333 0,-4.65996 2.70708,-8.9691595 6.96824,-10.9233395 l 26.669806,-12.32633 76.1994548,35.1751395 c 11.73071,5.4115605 25.2661402,5.4115605 36.9968402,0 z m -76.199459,99.31215 76.199459,-35.17514 26.66981,12.32633 c 4.26115,1.95418 6.96824,6.21328 6.96824,10.92334 0,4.71006 -2.70709,8.96916 -6.96824,10.92333 L 22.767711,122.16096 c -7.46955,3.45739 -16.0921202,3.45739 -23.56168022,0 L -110.38081,71.552846 c -4.26116,-2.00428 -6.96824,-6.26338 -6.96824,-10.92333 0,-4.65996 2.70708,-8.96916 6.96824,-10.92334 l 26.669806,-12.32633 76.1994548,35.17514 c 11.73071,5.41156 25.2661402,5.41156 36.9968402,0 z"
       id="path1-1"
       style="stroke-width:0.501191" /><path
       id="rect1-1-4"
       style="fill:none;fill-rule:evenodd;stroke:#000000;stroke-width:1.00234;stroke-linecap:round;stroke-linejoin:round;stroke-dasharray:none;paint-order:fill markers stroke"
       d="M 10.64537,9.576726 13.290022,10.894085 8.0007196,13.528803 2.7114173,10.894085 5.3560684,9.576726 M 10.601932,6.8445644 13.246583,8.1619238 7.9572818,10.796642 2.6679789,8.1619235 5.3126301,6.8445645 M 2.6764764,5.2361843 7.9572815,2.505441 13.238087,5.2361846 7.9572819,7.9669279 Z" /></g></svg>
