<?xml version="1.0" encoding="UTF-8" standalone="no"?>
<!-- Created with Inkscape (http://www.inkscape.org/) -->

<svg
   width="32"
   height="32"
   viewBox="0 0 8.4666665 8.4666666"
   version="1.1"
   id="svg1"
   inkscape:version="1.4 (e7c3feb1, 2024-10-09)"
   sodipodi:docname="lightbulb-solid-redo.svg"
   xml:space="preserve"
   xmlns:inkscape="http://www.inkscape.org/namespaces/inkscape"
   xmlns:sodipodi="http://sodipodi.sourceforge.net/DTD/sodipodi-0.dtd"
   xmlns="http://www.w3.org/2000/svg"
   xmlns:svg="http://www.w3.org/2000/svg"><sodipodi:namedview
     id="namedview1"
     pagecolor="#ffffff"
     bordercolor="#000000"
     borderopacity="0.25"
     inkscape:showpageshadow="2"
     inkscape:pageopacity="0.0"
     inkscape:pagecheckerboard="false"
     inkscape:deskcolor="#d1d1d1"
     inkscape:document-units="mm"
     showgrid="true"
     inkscape:zoom="8.4971958"
     inkscape:cx="34.835022"
     inkscape:cy="22.713376"
     inkscape:window-width="1120"
     inkscape:window-height="753"
     inkscape:window-x="0"
     inkscape:window-y="34"
     inkscape:window-maximized="0"
     inkscape:current-layer="layer1"
     showguides="true"><inkscape:grid
       id="grid1"
       units="px"
       originx="0"
       originy="0"
       spacingx="0.26458333"
       spacingy="0.26458333"
       empcolor="#0099e5"
       empopacity="0.30196078"
       color="#0099e5"
       opacity="0.14901961"
       empspacing="5"
       dotted="false"
       gridanglex="30"
       gridanglez="30"
       visible="true" /><sodipodi:guide
       position="8.9958329,7.9374999"
       orientation="0,-1"
       id="guide1"
       inkscape:locked="false" /><sodipodi:guide
       position="9.5249996,0.52916701"
       orientation="0,-1"
       id="guide2"
       inkscape:locked="false" /><sodipodi:guide
       position="1.5874999,5.2916667"
       orientation="1,0"
       id="guide3"
       inkscape:locked="false" /><sodipodi:guide
       position="6.8791663,5.0270834"
       orientation="1,0"
       id="guide4"
       inkscape:locked="false" /></sodipodi:namedview><defs
     id="defs1" /><g
     inkscape:label="Layer 1"
     inkscape:groupmode="layer"
     id="layer1"><path
       id="path4"
       style="display:inline;fill:none;fill-rule:evenodd;stroke:#000000;stroke-width:0.52915;stroke-linecap:round;stroke-linejoin:miter;stroke-dasharray:none;stroke-opacity:1;paint-order:fill markers stroke"
       d="m 2.9635177,3.1260007 c 0,0 0.1094977,-1.2876919 1.3490108,-1.2570325 m 0.972534,3.9730719 C 5.4112697,5.422663 5.6728871,5.065075 5.9318752,4.7088017 v 0 C 6.0002362,4.6154617 6.0686001,4.5221202 6.1343331,4.4274643 6.3946359,4.052786 6.5471366,3.5992282 6.5471366,3.1088603 c 0,-1.2791654 -1.0359531,-2.31511846 -2.3138038,-2.31511846 -1.2778497,0 -2.3138028,1.03595306 -2.3138028,2.31380276 0,0.4903698 0.1525006,0.9452414 0.4128034,1.3186061 0.065727,0.094655 0.1340955,0.1879959 0.202458,0.2813372 v 0 c 0.2603027,0.3562724 0.5219201,0.7151751 0.6468137,1.1332374 0.7011452,0.00192 1.4023242,-0.00328 2.1034574,0.00132 z M 4.2333324,7.6729248 c 0.5326231,0 0.9640237,-0.4314006 0.9640237,-0.9640228 V 6.5160977 H 3.2693105 V 6.708902 c 0,0.5326222 0.4313997,0.9640228 0.9640219,0.9640228 z" /></g></svg>
