<?xml version="1.0" encoding="UTF-8" standalone="no"?>
<!-- Created with Inkscape (http://www.inkscape.org/) -->

<svg
   width="32"
   height="32"
   viewBox="0 0 8.4666665 8.4666666"
   version="1.1"
   id="svg1"
   inkscape:version="1.4 (e7c3feb1, 2024-10-09)"
   sodipodi:docname="linux-brands-solid-redo.svg"
   xml:space="preserve"
   xmlns:inkscape="http://www.inkscape.org/namespaces/inkscape"
   xmlns:sodipodi="http://sodipodi.sourceforge.net/DTD/sodipodi-0.dtd"
   xmlns="http://www.w3.org/2000/svg"
   xmlns:svg="http://www.w3.org/2000/svg"><sodipodi:namedview
     id="namedview1"
     pagecolor="#ffffff"
     bordercolor="#000000"
     borderopacity="0.25"
     inkscape:showpageshadow="2"
     inkscape:pageopacity="0.0"
     inkscape:pagecheckerboard="false"
     inkscape:deskcolor="#d1d1d1"
     inkscape:document-units="mm"
     showgrid="true"
     inkscape:zoom="13.267316"
     inkscape:cx="18.428746"
     inkscape:cy="17.335835"
     inkscape:window-width="1496"
     inkscape:window-height="835"
     inkscape:window-x="0"
     inkscape:window-y="34"
     inkscape:window-maximized="1"
     inkscape:current-layer="layer1"
     showguides="true"><inkscape:grid
       id="grid1"
       units="px"
       originx="0"
       originy="0"
       spacingx="0.26458333"
       spacingy="0.26458333"
       empcolor="#0099e5"
       empopacity="0.30196078"
       color="#0099e5"
       opacity="0.14901961"
       empspacing="5"
       dotted="false"
       gridanglex="30"
       gridanglez="30"
       visible="true" /><sodipodi:guide
       position="11.377083,7.4083333"
       orientation="0,-1"
       id="guide1"
       inkscape:locked="false" /><sodipodi:guide
       position="9.7895829,1.0583336"
       orientation="0,-1"
       id="guide2"
       inkscape:locked="false" /><sodipodi:guide
       position="1.0583333,3.4395835"
       orientation="1,0"
       id="guide3"
       inkscape:locked="false" /><sodipodi:guide
       position="7.408333,-0.26458294"
       orientation="1,0"
       id="guide4"
       inkscape:locked="false" /></sodipodi:namedview><defs
     id="defs1"><mask
       id="kubemask">
          <rect
   x="-0.5"
   y="-0.5"
   width="100"
   height="100"
   fill="white"
   id="rect1" />
          <path
   style="stroke-linejoin:round;stroke-miterlimit:10;fill-rule:evenodd;stroke-width:1.3004"
   d="M 7.7361204 -0.5002075 C 7.5931215 -0.5002075 7.3977944 -0.50757442 7.1715876 -0.45181897 L 7.1211829 -0.43770565 L 1.6613447 2.1934202 L 1.6694095 2.191404 C 1.2711709 2.376353 0.9665668 2.7422479 0.8609179 3.1853849 L 0.85890171 3.1874011 L -0.054431637 7.2056646 L -0.48387977 9.0524932 L -0.48589596 9.0807198 C -0.49578895 9.1637137 -0.4978879 9.2473027 -0.4959769 9.3307272 C -0.4959959 9.3524062 -0.4968219 9.3736302 -0.4959769 9.3952452 C -0.48354591 9.7130279 -0.38002545 10.022563 -0.19354864 10.282368 L -0.18548388 10.294465 L 3.5847884 14.957909 L 3.6029341 14.974039 C 3.6136371 14.984739 3.6262634 14.993861 3.6372093 15.004281 C 3.9201481 15.333013 4.3431468 15.524066 4.7824044 15.494215 L 10.726128 15.494215 L 10.734193 15.494215 C 11.172488 15.523995 11.594427 15.333705 11.877371 15.006298 C 11.889121 14.995148 11.902193 14.985509 11.913663 14.974039 L 11.933825 14.957909 L 15.702081 10.294465 L 15.710146 10.282368 C 15.919989 9.9900074 16.027052 9.6355262 16.01459 9.2762901 C 16.014429 9.2560891 16.013374 9.2359944 16.012574 9.2158045 C 16.010674 9.1707505 16.009909 9.1255485 16.004509 9.0807198 L 16.002493 9.0524932 L 15.573045 7.2076808 L 14.657695 3.1874011 L 14.655679 3.1853849 C 14.549949 2.7422513 14.24542 2.3763491 13.847187 2.191404 L 13.855252 2.1934202 L 8.395414 -0.43770565 L 8.3450093 -0.45181897 C 8.1188035 -0.50757392 7.9234764 -0.5002075 7.7804765 -0.5002075 C 7.7734965 -0.5002075 7.7654274 -0.50026779 7.7582985 -0.5002075 C 7.7512685 -0.5002661 7.7430064 -0.5002075 7.7361204 -0.5002075 z M 7.7582985 0.50183814 C 7.8471594 0.50426014 7.9234325 0.51726697 7.9619335 0.53611335 L 13.357254 3.1228831 C 13.521946 3.209856 13.638685 3.3444435 13.68186 3.4837808 L 13.671779 3.4495056 L 13.689925 3.4454732 L 15.008512 9.2238692 C 15.015312 9.2624632 15.016677 9.3013923 15.016577 9.3387919 C 15.007977 9.4697965 14.962737 9.5922999 14.887541 9.6976735 L 11.169689 14.296599 C 11.044767 14.405451 10.868868 14.483969 10.718063 14.494186 L 4.7985339 14.494186 C 4.647729 14.483966 4.4718295 14.405456 4.3469077 14.296599 L 0.62905623 9.6976735 C 0.55271531 9.5906921 0.50967336 9.4660486 0.50203636 9.3327434 C 0.50180836 9.3287634 0.50220036 9.3246432 0.50203636 9.3206462 C 0.50285936 9.2889893 0.50439812 9.2563652 0.51010112 9.2238692 L 1.8286883 3.4454732 L 1.8448178 3.4495056 L 1.8347369 3.4837808 C 1.8779119 3.3444459 1.9946504 3.2098559 2.1593432 3.1228831 L 7.5546634 0.53611335 L 7.5566796 0.53611335 C 7.5951276 0.51729237 7.6695995 0.50429264 7.7582985 0.50183814 z M 7.699829 1.7619559 C 7.6208916 1.7733934 7.5440482 1.8189435 7.4780483 1.8849434 C 7.4070483 1.9559433 7.3732065 2.0449508 7.3732065 2.1349508 L 7.3732065 2.223663 C 7.3732065 2.293663 7.3894817 2.3633629 7.4074817 2.4353628 C 7.4254816 2.4703628 7.4256274 2.5072209 7.4256274 2.5422208 L 7.4256274 2.5603665 C 7.4606273 2.7553663 7.4619188 2.9502071 7.4619188 3.1632068 C 7.4439188 3.2162068 7.4262064 3.2683401 7.3732065 3.30434 L 7.3732065 3.3406314 L 7.3550608 3.4817646 C 7.159061 3.4987646 6.964204 3.5354769 6.7502042 3.5704769 C 5.9172051 3.7484767 5.1536878 4.1904496 4.5686884 4.812449 L 4.4638466 4.7418824 L 4.4457009 4.7418824 C 4.4287009 4.7418824 4.4101343 4.7580119 4.3751343 4.7580119 C 4.3391343 4.7580119 4.3032763 4.7417367 4.2682763 4.7237367 C 4.1082765 4.5997368 3.9487147 4.4584665 3.8247149 4.3164666 C 3.8077149 4.2814667 3.7711483 4.2629 3.7541483 4.2459 C 3.7011483 4.1919001 3.666015 4.1396211 3.6130151 4.0866211 C 3.5950151 4.0696212 3.5785942 4.0683297 3.5605942 4.0503297 L 3.5424485 4.032184 C 3.4724486 3.9791841 3.3834572 3.9454879 3.2944573 3.9454879 C 3.1884574 3.9454879 3.0974499 3.9794755 3.0444499 4.0684754 C 2.9384501 4.2274753 2.9730167 4.4404579 3.1150165 4.5644578 C 3.1320165 4.5644578 3.1331622 4.5826035 3.1331622 4.5826035 C 3.1331622 4.5826035 3.1685832 4.6188949 3.1855831 4.6188949 C 3.2385831 4.6538948 3.3091535 4.6887367 3.3811534 4.7237367 C 3.4161534 4.7417367 3.4530114 4.7581576 3.4880114 4.7761576 C 3.6660112 4.8821575 3.8429939 4.9900069 3.9839937 5.1310067 C 4.0165555 5.162664 4.045984 5.2235536 4.0384308 5.2741561 L 4.1432726 5.3789979 C 4.1252727 5.4139979 4.1088517 5.4327102 4.0908517 5.4677102 C 3.5408523 6.3377093 3.3108659 7.3670873 3.4698657 8.3790863 L 3.3287325 8.4133615 C 3.3287325 8.4313614 3.3105868 8.4315072 3.3105868 8.4315072 C 3.2925868 8.4845071 3.2385831 8.5205109 3.1855831 8.5565108 C 2.9905833 8.6095108 2.7957426 8.6433527 2.5827428 8.6613526 C 2.5467428 8.6613526 2.512901 8.6624984 2.477901 8.6794983 C 2.4069011 8.6794983 2.3341688 8.697644 2.2621688 8.697644 C 2.2451689 8.697644 2.2276022 8.7157897 2.1916023 8.7157897 C 2.1746023 8.7157897 2.175327 8.7149192 2.157327 8.7319192 C 1.9613272 8.7679192 1.8380445 8.9451895 1.8730445 9.1391893 C 1.9080444 9.2981891 2.0688938 9.4071966 2.2278936 9.3891967 C 2.2628936 9.3891967 2.281606 9.3890509 2.3166059 9.371051 C 2.3346059 9.371051 2.3347516 9.3719214 2.3347516 9.3549215 C 2.3347516 9.3369215 2.3873182 9.3549215 2.4053182 9.3549215 C 2.4753182 9.3369215 2.5468886 9.3003387 2.6008885 9.2823387 C 2.6368885 9.2643387 2.6707303 9.2480635 2.7057303 9.2480635 L 2.723876 9.2480635 C 2.9198758 9.1770635 3.097587 9.1247845 3.3105868 9.0887846 L 3.3287325 9.0887846 C 3.3817325 9.0887846 3.4348657 9.1062055 3.4698657 9.1412055 C 3.4878657 9.1412055 3.4859952 9.1593512 3.4859952 9.1593512 L 3.6452741 9.1412055 C 3.9112738 9.9572047 4.4089628 10.68588 5.1009621 11.21788 C 5.259962 11.340879 5.402799 11.448437 5.5787988 11.536437 L 5.4900865 11.661441 C 5.4900865 11.678441 5.5082322 11.67757 5.5082322 11.67757 C 5.5432322 11.73057 5.5443779 11.802011 5.5263779 11.857011 C 5.456378 12.035011 5.3480952 12.210139 5.2420953 12.371139 L 5.2420953 12.389285 C 5.2250953 12.425285 5.2075287 12.441997 5.1715287 12.477997 C 5.1365288 12.512997 5.1015412 12.583422 5.0485412 12.655422 C 5.0305412 12.673422 5.0302498 12.691859 5.0122498 12.709859 C 5.0122498 12.709859 5.0111041 12.728005 4.9941041 12.728005 C 4.9051042 12.906004 4.9762375 13.117841 5.1352373 13.205841 C 5.1702373 13.223841 5.225241 13.240117 5.260241 13.240117 C 5.4012409 13.240117 5.5259445 13.1514 5.5969445 13.026401 C 5.5969445 13.026401 5.5970902 13.008255 5.6150902 13.008255 C 5.6150902 12.991255 5.6313654 12.973834 5.6493654 12.955834 C 5.6673654 12.885834 5.7039482 12.832264 5.7219482 12.760264 L 5.7562234 12.655422 C 5.8092233 12.459422 5.8970689 12.283002 5.9860688 12.105002 C 6.0220688 12.052002 6.0762183 12.016144 6.1292182 11.998144 C 6.1462182 11.998144 6.1453477 11.997999 6.1453477 11.979999 L 6.2179305 11.838866 C 6.71393 12.034865 7.2293152 12.123148 7.7603146 12.123148 C 8.0803143 12.123148 8.3980045 12.087144 8.7180041 11.998144 C 8.9130039 11.963144 9.1085694 11.893882 9.2865693 11.840882 L 9.3571359 11.963869 C 9.3741358 11.963869 9.3752816 11.964015 9.3752816 11.982015 C 9.4282815 11.999015 9.4804148 12.035873 9.5164147 12.088873 C 9.6044147 12.266873 9.6952765 12.441276 9.7482764 12.637276 L 9.7482764 12.655422 L 9.7825516 12.76228 C 9.8005516 12.83328 9.8181182 12.90285 9.8531182 12.95785 C 9.8711182 12.97485 9.8724096 12.992271 9.8894096 13.010271 C 9.8894096 13.010271 9.8895553 13.028417 9.9075553 13.028417 C 9.9785552 13.152417 10.103259 13.242133 10.244259 13.242133 C 10.297259 13.242133 10.332392 13.223841 10.385392 13.205841 C 10.455392 13.170841 10.526671 13.099271 10.544671 13.010271 C 10.561671 12.921271 10.561525 12.833134 10.526525 12.744134 C 10.526525 12.727134 10.508379 12.728005 10.508379 12.728005 C 10.508379 12.710005 10.492104 12.690568 10.474104 12.673568 C 10.439104 12.602568 10.402101 12.549127 10.349101 12.494127 C 10.332101 12.459127 10.31555 12.442431 10.28055 12.407431 L 10.28055 12.371139 C 10.15655 12.212139 10.065251 12.035011 9.9942514 11.857011 C 9.9772514 11.803011 9.9773971 11.73257 10.012397 11.67757 C 10.012397 11.660571 10.030543 11.661441 10.030543 11.661441 L 9.9781219 11.518292 C 10.883121 10.968292 11.575517 10.118929 11.895517 9.1069303 L 12.03665 9.1230598 C 12.05465 9.1230598 12.054796 9.1069303 12.054796 9.1069303 C 12.089796 9.0719303 12.142929 9.0524932 12.195929 9.0524932 L 12.212059 9.0524932 C 12.408058 9.0874932 12.602624 9.1407721 12.780624 9.2117721 L 12.798769 9.2117721 C 12.833769 9.2297721 12.870627 9.2480635 12.905627 9.2480635 C 12.976627 9.2830634 13.029198 9.3187758 13.101198 9.3367758 C 13.118198 9.3367758 13.136764 9.3549215 13.171764 9.3549215 C 13.189764 9.3549215 13.18804 9.354051 13.20604 9.371051 C 13.241039 9.3890509 13.259752 9.3891967 13.294752 9.3891967 C 13.453752 9.3891967 13.596601 9.2821891 13.649601 9.1391893 C 13.634601 8.9471895 13.492059 8.8062268 13.333059 8.7702268 C 13.298059 8.7352268 13.261201 8.7359516 13.226201 8.7359516 C 13.155201 8.7179516 13.086502 8.7178059 13.014502 8.7178059 C 12.978502 8.7178059 12.943644 8.7176602 12.907644 8.6996602 L 12.889498 8.6996602 C 12.693498 8.6826602 12.482657 8.6458022 12.286658 8.5928022 C 12.233658 8.5758022 12.179654 8.5228147 12.161654 8.4698147 L 12.020521 8.4335233 C 12.091521 7.9185239 12.055954 7.387993 11.949954 6.8729935 C 11.825954 6.357994 11.612968 5.861305 11.328968 5.4173055 L 11.435826 5.3104475 L 11.435826 5.294318 C 11.435826 5.241318 11.453247 5.1700391 11.488247 5.1350391 C 11.647247 4.9930393 11.80823 4.8861898 11.984229 4.7801899 C 12.020229 4.76219 12.054071 4.744769 12.089071 4.7277691 C 12.160071 4.6917691 12.214658 4.655911 12.286658 4.6209111 C 12.304658 4.6029111 12.322079 4.6026197 12.339079 4.5846197 C 12.357078 4.5676197 12.339079 4.5683445 12.339079 4.5503445 C 12.498078 4.4263446 12.534645 4.213362 12.409645 4.0543621 C 12.356645 3.9833622 12.251654 3.9293584 12.161654 3.9293584 C 12.073654 3.9293584 11.982647 3.9650708 11.911647 4.0180707 L 11.895517 4.0362164 C 11.877517 4.0542164 11.85808 4.0704916 11.84108 4.0704916 C 11.78808 4.1234916 11.735947 4.1767706 11.699947 4.2297705 C 11.682947 4.2657705 11.64738 4.2823371 11.62938 4.3003371 C 11.50638 4.442337 11.344819 4.5854778 11.185819 4.6914777 C 11.150819 4.7094776 11.116977 4.7277691 11.080977 4.7277691 C 11.062977 4.7277691 11.026394 4.7276233 11.008394 4.7096234 L 10.992265 4.7096234 L 10.849115 4.7963195 C 10.708115 4.6553196 10.54957 4.5139197 10.40757 4.3729199 C 9.7505707 3.8579204 8.9340335 3.5385055 8.0990343 3.4495056 L 8.0829048 3.3063562 L 8.0829048 3.3245019 C 8.0299048 3.289502 8.0121925 3.2363687 7.9941925 3.1833687 C 7.9941925 2.9873689 7.9934677 2.7935282 8.0284677 2.5805284 L 8.0284677 2.5623827 C 8.0284677 2.5273827 8.0466134 2.4905247 8.0466134 2.4555247 C 8.0646134 2.3845248 8.0659048 2.3158249 8.0829048 2.2438249 L 8.0829048 2.1349508 C 8.1009048 1.9569509 7.9584763 1.7789559 7.7804765 1.7619559 C 7.7539765 1.7574559 7.7261415 1.7581434 7.699829 1.7619559 z M 4.0384308 5.2741561 L 4.0364146 5.2721399 L 4.0364146 5.2902856 C 4.0381337 5.2852238 4.0376333 5.2794992 4.0384308 5.2741561 z M 7.282478 4.3870332 L 7.1937657 6.161279 C 7.1937657 6.3202789 7.0523373 6.4455616 6.8913374 6.4455616 C 6.8383375 6.4455616 6.8032042 6.4272702 6.7502042 6.4092702 L 5.2783867 5.3628684 C 5.7373862 4.9198688 6.3056294 4.5995997 6.9276288 4.4575998 L 7.282478 4.3870332 z M 8.1333095 4.4051789 C 8.9133087 4.4931788 9.6054013 4.8308689 10.137401 5.3628684 L 8.6837289 6.3911245 C 8.5607291 6.4621244 8.3815883 6.445574 8.2925884 6.3225741 C 8.2575884 6.2865741 8.2401675 6.2505703 8.2401675 6.1975704 L 8.1333095 4.4051789 z M 4.7622425 6.0201458 L 6.0767973 7.1895351 C 6.1997972 7.295535 6.2170724 7.4758215 6.1110725 7.5988213 C 6.0760726 7.6518213 6.0399393 7.6695337 5.9699393 7.6875336 L 4.2481144 8.183516 C 4.1941145 7.4395167 4.3712429 6.6761452 4.7622425 6.0201458 z M 10.669675 6.0201458 C 10.864674 6.3391455 11.008107 6.693548 11.097106 7.0665476 C 11.185106 7.4385472 11.203673 7.8115164 11.167673 8.183516 L 9.4801234 7.7056793 C 9.3211235 7.6696794 9.2334236 7.50983 9.2684236 7.3508302 C 9.2864236 7.2978302 9.3029902 7.2628426 9.3389902 7.2278427 L 10.669675 6.0201458 z M 7.4619188 7.2782474 L 7.9941925 7.2782474 L 8.330896 7.7036631 L 8.2058923 8.2198074 L 7.7260394 8.451669 L 7.2482028 8.2198074 L 7.1231991 7.7036631 L 7.4619188 7.2782474 z M 9.2160027 8.6996602 L 10.988232 9.0000723 C 10.901232 9.248072 10.795545 9.4794956 10.653545 9.6754954 C 10.387545 10.100495 10.013997 10.474043 9.5889975 10.740043 L 8.8974449 9.0726551 C 8.8614449 8.9316552 8.9327239 8.7889516 9.0567238 8.7359516 C 9.1097237 8.7179516 9.1630027 8.6996602 9.2160027 8.6996602 z M 6.2179305 8.7178059 C 6.3599304 8.7178059 6.5003426 8.8056515 6.5183426 8.9476514 C 6.5363426 9.0006513 6.5361968 9.071076 6.5001969 9.125076 L 5.82679 10.758189 C 5.2057906 10.349189 4.7088302 9.7282173 4.4618304 9.018218 L 6.2179305 8.7178059 z M 7.689748 9.4416176 C 7.7375429 9.4402758 7.7867725 9.4533002 7.8328974 9.4799251 C 7.8868974 9.5149251 7.9210307 9.5499127 7.9740306 9.6029126 L 8.8268783 11.147313 C 8.7188784 11.166313 8.6121585 11.183896 8.4881587 11.219896 C 8.2391589 11.272896 7.9930392 11.306592 7.7260394 11.306592 C 7.3540398 11.306592 6.9630707 11.236167 6.6090711 11.129167 L 7.4780483 9.5484755 C 7.5330482 9.4822256 7.6100899 9.4438539 7.689748 9.4416176 z "
   id="path1-0" />
        </mask></defs><g
     inkscape:label="Layer 1"
     inkscape:groupmode="layer"
     id="layer1"><path
       d="m 4.1924442,2.587434 c 0.0124,0.0062 0.02232,0.02108 0.0372,0.02108 0.01364,0 0.03472,-0.005 0.03596,-0.0186 0.0025,-0.01736 -0.02356,-0.02852 -0.03968,-0.03596 -0.02108,-0.0087 -0.04837,-0.0124 -0.06821,-0.0012 -0.005,0.0025 -0.0099,0.0087 -0.0074,0.01364 0.0037,0.01612 0.02852,0.01364 0.04216,0.02108 z m -0.271589,0.02108 c 0.01488,0 0.0248,-0.01488 0.0372,-0.02108 0.01364,-0.0074 0.03844,-0.005 0.0434,-0.01984 0.0025,-0.005 -0.0025,-0.01116 -0.0074,-0.01364 -0.01984,-0.01116 -0.04713,-0.0074 -0.06821,0.0012 -0.01612,0.0074 -0.04217,0.0186 -0.03968,0.03596 0.0012,0.0124 0.02232,0.0186 0.03472,0.01736 z m 2.741929,3.457484 c -0.04464,-0.0496 -0.06573,-0.143855 -0.08929,-0.244306 -0.02232,-0.10045 -0.04836,-0.208342 -0.130214,-0.277789 -0.01612,-0.01364 -0.03224,-0.02604 -0.0496,-0.03596 -0.01612,-0.0099 -0.03348,-0.0186 -0.05085,-0.0248 0.114092,-0.338556 0.06945,-0.675872 -0.04588,-0.980944 C 6.1555752,4.12892 5.9087892,3.802765 5.7202892,3.579542 5.5082272,3.312914 5.3023652,3.059927 5.3060852,2.686648 c 0.0062,-0.56922 0.06325,-1.627052 -0.940019,-1.628292 -1.269894,-0.0025 -0.95242,1.282295 -0.966062,1.676657 -0.02108,0.29019 -0.07937,0.518374 -0.279029,0.802364 -0.234385,0.27903 -0.56426,0.729197 -0.720516,1.199207 -0.07441,0.221983 -0.109132,0.447687 -0.07689,0.66099 -0.08061,0.07193 -0.141375,0.182299 -0.205862,0.250506 -0.05208,0.05333 -0.127733,0.07317 -0.210822,0.102931 -0.08309,0.02976 -0.173618,0.07441 -0.229424,0.179819 -0.02604,0.04837 -0.03472,0.100451 -0.03472,0.153776 0,0.04837 0.0074,0.09797 0.01488,0.146335 0.01488,0.100451 0.031,0.194701 0.0099,0.257948 -0.06449,0.178578 -0.07317,0.302591 -0.02728,0.393121 0.04713,0.09053 0.141375,0.130214 0.249266,0.152536 0.214543,0.04465 0.505973,0.03348 0.735398,0.155016 0.245545,0.128974 0.494812,0.174859 0.693233,0.128974 0.143855,-0.03224 0.261667,-0.119052 0.321193,-0.250507 0.155017,-0.0012 0.326155,-0.06697 0.598984,-0.08185 0.184779,-0.01488 0.416684,0.06573 0.683312,0.05085 0.0074,0.02852 0.01736,0.05705 0.031,0.08309 v 0.0012 c 0.102931,0.207102 0.295151,0.301352 0.499773,0.28523 0.205861,-0.01612 0.422884,-0.136414 0.598983,-0.345996 0.168657,-0.203382 0.446447,-0.287711 0.631226,-0.399322 0.09177,-0.05581 0.166178,-0.125253 0.172378,-0.226945 0.005,-0.10169 -0.05456,-0.214542 -0.19222,-0.368318 z M 4.2284082,2.140984 c 0.121532,-0.275309 0.424124,-0.270348 0.545657,-0.005 0.08061,0.176098 0.04465,0.3832 -0.05332,0.501012 -0.01984,-0.0099 -0.07317,-0.03224 -0.156257,-0.06077 0.01364,-0.01488 0.03844,-0.03348 0.04837,-0.05705 0.05953,-0.146335 -0.0025,-0.334835 -0.112852,-0.338556 -0.09053,-0.0062 -0.172378,0.133935 -0.146335,0.28523 -0.05085,-0.0248 -0.116572,-0.0434 -0.161217,-0.05456 -0.0124,-0.08557 -0.0037,-0.181059 0.03596,-0.270349 z M 3.7236742,1.998369 c 0.125254,0 0.257948,0.176099 0.236865,0.415444 -0.0434,0.0124 -0.08805,0.031 -0.126493,0.05705 0.01488,-0.110372 -0.04092,-0.249266 -0.119052,-0.243066 -0.104171,0.0087 -0.121533,0.262908 -0.02232,0.348477 0.0124,0.0099 0.02356,-0.0025 -0.07317,0.06821 -0.19346,-0.181059 -0.130213,-0.646108 0.104171,-0.646108 z m -0.168657,0.75276 c 0.07689,-0.05705 0.168657,-0.124014 0.174858,-0.130214 0.05829,-0.05457 0.167418,-0.176099 0.345997,-0.176099 0.08805,0 0.19346,0.02852 0.321193,0.110372 0.07813,0.05085 0.140135,0.05457 0.28027,0.115332 0.104171,0.0434 0.169898,0.120293 0.130214,0.225704 -0.03224,0.08805 -0.136415,0.178579 -0.28151,0.224463 -0.137655,0.04464 -0.245546,0.198421 -0.47373,0.18478 -0.04836,-0.0025 -0.08681,-0.0124 -0.119053,-0.02604 -0.09921,-0.0434 -0.151295,-0.128973 -0.248026,-0.186019 -0.106651,-0.05953 -0.163697,-0.128974 -0.182299,-0.18974 -0.01736,-0.06077 0,-0.111612 0.05209,-0.152536 z m 0.04092,4.142036 c -0.03348,0.435286 -0.544417,0.426605 -0.933818,0.223224 -0.3708,-0.195941 -0.85073,-0.08061 -0.948701,-0.271589 -0.02976,-0.05829 -0.02976,-0.157497 0.03224,-0.327395 v -0.0025 c 0.02976,-0.09425 0.0074,-0.198421 -0.0074,-0.296391 -0.01488,-0.09673 -0.02232,-0.18602 0.01116,-0.248027 0.0434,-0.08309 0.105411,-0.112851 0.18354,-0.140134 0.127733,-0.04589 0.146335,-0.04217 0.243065,-0.122773 0.06821,-0.07069 0.117813,-0.159977 0.177339,-0.223224 0.06325,-0.06821 0.124013,-0.10045 0.219503,-0.08557 0.100451,0.01488 0.18726,0.08433 0.271589,0.198421 l 0.243065,0.441487 c 0.117813,0.246786 0.534497,0.600223 0.508454,0.85445 z m -0.01736,-0.321194 c -0.05085,-0.08185 -0.119052,-0.168657 -0.178579,-0.243065 0.08805,0 0.176099,-0.02728 0.207102,-0.110372 0.02852,-0.07689 0,-0.18478 -0.09177,-0.308792 C 3.3479132,5.684038 3.0403602,5.506699 3.0403602,5.506699 2.8729432,5.402528 2.7786932,5.274795 2.7352882,5.1359 c -0.0434,-0.138895 -0.0372,-0.288951 -0.0037,-0.436526 0.06449,-0.28399 0.230664,-0.560539 0.337315,-0.734157 0.02852,-0.02108 0.0099,0.03968 -0.107891,0.257947 -0.105411,0.199661 -0.302592,0.660989 -0.03224,1.021867 0.0074,-0.256707 0.06821,-0.518374 0.171138,-0.76268 0.148816,-0.339796 0.462569,-0.928858 0.487372,-1.397627 0.01364,0.0099 0.05705,0.03968 0.07689,0.05085 0.05705,0.03348 0.10045,0.08309 0.156256,0.127734 0.153777,0.124013 0.353438,0.114092 0.525816,0.01488 0.07689,-0.0434 0.138894,-0.09301 0.197181,-0.111612 0.122773,-0.03844 0.220743,-0.106651 0.276549,-0.186019 0.09549,0.376999 0.318713,0.921417 0.461328,1.186805 0.07565,0.141375 0.226944,0.440246 0.292671,0.801124 0.04092,-0.0012 0.08681,0.005 0.135175,0.01736 0.171138,-0.442727 -0.145096,-0.920177 -0.288951,-1.052871 -0.05829,-0.05705 -0.06077,-0.08185 -0.03224,-0.08061 0.156256,0.138894 0.362118,0.417924 0.436526,0.731677 0.03472,0.143855 0.04092,0.293911 0.005,0.442726 0.203382,0.08433 0.445207,0.221984 0.38072,0.431566 -0.02728,-0.0012 -0.03968,0 -0.05209,0 0.03968,-0.125253 -0.04836,-0.218263 -0.28275,-0.323674 -0.243066,-0.106651 -0.446447,-0.106651 -0.47497,0.155016 -0.150056,0.05209 -0.226944,0.182299 -0.265388,0.338556 -0.03472,0.138894 -0.04465,0.306312 -0.05457,0.494812 -0.0062,0.09549 -0.04464,0.223223 -0.08433,0.359638 -0.398082,0.28399 -0.95118,0.408003 -1.417469,0.08929 z m 3.192096,-0.142615 c -0.01116,0.208342 -0.510933,0.246786 -0.783762,0.576661 -0.163697,0.1947 -0.364598,0.302592 -0.540697,0.316233 -0.176099,0.01364 -0.328635,-0.05953 -0.417924,-0.239345 -0.05829,-0.137654 -0.02976,-0.28647 0.01364,-0.450167 0.04589,-0.176099 0.114092,-0.357158 0.122773,-0.503494 0.0099,-0.188499 0.02108,-0.353437 0.05209,-0.47993 0.03224,-0.127733 0.08185,-0.213302 0.169898,-0.261667 0.0037,-0.0025 0.0087,-0.0037 0.0124,-0.0062 0.0099,0.163697 0.09053,0.329875 0.233145,0.365838 0.156256,0.04093 0.38072,-0.09301 0.47621,-0.202141 0.111611,-0.0037 0.1947,-0.01116 0.280269,0.06325 0.122773,0.105411 0.08805,0.375759 0.212063,0.515894 0.131454,0.143855 0.173618,0.241826 0.169897,0.305072 z M 3.6033802,2.902424 c 0.0248,0.02356 0.05829,0.05581 0.09921,0.08805 0.08185,0.06449 0.195941,0.131454 0.338556,0.131454 0.143855,0 0.279029,-0.07317 0.394361,-0.133934 0.06077,-0.03224 0.135175,-0.08681 0.18354,-0.128974 0.04836,-0.04216 0.07317,-0.07813 0.03844,-0.08185 -0.03472,-0.0037 -0.03224,0.03224 -0.07441,0.06325 -0.05457,0.03968 -0.120293,0.09177 -0.172378,0.121533 -0.09177,0.05209 -0.241826,0.126493 -0.370799,0.126493 -0.128974,0 -0.231905,-0.05953 -0.308793,-0.120293 -0.03844,-0.031 -0.07069,-0.06201 -0.09549,-0.08557 -0.0186,-0.01736 -0.02356,-0.05705 -0.05333,-0.06077 -0.01736,-0.0012 -0.02232,0.04588 0.02108,0.08061 z"
       id="path1"
       style="stroke-width:0.0124013" /></g></svg>
