<?xml version="1.0" encoding="UTF-8" standalone="no"?>
<!-- Created with Inkscape (http://www.inkscape.org/) -->

<svg
   width="32"
   height="32"
   viewBox="0 0 8.4666665 8.4666666"
   version="1.1"
   id="svg1"
   inkscape:version="1.4 (e7c3feb1, 2024-10-09)"
   sodipodi:docname="memory-solid-redo.svg"
   xml:space="preserve"
   xmlns:inkscape="http://www.inkscape.org/namespaces/inkscape"
   xmlns:sodipodi="http://sodipodi.sourceforge.net/DTD/sodipodi-0.dtd"
   xmlns="http://www.w3.org/2000/svg"
   xmlns:svg="http://www.w3.org/2000/svg"><sodipodi:namedview
     id="namedview1"
     pagecolor="#ffffff"
     bordercolor="#000000"
     borderopacity="0.25"
     inkscape:showpageshadow="2"
     inkscape:pageopacity="0.0"
     inkscape:pagecheckerboard="false"
     inkscape:deskcolor="#d1d1d1"
     inkscape:document-units="mm"
     showgrid="true"
     inkscape:zoom="14.95916"
     inkscape:cx="14.639859"
     inkscape:cy="19.787207"
     inkscape:window-width="1496"
     inkscape:window-height="835"
     inkscape:window-x="0"
     inkscape:window-y="34"
     inkscape:window-maximized="1"
     inkscape:current-layer="layer1"
     showguides="true"><inkscape:grid
       id="grid1"
       units="px"
       originx="0"
       originy="0"
       spacingx="0.26458333"
       spacingy="0.26458333"
       empcolor="#0099e5"
       empopacity="0.30196078"
       color="#0099e5"
       opacity="0.14901961"
       empspacing="5"
       dotted="false"
       gridanglex="30"
       gridanglez="30"
       visible="true" /><sodipodi:guide
       position="8.7312496,6.8791666"
       orientation="0,-1"
       id="guide1"
       inkscape:locked="false" /><sodipodi:guide
       position="10.583333,1.5875003"
       orientation="0,-1"
       id="guide2"
       inkscape:locked="false" /><sodipodi:guide
       position="0.52916664,9.2604165"
       orientation="1,0"
       id="guide3"
       inkscape:locked="false" /><sodipodi:guide
       position="7.9374996,8.7312499"
       orientation="1,0"
       id="guide4"
       inkscape:locked="false" /></sodipodi:namedview><defs
     id="defs1" /><g
     inkscape:label="Layer 1"
     inkscape:groupmode="layer"
     id="layer1"><path
       id="rect6"
       style="fill:none;fill-rule:evenodd;stroke:#000000;stroke-width:0.529153;stroke-linecap:round;stroke-linejoin:round;stroke-dasharray:none;paint-order:fill markers stroke"
       d="M 7.6729234,5.050844 V 6.457549 H 0.79374323 V 5.050844 M 5.7483515,3.0491057 V 4.126775 M 4.2289737,3.0491057 V 4.126775 M 6.5697061,6.0912018 V 6.4199295 M 5.0084913,6.0912018 V 6.4199295 M 3.4472767,6.0912018 V 6.4199295 M 1.8860618,6.0912018 V 6.4199295 M 2.709596,3.0491057 V 4.126775 M 1.5628178,2.0091178 c -0.4194862,0 -0.76054256,0.3410562 -0.76054256,0.7605435 v 0.087932 c 0,0.080808 0.052286,0.1497324 0.12002309,0.193702 C 1.07916,3.1534926 1.1825466,3.3293681 1.1825466,3.5301985 c 0,0.2008312 -0.1033866,0.3767067 -0.26024827,0.4789042 -0.0677343,0.043971 -0.12849274,0.1128939 -0.12849274,0.1937012 V 5.0512845 H 7.6725685 V 4.2028037 c 0,-0.080808 -0.077695,-0.1497316 -0.1454316,-0.1937012 C 7.3702751,3.906905 7.2668886,3.7310295 7.2668886,3.5301983 c 0,-0.2008304 0.1033865,-0.3767059 0.2602483,-0.4789032 C 7.5948709,3.0073241 7.64716,2.9384011 7.64716,2.8575931 v -0.087932 c 0,-0.4194873 -0.3410556,-0.7605435 -0.7605417,-0.7605435 z" /></g></svg>
