<?xml version="1.0" encoding="UTF-8" standalone="no"?>
<!-- Created with Inkscape (http://www.inkscape.org/) -->

<svg
   width="32"
   height="32"
   viewBox="0 0 8.4666665 8.4666666"
   version="1.1"
   id="svg1"
   inkscape:version="1.4 (e7c3feb1, 2024-10-09)"
   sodipodi:docname="nodeicon-redo.svg"
   xmlns:inkscape="http://www.inkscape.org/namespaces/inkscape"
   xmlns:sodipodi="http://sodipodi.sourceforge.net/DTD/sodipodi-0.dtd"
   xmlns="http://www.w3.org/2000/svg"
   xmlns:svg="http://www.w3.org/2000/svg">
  <sodipodi:namedview
     id="namedview1"
     pagecolor="#ffffff"
     bordercolor="#000000"
     borderopacity="0.25"
     inkscape:showpageshadow="2"
     inkscape:pageopacity="0.0"
     inkscape:pagecheckerboard="false"
     inkscape:deskcolor="#d1d1d1"
     inkscape:document-units="mm"
     showgrid="true"
     inkscape:zoom="11.976621"
     inkscape:cx="19.997293"
     inkscape:cy="18.536112"
     inkscape:window-width="1120"
     inkscape:window-height="565"
     inkscape:window-x="0"
     inkscape:window-y="34"
     inkscape:window-maximized="0"
     inkscape:current-layer="layer1"
     showguides="true">
    <inkscape:grid
       id="grid1"
       units="px"
       originx="0"
       originy="0"
       spacingx="0.26458333"
       spacingy="0.26458333"
       empcolor="#0099e5"
       empopacity="0.30196078"
       color="#0099e5"
       opacity="0.14901961"
       empspacing="5"
       dotted="false"
       gridanglex="30"
       gridanglez="30"
       visible="true" />
    <sodipodi:guide
       position="8.9958329,7.9374999"
       orientation="0,-1"
       id="guide1"
       inkscape:locked="false" />
    <sodipodi:guide
       position="9.5249996,0.52916701"
       orientation="0,-1"
       id="guide2"
       inkscape:locked="false" />
    <sodipodi:guide
       position="1.5874999,5.2916667"
       orientation="1,0"
       id="guide3"
       inkscape:locked="false" />
    <sodipodi:guide
       position="6.8791663,5.0270834"
       orientation="1,0"
       id="guide4"
       inkscape:locked="false" />
  </sodipodi:namedview>
  <defs
     id="defs1" />
  <g
     inkscape:label="Layer 1"
     inkscape:groupmode="layer"
     id="layer1">
    <path
       id="path6"
       style="fill:none;fill-opacity:1;fill-rule:evenodd;stroke:#000000;stroke-width:0.529167;stroke-linecap:round;stroke-linejoin:round;stroke-miterlimit:2;stroke-dasharray:none;stroke-dashoffset:111.6;stroke-opacity:1;paint-order:fill markers stroke"
       d="m 3.5199109,4.8110845 1.405523,0.8114786 M 3.5031187,3.6934056 5.0436556,2.7476679 M 6.6146587,2.2172354 a 0.84128002,0.84128002 0 0 1 -0.84128,0.8412801 0.84128002,0.84128002 0 0 1 -0.84128,-0.8412801 0.84128002,0.84128002 0 0 1 0.84128,-0.8412799 0.84128002,0.84128002 0 0 1 0.84128,0.8412799 z m -0.00668,4.0321957 a 0.84128002,0.84128002 0 0 1 -0.84128,0.84128 0.84128002,0.84128002 0 0 1 -0.84128,-0.84128 0.84128002,0.84128002 0 0 1 0.84128,-0.84128 0.84128002,0.84128002 0 0 1 0.84128,0.84128 z M 3.5345681,4.2352726 a 0.84128002,0.84128002 0 0 1 -0.84128,0.84128 0.84128002,0.84128002 0 0 1 -0.8412801,-0.84128 0.84128002,0.84128002 0 0 1 0.8412801,-0.84128 0.84128002,0.84128002 0 0 1 0.84128,0.84128 z" />
  </g>
</svg>
