<?xml version="1.0" encoding="UTF-8" standalone="no"?>
<!-- Created with Inkscape (http://www.inkscape.org/) -->

<svg
   width="32"
   height="32"
   viewBox="0 0 8.4666665 8.4666666"
   version="1.1"
   id="svg1"
   inkscape:version="1.4 (e7c3feb1, 2024-10-09)"
   sodipodi:docname="plug-solid-redo.svg"
   xml:space="preserve"
   xmlns:inkscape="http://www.inkscape.org/namespaces/inkscape"
   xmlns:sodipodi="http://sodipodi.sourceforge.net/DTD/sodipodi-0.dtd"
   xmlns="http://www.w3.org/2000/svg"
   xmlns:svg="http://www.w3.org/2000/svg"><sodipodi:namedview
     id="namedview1"
     pagecolor="#ffffff"
     bordercolor="#000000"
     borderopacity="0.25"
     inkscape:showpageshadow="2"
     inkscape:pageopacity="0.0"
     inkscape:pagecheckerboard="false"
     inkscape:deskcolor="#d1d1d1"
     inkscape:document-units="mm"
     showgrid="true"
     inkscape:zoom="10.413859"
     inkscape:cx="2.0645564"
     inkscape:cy="17.764787"
     inkscape:window-width="1496"
     inkscape:window-height="833"
     inkscape:window-x="0"
     inkscape:window-y="34"
     inkscape:window-maximized="0"
     inkscape:current-layer="layer1"
     showguides="true"><inkscape:grid
       id="grid1"
       units="px"
       originx="0"
       originy="0"
       spacingx="0.26458333"
       spacingy="0.26458333"
       empcolor="#0099e5"
       empopacity="0.30196078"
       color="#0099e5"
       opacity="0.14901961"
       empspacing="5"
       dotted="false"
       gridanglex="30"
       gridanglez="30"
       visible="true" /><sodipodi:guide
       position="8.9958329,7.9374999"
       orientation="0,-1"
       id="guide1"
       inkscape:locked="false" /><sodipodi:guide
       position="9.5249996,0.52916701"
       orientation="0,-1"
       id="guide2"
       inkscape:locked="false" /><sodipodi:guide
       position="1.5874999,5.2916667"
       orientation="1,0"
       id="guide3"
       inkscape:locked="false" /><sodipodi:guide
       position="6.8791663,5.0270834"
       orientation="1,0"
       id="guide4"
       inkscape:locked="false" /></sodipodi:namedview><defs
     id="defs1" /><g
     inkscape:label="Layer 1"
     inkscape:groupmode="layer"
     id="layer1"><path
       id="path8-6"
       style="fill:none;stroke:#000000;stroke-width:0.529167;stroke-dasharray:none"
       d="M 5.8203335,2.972 V 1.5263995 c 0,-0.219522 -0.1773538,-0.396875 -0.396875,-0.396875 -0.219522,0 -0.396875,0.177353 -0.396875,0.396875 V 2.972 m -1.5926841,0 V 1.5260172 c 0,-0.219522 -0.1773538,-0.396875 -0.396875,-0.396875 -0.219522,0 -0.396875,0.177353 -0.396875,0.396875 V 2.972 M 2.2489583,2.9718995 c -0.219522,0 -0.396875,0.1773539 -0.396875,0.396875 0,0.2195211 0.177353,0.396875 0.396875,0.396875 v 0.396875 c 0,0.9599408 0.6821291,1.7610295 1.5875,1.9445841 v 0.8335409 c 0,0.2195212 0.1773539,0.396875 0.396875,0.396875 0.2195211,0 0.396875,-0.1773538 0.396875,-0.396875 V 6.1071086 c 0.9053709,-0.1835546 1.5875,-0.9846433 1.5875,-1.9445841 v -0.396875 c 0.219522,0 0.396875,-0.1773539 0.396875,-0.396875 0,-0.2195211 -0.177353,-0.396875 -0.396875,-0.396875 z" /></g></svg>
