<?xml version="1.0" encoding="UTF-8" standalone="no"?>
<!-- Created with Inkscape (http://www.inkscape.org/) -->

<svg
   width="32"
   height="32"
   viewBox="0 0 8.4666665 8.4666666"
   version="1.1"
   id="svg1"
   inkscape:version="1.4 (e7c3feb1, 2024-10-09)"
   sodipodi:docname="PuzzleIcon-redo.svg"
   xml:space="preserve"
   xmlns:inkscape="http://www.inkscape.org/namespaces/inkscape"
   xmlns:sodipodi="http://sodipodi.sourceforge.net/DTD/sodipodi-0.dtd"
   xmlns="http://www.w3.org/2000/svg"
   xmlns:svg="http://www.w3.org/2000/svg"><sodipodi:namedview
     id="namedview1"
     pagecolor="#ffffff"
     bordercolor="#000000"
     borderopacity="0.25"
     inkscape:showpageshadow="2"
     inkscape:pageopacity="0.0"
     inkscape:pagecheckerboard="false"
     inkscape:deskcolor="#d1d1d1"
     inkscape:document-units="mm"
     showgrid="true"
     inkscape:zoom="9.2145938"
     inkscape:cx="25.231715"
     inkscape:cy="11.7748"
     inkscape:window-width="1112"
     inkscape:window-height="748"
     inkscape:window-x="0"
     inkscape:window-y="34"
     inkscape:window-maximized="0"
     inkscape:current-layer="g7"
     showguides="true"><inkscape:grid
       id="grid1"
       units="px"
       originx="0"
       originy="0"
       spacingx="0.26458333"
       spacingy="0.26458333"
       empcolor="#0099e5"
       empopacity="0.30196078"
       color="#0099e5"
       opacity="0.14901961"
       empspacing="5"
       dotted="false"
       gridanglex="30"
       gridanglez="30"
       visible="true" /><sodipodi:guide
       position="8.9958329,7.4083333"
       orientation="0,-1"
       id="guide1"
       inkscape:locked="false" /><sodipodi:guide
       position="4.7624998,1.0583336"
       orientation="0,-1"
       id="guide2"
       inkscape:locked="false" /><sodipodi:guide
       position="1.0583333,8.2020832"
       orientation="1,0"
       id="guide3"
       inkscape:locked="false" /><sodipodi:guide
       position="7.408333,6.6145833"
       orientation="1,0"
       id="guide4"
       inkscape:locked="false" /></sodipodi:namedview><defs
     id="defs1" /><g
     style="fill:none"
     id="g7"
     transform="matrix(0.52778155,0,0,0.52803625,0.02216406,2.1892315e-6)"
     inkscape:label="1"><path
       style="fill:none;fill-opacity:1;stroke:#000000;stroke-width:1.00259;stroke-linecap:round;stroke-linejoin:round;stroke-dasharray:none;stroke-opacity:1"
       d="m 7.5713282,2.9821674 c -0.41721,0.8873799 0.596328,1.1281971 0.715529,1.7425772 0.119216,0.6143539 -0.596014,0.6928156 -0.596014,0.6928156 h -2.318994 v 2.4263865 c -0.0085,0.098617 -0.124232,0.668021 -0.688763,0.5591118 -0.615409,-0.1189064 -0.847285,-1.1298754 -1.736197,-0.713374 -0.284556,0.236598 -0.474644,0.9098059 -0.481985,1.4046876 -0.0076,0.5153325 0.115996,1.1921819 0.458274,1.4769049 0.88891,0.416492 1.120788,-0.5953357 1.736195,-0.7143233 0.615311,-0.1189062 0.693813,0.5953063 0.693813,0.5953063 l 0.0187,3.076401 2.329718,-0.02445 c 0,0 0.715215,-0.03392 0.596011,-0.648513 -0.118885,-0.614235 -0.98236,-0.865382 -0.598585,-1.681527 0.263686,-0.315926 0.757402,-0.463633 1.198327,-0.479867 0.162735,-0.0049 0.315897,0.0071 0.449623,0.03614 0.006,8.73e-4 0.01229,0.0021 0.0182,0.0025 0.380298,0.04892 0.7672638,0.195625 0.9897538,0.462465 0.383792,0.816022 -0.4806268,1.069118 -0.5998288,1.683338 -0.119218,0.614514 0.5963248,0.648514 0.5963248,0.648514 l 3.14202,9.47e-4 -0.02003,-3.093057 c 0,0 -0.03395,-0.7143238 -0.649305,-0.5953362 -0.615563,0.1189062 -0.322656,0.8944062 -1.101407,0.5295102 -0.301392,-0.250941 -0.441986,-0.7209112 -0.45746,-1.1401043 -0.0055,-0.1547119 0.0077,-0.3003061 0.03451,-0.4274992 5.23e-4,-0.00483 0.002,-0.011732 0.0024,-0.016673 0.04674,-0.3615674 0.186738,-0.728621 0.441209,-0.9401527 0.146106,-0.068321 0.252247,-0.093289 0.331506,-0.087106 0.344195,0.02668 0.272672,0.531121 0.772813,0.6277724 0.574258,0.1110665 0.638907,-0.4829233 0.645529,-0.5654152 V 5.417026 H 10.194468 C 9.9926552,5.3703324 9.6596402,5.1839862 9.7441552,4.7478095 9.8633712,4.133457 10.875948,3.8926123 10.458737,3.0052613 10.178038,2.6693219 9.5383372,2.5118302 9.0355352,2.5059933 8.5222292,2.4999252 7.8793032,2.6131123 7.5711592,2.981912 Z"
       id="path1" /></g></svg>
