<?xml version="1.0" encoding="UTF-8" standalone="no"?>
<!-- Created with Inkscape (http://www.inkscape.org/) -->

<svg
   width="32"
   height="32"
   viewBox="0 0 8.4666665 8.4666666"
   version="1.1"
   id="svg1"
   inkscape:version="1.4 (e7c3feb1, 2024-10-09)"
   sodipodi:docname="PVCIcon.svg"
   xml:space="preserve"
   xmlns:inkscape="http://www.inkscape.org/namespaces/inkscape"
   xmlns:sodipodi="http://sodipodi.sourceforge.net/DTD/sodipodi-0.dtd"
   xmlns="http://www.w3.org/2000/svg"
   xmlns:svg="http://www.w3.org/2000/svg"><sodipodi:namedview
     id="namedview1"
     pagecolor="#ffffff"
     bordercolor="#000000"
     borderopacity="0.25"
     inkscape:showpageshadow="2"
     inkscape:pageopacity="0.0"
     inkscape:pagecheckerboard="false"
     inkscape:deskcolor="#d1d1d1"
     inkscape:document-units="mm"
     showgrid="true"
     inkscape:zoom="21.528578"
     inkscape:cx="13.005968"
     inkscape:cy="16.536159"
     inkscape:window-width="1496"
     inkscape:window-height="835"
     inkscape:window-x="0"
     inkscape:window-y="34"
     inkscape:window-maximized="1"
     inkscape:current-layer="g7"
     showguides="true"><inkscape:grid
       id="grid1"
       units="px"
       originx="0"
       originy="0"
       spacingx="0.26458333"
       spacingy="0.26458333"
       empcolor="#0099e5"
       empopacity="0.30196078"
       color="#0099e5"
       opacity="0.14901961"
       empspacing="5"
       dotted="false"
       gridanglex="30"
       gridanglez="30"
       visible="true" /><sodipodi:guide
       position="8.7312496,6.8791666"
       orientation="0,-1"
       id="guide1"
       inkscape:locked="false" /><sodipodi:guide
       position="10.583333,1.5875003"
       orientation="0,-1"
       id="guide2"
       inkscape:locked="false" /><sodipodi:guide
       position="0.52916664,9.2604165"
       orientation="1,0"
       id="guide3"
       inkscape:locked="false" /><sodipodi:guide
       position="7.9374996,8.7312499"
       orientation="1,0"
       id="guide4"
       inkscape:locked="false" /></sodipodi:namedview><defs
     id="defs1">
        </defs><g
     inkscape:label="Layer 1"
     inkscape:groupmode="layer"
     id="layer1"><g
       transform="matrix(0.26458333,0,0,0.26458333,-2.5849812,-2.3906863)"
       id="g7">
      <g
   transform="matrix(0.47966782,0,0,0.47966782,0.30101694,12.45107)"
   id="g5"><path
     style="fill:currentColor;fill-rule:evenodd;stroke-width:3.51127;stroke-linejoin:round;stroke-miterlimit:10"
     d="M 53.097143,8.2864262 C 43.854183,8.4793105 35.016686,9.1454905 26.9387,12.711486 c -1.62345,0.959789 -3.028422,2.269882 -3.028422,4.232665 v 18.583825 c 0,1.962783 1.404972,3.27288 3.028422,4.232665 8.158926,3.819532 18.353896,4.395431 26.158443,4.42506 9.242971,-0.192885 18.080467,-0.859065 26.158444,-4.42506 2.161534,-1.304952 3.028422,-1.596884 3.028422,-4.232665 V 16.944151 c 0,-1.962783 -1.404961,-3.272876 -3.028422,-4.232665 C 71.096671,8.8919548 60.901701,8.3160552 53.097143,8.2864262 Z m -0.762449,3.0355478 c 1.817066,-0.01649 3.635352,0.03078 5.45116,0.09263 -0.03502,1.054504 -0.07191,2.109309 -0.106886,3.163811 -3.64453,-0.148992 -7.296357,-0.114063 -10.937949,0.09263 -0.05149,-1.052443 -0.0982,-2.104242 -0.149639,-3.156685 1.91431,-0.09239 3.826352,-0.185058 5.743314,-0.192394 z m 7.104322,0.178143 c 3.748354,0.258453 7.479265,0.741194 11.15172,1.539151 -0.208016,1.033907 -0.419053,2.065772 -0.627062,3.099679 -3.54787,-0.771872 -7.151782,-1.245556 -10.774057,-1.482145 0.08445,-1.052445 0.165023,-2.104241 0.249399,-3.156685 z m -14.507924,0.135388 0.327782,3.142433 c -3.595602,0.33986 -7.189208,0.849483 -10.674298,1.817054 l -0.783827,-3.056925 c 3.631557,-1.017807 7.380258,-1.54776 11.130343,-1.902562 z m 27.448194,1.859808 c 2.409779,0.96616 5.732453,1.821423 6.185108,4.831224 0.125845,1.872471 0.02171,3.766178 0.05701,5.65068 h -3.185187 l 0.02138,-1.410889 c -0.490496,0.187273 -1.181981,0.54215 -1.703042,0.705444 L 72.38642,20.421493 c 1.042555,-0.558026 2.253798,-0.896517 3.056925,-1.809928 -1.079786,-1.200219 -2.75145,-1.554843 -4.189911,-2.166213 z m -40.488225,0.61281 0.776702,2.073578 0.299279,0.790953 c -0.177457,0.108379 -0.340329,0.206698 -0.498799,0.299279 -0.643044,0.375684 -1.157995,0.675186 -1.717293,1.332506 0.718781,0.913974 2.229426,1.569896 3.748118,2.009447 l -0.904964,2.985669 c -0.872945,-0.182846 -2.092229,-0.70518 -2.814652,-1.033227 l -0.04988,1.410889 h -3.16381 c -0.005,-1.793901 0.01856,-3.586037 0,-5.379904 0.08615,-2.430154 2.48221,-3.486843 4.325299,-4.48919 z m 39.276857,6.6269 c 0.24284,1.025669 0.483972,2.052634 0.726821,3.078303 -3.642816,0.954173 -7.377145,1.459885 -11.123217,1.78855 l -0.313531,-3.149559 c 3.60648,-0.301327 7.202429,-0.810992 10.709927,-1.717294 z m -35.379099,0.19952 c 3.526384,0.849419 7.126197,1.296293 10.738429,1.581905 l -0.277902,3.149559 c -3.748547,-0.282584 -7.486169,-0.772569 -11.144594,-1.646036 0.228616,-1.029788 0.455451,-2.05564 0.684067,-3.085428 z m 23.179901,1.624659 c 0.04531,1.054502 0.09012,2.109308 0.135388,3.163811 -3.726637,0.196571 -7.466443,0.208123 -11.194474,0.04275 0.03713,-1.052442 0.07693,-2.104241 0.114011,-3.156685 3.646145,0.15071 7.300654,0.147124 10.945075,-0.04988 z m -31.402958,2.99992 h 3.16381 c -0.0035,2.772228 -0.0027,5.693193 0.02138,8.465331 0.670925,0.807339 2.526726,1.289147 3.470215,1.681665 l -0.826581,3.021297 c -2.070718,-0.838689 -5.341179,-1.859501 -5.786068,-4.368054 -0.103296,-2.927259 -0.01456,-5.868726 -0.04275,-8.800239 z m 47.891827,0 h 3.16381 c -0.0474,2.909384 0.11056,5.831254 -0.09263,8.728982 -0.336341,2.42835 -2.85664,3.319405 -4.774218,4.261168 -0.318985,-0.666829 -0.96197,-2.85028 -0.96197,-2.85028 0,0 2.645004,-1.379396 2.636509,-1.646036 -0.0103,-0.321267 0.0285,-8.493834 0.0285,-8.493834 z m -4.289671,10.453401 0.726821,3.078302 c -3.646575,0.935765 -7.376587,1.471596 -11.123217,1.788551 l -0.313531,-3.142433 c 3.604681,-0.316619 7.204946,-0.805452 10.709927,-1.72442 z m -35.379099,0.192394 c 3.524434,0.854511 7.12591,1.30842 10.738429,1.581905 l -0.277902,3.156685 c -3.748716,-0.279989 -7.4872,-0.765917 -11.144594,-1.646036 0.228616,-1.029788 0.455451,-2.062766 0.684067,-3.092554 z m 23.179901,1.62466 c 0.04531,1.054502 0.09012,2.109309 0.135388,3.16381 -3.726764,0.205336 -7.465919,0.20414 -11.194474,0.04988 0.03713,-1.054502 0.07693,-2.109307 0.114011,-3.16381 3.645874,0.155404 7.301211,0.160017 10.945075,-0.04988 z"
     id="path5" /></g>
    </g></g></svg>
