<?xml version="1.0" encoding="UTF-8" standalone="no"?>
<!-- Created with Inkscape (http://www.inkscape.org/) -->

<svg
   width="32"
   height="32"
   viewBox="0 0 8.4666665 8.4666666"
   version="1.1"
   id="svg1"
   inkscape:version="1.4 (e7c3feb1, 2024-10-09)"
   sodipodi:docname="stethoscope-solid-redo.svg"
   xml:space="preserve"
   xmlns:inkscape="http://www.inkscape.org/namespaces/inkscape"
   xmlns:sodipodi="http://sodipodi.sourceforge.net/DTD/sodipodi-0.dtd"
   xmlns="http://www.w3.org/2000/svg"
   xmlns:svg="http://www.w3.org/2000/svg"><sodipodi:namedview
     id="namedview1"
     pagecolor="#ffffff"
     bordercolor="#000000"
     borderopacity="0.25"
     inkscape:showpageshadow="2"
     inkscape:pageopacity="0.0"
     inkscape:pagecheckerboard="false"
     inkscape:deskcolor="#d1d1d1"
     inkscape:document-units="mm"
     showgrid="true"
     inkscape:zoom="18.720763"
     inkscape:cx="15.19703"
     inkscape:cy="7.2913695"
     inkscape:window-width="1120"
     inkscape:window-height="484"
     inkscape:window-x="0"
     inkscape:window-y="34"
     inkscape:window-maximized="0"
     inkscape:current-layer="svg1"
     showguides="true"><inkscape:grid
       id="grid1"
       units="px"
       originx="0"
       originy="0"
       spacingx="0.26458333"
       spacingy="0.26458333"
       empcolor="#0099e5"
       empopacity="0.30196078"
       color="#0099e5"
       opacity="0.14901961"
       empspacing="5"
       dotted="false"
       gridanglex="30"
       gridanglez="30"
       visible="true" /><sodipodi:guide
       position="8.9958329,7.4083333"
       orientation="0,-1"
       id="guide1"
       inkscape:locked="false" /><sodipodi:guide
       position="4.7624998,1.0583336"
       orientation="0,-1"
       id="guide2"
       inkscape:locked="false" /><sodipodi:guide
       position="1.0583333,8.2020832"
       orientation="1,0"
       id="guide3"
       inkscape:locked="false" /><sodipodi:guide
       position="7.408333,6.6145833"
       orientation="1,0"
       id="guide4"
       inkscape:locked="false" /></sodipodi:namedview><defs
     id="defs1" /><path
     id="path7"
     style="fill:none;fill-rule:evenodd;stroke:#000000;stroke-width:0.529191;stroke-linecap:round;stroke-linejoin:round;stroke-dasharray:none;paint-order:fill markers stroke"
     d="m 6.450344,4.9954333 c 0,1.2596809 -0.8107826,2.0023239 -1.8109332,2.0023239 -1.0001507,0 -1.8109331,-0.742643 -1.8109331,-2.0023239 M 6.4500039,4.9685621 C 6.4518339,4.6672172 6.4425958,4.6842307 6.4446692,4.382889 M 4.4525662,3.3085956 C 4.4655532,4.0260607 3.9882424,4.7485878 3.2818551,4.9382342 2.6864786,5.113549 2.014288,4.8513758 1.6627596,4.3474182 1.4442565,4.0484743 1.329431,3.6781714 1.3303464,3.3085956 M 3.7704385,1.4689095 c 0.2335641,0.078776 0.4929889,0.1489668 0.6634563,0.3374968 0.054407,0.1089178 0.017919,0.2378704 0.027026,0.3563284 -0.0034,0.4199528 -0.0068,0.8399056 -0.010198,1.2598584 M 2.027265,1.4689095 C 1.7939123,1.5477445 1.5352409,1.6184667 1.364573,1.8064046 1.308876,1.9185784 1.344175,2.051616 1.333483,2.1737023 l -0.00474,1.2484244 m 5.8149949,0.064621 c 2e-7,0.4202744 -0.3407002,0.7609739 -0.7609746,0.7609725 -0.4202733,0 -0.7609722,-0.3406989 -0.7609721,-0.7609722 0,-0.4202733 0.3406988,-0.7609721 0.7609721,-0.7609721 0.4202732,0 0.760972,0.3406987 0.7609721,0.7609719 z"
     sodipodi:nodetypes="csccccccccccccccccssscc" /></svg>
